<svg width="271" height="238" viewBox="0 0 271 238" fill="none" xmlns="http://www.w3.org/2000/svg">
<path fill-rule="evenodd" clip-rule="evenodd" d="M179.332 113.219L174.969 113.219C155.169 113.176 136.192 105.292 122.192 91.2914C108.191 77.2908 100.307 58.3141 100.264 38.5143L100.264 0.00012207L146.258 0.000134896L146.258 38.5143C146.296 46.1169 149.334 53.3971 154.71 58.7729C160.086 64.1488 167.366 67.1858 174.969 67.2242L224.924 67.2242L224.924 71.2058C224.903 82.3417 220.47 93.0153 212.596 100.89C204.721 108.764 194.048 113.197 182.912 113.219L179.332 113.219Z" fill="black" fill-opacity="0.1"/>
<path fill-rule="evenodd" clip-rule="evenodd" d="M271 0.000134874L270.964 25.2751C270.927 36.4003 266.487 47.0583 258.614 54.9191C250.742 62.7799 240.077 67.204 228.952 67.2241L225.087 67.2241L225.184 0.000122097L271 0.000134874Z" fill="black" fill-opacity="0.1"/>
<path fill-rule="evenodd" clip-rule="evenodd" d="M119.964 158.932L119.964 163.296C119.921 183.095 112.036 202.072 98.036 216.072C84.0354 230.073 65.059 237.957 45.2593 238L0.351534 238L0.351544 192.005L45.2593 192.005C52.862 191.967 60.1423 188.93 65.5183 183.554C70.8943 178.179 73.9314 170.898 73.9698 163.296L73.9698 113.34L77.9514 113.34C89.0872 113.361 99.7607 117.794 107.635 125.669C115.509 133.543 119.942 144.216 119.964 155.352L119.964 158.932Z" fill="black" fill-opacity="0.1"/>
<path fill-rule="evenodd" clip-rule="evenodd" d="M0.351562 67.2466L32.0201 67.2914C43.1453 67.3283 53.8034 71.7684 61.6643 79.641C69.5252 87.5136 73.9494 98.1783 73.9698 109.304L73.9698 113.168L0.351552 113.062L0.351562 67.2466Z" fill="black" fill-opacity="0.1"/>
</svg>
