<svg width="659" height="742" viewBox="0 0 659 742" fill="none" xmlns="http://www.w3.org/2000/svg">
<g filter="url(#filter0_f_5_1486)">
<path d="M238 54L54 97.8071V688L238 644.193V54Z" fill="url(#paint0_linear_5_1486)"/>
</g>
<g filter="url(#filter1_d_5_1486)">
<path d="M189 50C189 45.5817 192.582 42 197 42H633C636.314 42 639 44.6863 639 48V653C639 656.314 636.314 659 633 659H197C192.582 659 189 655.418 189 651V50Z" fill="#27262F"/>
<path d="M189 50C189 45.5817 192.582 42 197 42H219V659H197C192.582 659 189 655.418 189 651V50Z" fill="url(#paint1_linear_5_1486)"/>
</g>
<path d="M231.234 639.848C230.746 639.646 230.354 639.254 230.152 638.766L230.614 638.574C230.541 638.398 230.5 638.204 230.5 638V634.007H230V626.021H230.5V618.035H230V610.049H230.5V602.063H230V594.076H230.5V586.09H230V578.104H230.5V570.118H230V562.132H230.5V554.146H230V546.16H230.5V538.174H230V530.188H230.5V522.202H230V514.215H230.5V506.229H230V498.243H230.5V490.257H230V482.271H230.5V474.285H230V466.299H230.5V458.313H230V450.327H230.5V442.34H230V434.354H230.5V426.368H230V418.382H230.5V410.396H230V402.41H230.5V394.424H230V386.438H230.5V378.451H230V370.465H230.5V362.479H230V354.493H230.5V346.507H230V338.521H230.5V330.535H230V322.549H230.5V314.563H230V306.576H230.5V298.59H230V290.604H230.5V282.618H230V274.632H230.5V266.646H230V258.66H230.5V250.674H230V242.688H230.5V234.701H230V226.715H230.5V218.729H230V210.743H230.5V202.757H230V194.771H230.5V186.785H230V178.799H230.5V170.813H230V162.826H230.5V154.84H230V146.854H230.5V138.868H230V130.882H230.5V122.896H230V114.91H230.5V106.924H230V98.9375H230.5V90.9514H230V82.9653H230.5V74.9792H230V66.993H230.5V63C230.5 62.7957 230.541 62.6021 230.614 62.4259L230.152 62.2344C230.354 61.7455 230.746 61.3545 231.234 61.1518L231.426 61.6136C231.602 61.5406 231.796 61.5 232 61.5H236.021V61H244.063V61.5H252.104V61H260.146V61.5H268.188V61H276.229V61.5H284.271V61H292.313V61.5H300.354V61H308.396V61.5H316.438V61H324.479V61.5H332.521V61H340.562V61.5H348.604V61H356.646V61.5H364.687V61H372.729V61.5H380.771V61H388.812V61.5H396.854V61H404.896V61.5H412.937V61H420.979V61.5H429.021V61H437.062V61.5H445.104V61H453.146V61.5H461.188V61H469.229V61.5H477.271V61H485.313V61.5H493.354V61H501.396V61.5H509.438V61H517.479V61.5H525.521V61H533.562V61.5H541.604V61H549.646V61.5H557.688V61H565.729V61.5H573.771V61H581.812V61.5H589.854V61H597.896V61.5H605.938V61H613.979V61.5H618C618.204 61.5 618.398 61.5406 618.574 61.6136L618.766 61.1518C619.254 61.3545 619.646 61.7455 619.848 62.2344L619.386 62.426C619.459 62.6021 619.5 62.7957 619.5 63V66.9932H620V74.9793H619.5V82.9653H620V90.9514H619.5V98.9375H620V106.924H619.5V114.91H620V122.896H619.5V130.882H620V138.868H619.5V146.854H620V154.84H619.5V162.826H620V170.812H619.5V178.799H620V186.785H619.5V194.771H620V202.757H619.5V210.743H620V218.729H619.5V226.715H620V234.701H619.5V242.687H620V250.674H619.5V258.66H620V266.646H619.5V274.632H620V282.618H619.5V290.604H620V298.59H619.5V306.576H620V314.562H619.5V322.549H620V330.535H619.5V338.521H620V346.507H619.5V354.493H620V362.479H619.5V370.465H620V378.451H619.5V386.437H620V394.424H619.5V402.41H620V410.396H619.5V418.382H620V426.368H619.5V434.354H620V442.34H619.5V450.326H620V458.312H619.5V466.299H620V474.285H619.5V482.271H620V490.257H619.5V498.243H620V506.229H619.5V514.215H620V522.201H619.5V530.188H620V538.174H619.5V546.16H620V554.146H619.5V562.132H620V570.118H619.5V578.104H620V586.09H619.5V594.076H620V602.063H619.5V610.049H620V618.035H619.5V626.021H620V634.007H619.5V638C619.5 638.204 619.459 638.398 619.386 638.574L619.848 638.766C619.646 639.255 619.254 639.646 618.766 639.848L618.574 639.386C618.398 639.459 618.204 639.5 618 639.5H613.979V640H605.937V639.5H597.896V640H589.854V639.5H581.812V640H573.771V639.5H565.729V640H557.687V639.5H549.646V640H541.604V639.5H533.562V640H525.521V639.5H517.479V640H509.438V639.5H501.396V640H493.354V639.5H485.313V640H477.271V639.5H469.229V640H461.188V639.5H453.146V640H445.104V639.5H437.063V640H429.021V639.5H420.979V640H412.938V639.5H404.896V640H396.854V639.5H388.812V640H380.771V639.5H372.729V640H364.687V639.5H356.646V640H348.604V639.5H340.562V640H332.521V639.5H324.479V640H316.438V639.5H308.396V640H300.354V639.5H292.313V640H284.271V639.5H276.229V640H268.188V639.5H260.146V640H252.104V639.5H244.062V640H236.021V639.5H232C231.796 639.5 231.602 639.459 231.426 639.386L231.234 639.848Z" fill="#27262F" stroke="#454545" stroke-dasharray="8 8"/>
<path d="M309.58 95.052V147H296.926V125.614H277.242V147H264.588V95.052H277.242V115.402H296.926V95.052H309.58ZM448.373 95.052L434.831 147H419.513L411.225 112.812L402.641 147H387.323L374.151 95.052H387.693L395.167 132.866L404.417 95.052H418.329L427.209 132.866L434.757 95.052H448.373ZM507.771 95.052V105.19H494.007V147H481.353V105.19H467.589V95.052H507.771ZM284.05 169.052C289.526 169.052 294.311 170.137 298.406 172.308C302.501 174.479 305.658 177.537 307.878 181.484C310.147 185.381 311.282 189.895 311.282 195.026C311.282 200.107 310.147 204.621 307.878 208.568C305.658 212.515 302.476 215.573 298.332 217.744C294.237 219.915 289.477 221 284.05 221H264.588V169.052H284.05ZM283.236 210.048C288.021 210.048 291.746 208.741 294.41 206.126C297.074 203.511 298.406 199.811 298.406 195.026C298.406 190.241 297.074 186.516 294.41 183.852C291.746 181.188 288.021 179.856 283.236 179.856H277.242V210.048H283.236ZM331.008 179.19V189.698H347.954V199.466H331.008V210.862H350.174V221H318.354V169.052H350.174V179.19H331.008ZM377.185 221.518C373.386 221.518 369.982 220.901 366.973 219.668C363.963 218.435 361.546 216.609 359.721 214.192C357.945 211.775 357.007 208.864 356.909 205.46H370.377C370.574 207.384 371.24 208.864 372.375 209.9C373.509 210.887 374.989 211.38 376.815 211.38C378.689 211.38 380.169 210.961 381.255 210.122C382.34 209.234 382.883 208.025 382.883 206.496C382.883 205.213 382.439 204.153 381.551 203.314C380.712 202.475 379.651 201.785 378.369 201.242C377.135 200.699 375.359 200.083 373.041 199.392C369.686 198.356 366.948 197.32 364.827 196.284C362.705 195.248 360.88 193.719 359.351 191.696C357.821 189.673 357.057 187.034 357.057 183.778C357.057 178.943 358.808 175.169 362.311 172.456C365.813 169.693 370.377 168.312 376.001 168.312C381.723 168.312 386.336 169.693 389.839 172.456C393.341 175.169 395.216 178.968 395.463 183.852H381.773C381.674 182.175 381.057 180.867 379.923 179.93C378.788 178.943 377.333 178.45 375.557 178.45C374.027 178.45 372.794 178.869 371.857 179.708C370.919 180.497 370.451 181.657 370.451 183.186C370.451 184.863 371.24 186.171 372.819 187.108C374.397 188.045 376.864 189.057 380.219 190.142C383.573 191.277 386.287 192.362 388.359 193.398C390.48 194.434 392.305 195.939 393.835 197.912C395.364 199.885 396.129 202.426 396.129 205.534C396.129 208.494 395.364 211.183 393.835 213.6C392.355 216.017 390.184 217.941 387.323 219.372C384.461 220.803 381.082 221.518 377.185 221.518ZM416.57 169.052V221H403.916V169.052H416.57ZM460.224 185.48C459.287 183.753 457.93 182.446 456.154 181.558C454.428 180.621 452.38 180.152 450.012 180.152C445.918 180.152 442.637 181.509 440.17 184.222C437.704 186.886 436.47 190.463 436.47 194.952C436.47 199.737 437.753 203.487 440.318 206.2C442.933 208.864 446.51 210.196 451.048 210.196C454.156 210.196 456.771 209.407 458.892 207.828C461.063 206.249 462.642 203.98 463.628 201.02H447.57V191.696H475.098V203.462C474.161 206.619 472.558 209.555 470.288 212.268C468.068 214.981 465.232 217.177 461.778 218.854C458.325 220.531 454.428 221.37 450.086 221.37C444.956 221.37 440.368 220.26 436.322 218.04C432.326 215.771 429.194 212.638 426.924 208.642C424.704 204.646 423.594 200.083 423.594 194.952C423.594 189.821 424.704 185.258 426.924 181.262C429.194 177.217 432.326 174.084 436.322 171.864C440.318 169.595 444.882 168.46 450.012 168.46C456.228 168.46 461.458 169.965 465.7 172.974C469.992 175.983 472.829 180.152 474.21 185.48H460.224ZM528.58 221H515.926L494.762 188.958V221H482.108V169.052H494.762L515.926 201.242V169.052H528.58V221ZM282.032 277L278.936 273.904C277.736 275.104 276.428 276.004 275.012 276.604C273.596 277.18 272.012 277.468 270.26 277.468C268.484 277.468 266.912 277.156 265.544 276.532C264.176 275.908 263.12 275.02 262.376 273.868C261.632 272.692 261.26 271.336 261.26 269.8C261.26 268.072 261.752 266.536 262.736 265.192C263.72 263.824 265.184 262.744 267.128 261.952C266.432 261.112 265.94 260.332 265.652 259.612C265.364 258.868 265.22 258.052 265.22 257.164C265.22 256.06 265.496 255.076 266.048 254.212C266.624 253.348 267.44 252.664 268.496 252.16C269.552 251.656 270.776 251.404 272.168 251.404C273.584 251.404 274.784 251.68 275.768 252.232C276.776 252.76 277.52 253.492 278 254.428C278.504 255.364 278.708 256.408 278.612 257.56H274.508C274.532 256.672 274.316 255.988 273.86 255.508C273.404 255.004 272.78 254.752 271.988 254.752C271.196 254.752 270.548 254.992 270.044 255.472C269.564 255.928 269.324 256.492 269.324 257.164C269.324 257.812 269.504 258.46 269.864 259.108C270.248 259.732 270.908 260.548 271.844 261.556L278.468 268.144L281.024 263.932H285.452L282.212 269.476L281.312 270.952L287.396 277H282.032ZM270.26 273.976C272.516 273.976 274.508 273.052 276.236 271.204L269.612 264.544C266.78 265.672 265.364 267.376 265.364 269.656C265.364 270.88 265.82 271.912 266.732 272.752C267.644 273.568 268.82 273.976 270.26 273.976ZM284.05 319.052C289.526 319.052 294.311 320.137 298.406 322.308C302.501 324.479 305.658 327.537 307.878 331.484C310.147 335.381 311.282 339.895 311.282 345.026C311.282 350.107 310.147 354.621 307.878 358.568C305.658 362.515 302.476 365.573 298.332 367.744C294.237 369.915 289.477 371 284.05 371H264.588V319.052H284.05ZM283.236 360.048C288.021 360.048 291.746 358.741 294.41 356.126C297.074 353.511 298.406 349.811 298.406 345.026C298.406 340.241 297.074 336.516 294.41 333.852C291.746 331.188 288.021 329.856 283.236 329.856H277.242V360.048H283.236ZM331.008 329.19V339.698H347.954V349.466H331.008V360.862H350.174V371H318.354V319.052H350.174V329.19H331.008ZM407.155 319.052L388.729 371H372.893L354.467 319.052H367.935L380.811 358.272L393.761 319.052H407.155ZM425.097 329.19V339.698H442.043V349.466H425.097V360.862H444.263V371H412.443V319.052H444.263V329.19H425.097ZM465.133 361.232H481.709V371H452.479V319.052H465.133V361.232ZM585.508 335.776C585.508 338.785 584.817 341.548 583.436 344.064C582.055 346.531 579.933 348.529 577.072 350.058C574.211 351.587 570.659 352.352 566.416 352.352H558.572V371H545.918V319.052H566.416C570.56 319.052 574.063 319.767 576.924 321.198C579.785 322.629 581.931 324.602 583.362 327.118C584.793 329.634 585.508 332.52 585.508 335.776ZM565.454 342.288C567.871 342.288 569.672 341.721 570.856 340.586C572.04 339.451 572.632 337.848 572.632 335.776C572.632 333.704 572.04 332.101 570.856 330.966C569.672 329.831 567.871 329.264 565.454 329.264H558.572V342.288H565.454ZM276.32 418.88H264.998L262.72 425H261.054L269.826 401.676H271.526L280.264 425H278.598L276.32 418.88ZM275.844 417.588L270.676 403.682L265.474 417.588H275.844ZM304.002 412.658C305.385 412.907 306.541 413.587 307.47 414.698C308.422 415.809 308.898 417.112 308.898 418.608C308.898 419.832 308.603 420.931 308.014 421.906C307.447 422.858 306.586 423.617 305.43 424.184C304.297 424.728 302.914 425 301.282 425H293.7V401.132H301.146C303.526 401.132 305.317 401.687 306.518 402.798C307.742 403.886 308.354 405.303 308.354 407.048C308.354 408.567 307.946 409.802 307.13 410.754C306.314 411.683 305.271 412.318 304.002 412.658ZM295.23 411.978H301.214C303.005 411.978 304.376 411.559 305.328 410.72C306.303 409.859 306.79 408.68 306.79 407.184C306.79 405.733 306.314 404.589 305.362 403.75C304.41 402.911 302.971 402.492 301.044 402.492H295.23V411.978ZM301.18 423.674C303.107 423.674 304.614 423.221 305.702 422.314C306.813 421.385 307.368 420.115 307.368 418.506C307.368 416.919 306.801 415.661 305.668 414.732C304.557 413.78 303.027 413.304 301.078 413.304H295.23V423.674H301.18ZM324.032 425.272C321.833 425.272 319.85 424.762 318.082 423.742C316.314 422.699 314.931 421.249 313.934 419.39C312.936 417.531 312.438 415.435 312.438 413.1C312.438 410.743 312.936 408.646 313.934 406.81C314.931 404.951 316.314 403.512 318.082 402.492C319.85 401.449 321.833 400.928 324.032 400.928C326.23 400.928 328.214 401.449 329.982 402.492C331.75 403.512 333.132 404.951 334.13 406.81C335.127 408.646 335.626 410.743 335.626 413.1C335.626 415.435 335.127 417.531 334.13 419.39C333.132 421.249 331.75 422.699 329.982 423.742C328.214 424.762 326.23 425.272 324.032 425.272ZM324.032 423.912C325.913 423.912 327.613 423.47 329.132 422.586C330.65 421.702 331.84 420.444 332.702 418.812C333.586 417.18 334.028 415.276 334.028 413.1C334.028 410.901 333.586 408.986 332.702 407.354C331.84 405.722 330.65 404.464 329.132 403.58C327.613 402.696 325.913 402.254 324.032 402.254C322.15 402.254 320.45 402.696 318.932 403.58C317.413 404.464 316.212 405.722 315.328 407.354C314.444 408.986 314.002 410.901 314.002 413.1C314.002 415.276 314.444 417.18 315.328 418.812C316.212 420.444 317.413 421.702 318.932 422.586C320.45 423.47 322.15 423.912 324.032 423.912ZM350.893 425.272C348.694 425.272 346.711 424.762 344.943 423.742C343.175 422.699 341.792 421.249 340.795 419.39C339.798 417.531 339.299 415.435 339.299 413.1C339.299 410.743 339.798 408.646 340.795 406.81C341.792 404.951 343.175 403.512 344.943 402.492C346.711 401.449 348.694 400.928 350.893 400.928C353.092 400.928 355.075 401.449 356.843 402.492C358.611 403.512 359.994 404.951 360.991 406.81C361.988 408.646 362.487 410.743 362.487 413.1C362.487 415.435 361.988 417.531 360.991 419.39C359.994 421.249 358.611 422.699 356.843 423.742C355.075 424.762 353.092 425.272 350.893 425.272ZM350.893 423.912C352.774 423.912 354.474 423.47 355.993 422.586C357.512 421.702 358.702 420.444 359.563 418.812C360.447 417.18 360.889 415.276 360.889 413.1C360.889 410.901 360.447 408.986 359.563 407.354C358.702 405.722 357.512 404.464 355.993 403.58C354.474 402.696 352.774 402.254 350.893 402.254C349.012 402.254 347.312 402.696 345.793 403.58C344.274 404.464 343.073 405.722 342.189 407.354C341.305 408.986 340.863 410.901 340.863 413.1C340.863 415.276 341.305 417.18 342.189 418.812C343.073 420.444 344.274 421.702 345.793 422.586C347.312 423.47 349.012 423.912 350.893 423.912ZM379.624 425L368.642 413.746V425H367.112V401.132H368.642V412.488L379.624 401.132H381.596L369.968 413.1L381.63 425H379.624Z" fill="white"/>
<path d="M343.283 147.518C338.399 147.518 333.91 146.383 329.815 144.114C325.77 141.845 322.538 138.687 320.121 134.642C317.753 130.547 316.569 125.959 316.569 120.878C316.569 115.797 317.753 111.233 320.121 107.188C322.538 103.143 325.77 99.9853 329.815 97.716C333.91 95.4467 338.399 94.312 343.283 94.312C348.167 94.312 352.632 95.4467 356.677 97.716C360.772 99.9853 363.978 103.143 366.297 107.188C368.665 111.233 369.849 115.797 369.849 120.878C369.849 125.959 368.665 130.547 366.297 134.642C363.929 138.687 360.722 141.845 356.677 144.114C352.632 146.383 348.167 147.518 343.283 147.518ZM343.283 135.974C347.427 135.974 350.732 134.593 353.199 131.83C355.715 129.067 356.973 125.417 356.973 120.878C356.973 116.29 355.715 112.639 353.199 109.926C350.732 107.163 347.427 105.782 343.283 105.782C339.09 105.782 335.735 107.139 333.219 109.852C330.752 112.565 329.519 116.241 329.519 120.878C329.519 125.466 330.752 129.141 333.219 131.904C335.735 134.617 339.09 135.974 343.283 135.974Z" fill="#59E2B9"/>
<path d="M538.689 147.518C533.805 147.518 529.316 146.383 525.221 144.114C521.176 141.845 517.945 138.687 515.527 134.642C513.159 130.547 511.975 125.959 511.975 120.878C511.975 115.797 513.159 111.233 515.527 107.188C517.945 103.143 521.176 99.9853 525.221 97.716C529.316 95.4467 533.805 94.312 538.689 94.312C543.573 94.312 548.038 95.4467 552.083 97.716C556.178 99.9853 559.385 103.143 561.703 107.188C564.071 111.233 565.255 115.797 565.255 120.878C565.255 125.959 564.071 130.547 561.703 134.642C559.335 138.687 556.129 141.845 552.083 144.114C548.038 146.383 543.573 147.518 538.689 147.518ZM538.689 135.974C542.833 135.974 546.139 134.593 548.605 131.83C551.121 129.067 552.379 125.417 552.379 120.878C552.379 116.29 551.121 112.639 548.605 109.926C546.139 107.163 542.833 105.782 538.689 105.782C534.496 105.782 531.141 107.139 528.625 109.852C526.159 112.565 524.925 116.241 524.925 120.878C524.925 125.466 526.159 129.141 528.625 131.904C531.141 134.617 534.496 135.974 538.689 135.974Z" fill="#E25993"/>
<path d="M512.312 371.518C507.428 371.518 502.939 370.383 498.844 368.114C494.799 365.845 491.568 362.687 489.15 358.642C486.782 354.547 485.598 349.959 485.598 344.878C485.598 339.797 486.782 335.233 489.15 331.188C491.568 327.143 494.799 323.985 498.844 321.716C502.939 319.447 507.428 318.312 512.312 318.312C517.196 318.312 521.661 319.447 525.706 321.716C529.801 323.985 533.008 327.143 535.326 331.188C537.694 335.233 538.878 339.797 538.878 344.878C538.878 349.959 537.694 354.547 535.326 358.642C532.958 362.687 529.752 365.845 525.706 368.114C521.661 370.383 517.196 371.518 512.312 371.518ZM512.312 359.974C516.456 359.974 519.762 358.593 522.228 355.83C524.744 353.067 526.002 349.417 526.002 344.878C526.002 340.29 524.744 336.639 522.228 333.926C519.762 331.163 516.456 329.782 512.312 329.782C508.119 329.782 504.764 331.139 502.248 333.852C499.782 336.565 498.548 340.241 498.548 344.878C498.548 349.466 499.782 353.141 502.248 355.904C504.764 358.617 508.119 359.974 512.312 359.974Z" fill="#E2DD59"/>
<path d="M263.5 524.75V530H260V524.75H263.5ZM263.5 524.75V530H260V524.75H263.5ZM266.556 524.75V530H263.056V524.75H266.556ZM266.556 524.75V530H263.056V524.75H266.556ZM269.611 524.75V530H266.111V524.75H269.611ZM269.611 524.75V530H266.111V524.75H269.611ZM272.667 524.75V530H269.167V524.75H272.667ZM272.667 524.75V530H269.167V524.75H272.667ZM275.723 524.75V530H272.223V524.75H275.723ZM275.723 524.75V530H272.223V524.75H275.723ZM278.778 524.75V530H275.278V524.75H278.778ZM278.778 524.75V530H275.278V524.75H278.778ZM281.834 524.75V530H278.334V524.75H281.834ZM281.834 524.75V530H278.334V524.75H281.834ZM284.015 524.75V530H281.39V524.75H284.015ZM288.381 524.75V530H284.881V524.75H288.381ZM288.381 524.75V530H284.881V524.75H288.381ZM291.437 524.75V530H287.937V524.75H291.437ZM291.437 524.75V530H287.937V524.75H291.437ZM294.492 524.75V530H290.992V524.75H294.492ZM294.492 524.75V530H290.992V524.75H294.492ZM297.548 524.75V530H294.048V524.75H297.548ZM297.548 524.75V530H294.048V524.75H297.548ZM300.604 524.75V530H297.104V524.75H300.604ZM300.604 524.75V530H297.104V524.75H300.604ZM302.784 524.75V530H300.159V524.75H302.784ZM307.151 524.75V530H303.651V524.75H307.151ZM307.151 524.75V530H303.651V524.75H307.151ZM310.206 524.75V530H306.706V524.75H310.206ZM310.206 524.75V530H306.706V524.75H310.206ZM313.262 524.75V530H309.762V524.75H313.262ZM313.262 524.75V530H309.762V524.75H313.262ZM316.318 524.75V530H312.818V524.75H316.318ZM316.318 524.75V530H312.818V524.75H316.318ZM319.373 524.75V530H315.873V524.75H319.373ZM319.373 524.75V530H315.873V524.75H319.373ZM322.429 524.75V530H318.929V524.75H322.429ZM322.429 524.75V530H318.929V524.75H322.429ZM325.485 524.75V530H321.985V524.75H325.485ZM325.485 524.75V530H321.985V524.75H325.485ZM327.665 524.75V530H325.04V524.75H327.665ZM332.032 524.75V530H328.532V524.75H332.032ZM332.032 524.75V530H328.532V524.75H332.032ZM334.212 524.75V530H331.587V524.75H334.212ZM338.579 524.75V530H335.079V524.75H338.579ZM338.579 524.75V530H335.079V524.75H338.579ZM341.634 524.75V530H338.134V524.75H341.634ZM341.634 524.75V530H338.134V524.75H341.634ZM344.69 524.75V530H341.19V524.75H344.69ZM344.69 524.75V530H341.19V524.75H344.69ZM347.746 524.75V530H344.246V524.75H347.746ZM347.746 524.75V530H344.246V524.75H347.746ZM350.801 524.75V530H347.301V524.75H350.801ZM350.801 524.75V530H347.301V524.75H350.801ZM353.857 524.75V530H350.357V524.75H353.857ZM353.857 524.75V530H350.357V524.75H353.857ZM356.913 524.75V530H353.413V524.75H356.913ZM356.913 524.75V530H353.413V524.75H356.913ZM359.968 524.75V530H356.468V524.75H359.968ZM359.968 524.75V530H356.468V524.75H359.968ZM363.024 524.75V530H359.524V524.75H363.024ZM363.024 524.75V530H359.524V524.75H363.024ZM365.205 524.75V530H362.58V524.75H365.205ZM369.571 524.75V530H366.071V524.75H369.571ZM369.571 524.75V530H366.071V524.75H369.571ZM372.627 524.75V530H369.127V524.75H372.627ZM372.627 524.75V530H369.127V524.75H372.627ZM374.807 524.75V530H372.182V524.75H374.807ZM379.174 524.75V530H375.674V524.75H379.174ZM379.174 524.75V530H375.674V524.75H379.174ZM382.229 524.75V530H378.729V524.75H382.229ZM382.229 524.75V530H378.729V524.75H382.229ZM385.285 524.75V530H381.785V524.75H385.285ZM385.285 524.75V530H381.785V524.75H385.285ZM388.341 524.75V530H384.841V524.75H388.341ZM388.341 524.75V530H384.841V524.75H388.341ZM391.396 524.75V530H387.896V524.75H391.396ZM391.396 524.75V530H387.896V524.75H391.396ZM394.452 524.75V530H390.952V524.75H394.452ZM394.452 524.75V530H390.952V524.75H394.452ZM396.633 524.75V530H394.008V524.75H396.633ZM400.999 524.75V530H397.499V524.75H400.999ZM400.999 524.75V530H397.499V524.75H400.999ZM404.055 524.75V530H400.555V524.75H404.055ZM404.055 524.75V530H400.555V524.75H404.055ZM407.11 524.75V530H403.61V524.75H407.11ZM407.11 524.75V530H403.61V524.75H407.11ZM410.166 524.75V530H406.666V524.75H410.166ZM410.166 524.75V530H406.666V524.75H410.166ZM413.222 524.75V530H409.722V524.75H413.222ZM413.222 524.75V530H409.722V524.75H413.222ZM416.277 524.75V530H412.777V524.75H416.277ZM416.277 524.75V530H412.777V524.75H416.277ZM419.333 524.75V530H415.833V524.75H419.333ZM419.333 524.75V530H415.833V524.75H419.333ZM422.389 524.75V530H418.889V524.75H422.389ZM422.389 524.75V530H418.889V524.75H422.389ZM425.444 524.75V530H421.944V524.75H425.444ZM425.444 524.75V530H421.944V524.75H425.444ZM428.5 524.75V530H425V524.75H428.5ZM428.5 524.75V530H425V524.75H428.5ZM431.556 524.75V530H428.056V524.75H431.556ZM431.556 524.75V530H428.056V524.75H431.556ZM434.611 524.75V530H431.111V524.75H434.611ZM434.611 524.75V530H431.111V524.75H434.611ZM436.792 524.75V530H434.167V524.75H436.792ZM441.158 524.75V530H437.658V524.75H441.158ZM441.158 524.75V530H437.658V524.75H441.158ZM444.214 524.75V530H440.714V524.75H444.214ZM444.214 524.75V530H440.714V524.75H444.214ZM447.27 524.75V530H443.77V524.75H447.27ZM447.27 524.75V530H443.77V524.75H447.27ZM450.325 524.75V530H446.825V524.75H450.325ZM450.325 524.75V530H446.825V524.75H450.325ZM453.381 524.75V530H449.881V524.75H453.381ZM453.381 524.75V530H449.881V524.75H453.381ZM455.562 524.75V530H452.937V524.75H455.562ZM459.928 524.75V530H456.428V524.75H459.928ZM459.928 524.75V530H456.428V524.75H459.928ZM462.984 524.75V530H459.484V524.75H462.984ZM462.984 524.75V530H459.484V524.75H462.984ZM466.039 524.75V530H462.539V524.75H466.039ZM466.039 524.75V530H462.539V524.75H466.039ZM469.095 524.75V530H465.595V524.75H469.095ZM469.095 524.75V530H465.595V524.75H469.095ZM472.151 524.75V530H468.651V524.75H472.151ZM472.151 524.75V530H468.651V524.75H472.151ZM475.206 524.75V530H471.706V524.75H475.206ZM475.206 524.75V530H471.706V524.75H475.206ZM478.262 524.75V530H474.762V524.75H478.262ZM478.262 524.75V530H474.762V524.75H478.262ZM481.318 524.75V530H477.818V524.75H481.318ZM481.318 524.75V530H477.818V524.75H481.318ZM484.373 524.75V530H480.873V524.75H484.373ZM484.373 524.75V530H480.873V524.75H484.373ZM487.429 524.75V530H483.929V524.75H487.429ZM487.429 524.75V530H483.929V524.75H487.429ZM490.485 524.75V530H486.985V524.75H490.485ZM490.485 524.75V530H486.985V524.75H490.485ZM493.54 524.75V530H490.04V524.75H493.54ZM493.54 524.75V530H490.04V524.75H493.54ZM496.596 524.75V530H493.096V524.75H496.596ZM496.596 524.75V530H493.096V524.75H496.596ZM498.777 524.75V530H496.152V524.75H498.777ZM503.143 524.75V530H499.643V524.75H503.143ZM503.143 524.75V530H499.643V524.75H503.143ZM506.199 524.75V530H502.699V524.75H506.199ZM506.199 524.75V530H502.699V524.75H506.199ZM509.254 524.75V530H505.754V524.75H509.254ZM509.254 524.75V530H505.754V524.75H509.254ZM512.31 524.75V530H508.81V524.75H512.31ZM512.31 524.75V530H508.81V524.75H512.31ZM515.366 524.75V530H511.866V524.75H515.366ZM515.366 524.75V530H511.866V524.75H515.366ZM517.546 524.75V530H514.921V524.75H517.546ZM521.913 524.75V530H518.413V524.75H521.913ZM521.913 524.75V530H518.413V524.75H521.913ZM524.968 524.75V530H521.468V524.75H524.968ZM524.968 524.75V530H521.468V524.75H524.968ZM528.024 524.75V530H524.524V524.75H528.024ZM528.024 524.75V530H524.524V524.75H528.024ZM531.08 524.75V530H527.58V524.75H531.08ZM531.08 524.75V530H527.58V524.75H531.08ZM534.135 524.75V530H530.635V524.75H534.135ZM534.135 524.75V530H530.635V524.75H534.135ZM536.316 524.75V530H533.691V524.75H536.316ZM540.682 524.75V530H537.182V524.75H540.682ZM540.682 524.75V530H537.182V524.75H540.682ZM543.738 524.75V530H540.238V524.75H543.738ZM543.738 524.75V530H540.238V524.75H543.738ZM546.794 524.75V530H543.294V524.75H546.794ZM546.794 524.75V530H543.294V524.75H546.794ZM549.849 524.75V530H546.349V524.75H549.849ZM549.849 524.75V530H546.349V524.75H549.849ZM552.03 524.75V530H549.405V524.75H552.03ZM556.396 524.75V530H552.896V524.75H556.396ZM556.396 524.75V530H552.896V524.75H556.396ZM559.452 524.75V530H555.952V524.75H559.452ZM559.452 524.75V530H555.952V524.75H559.452ZM562.508 524.75V530H559.008V524.75H562.508ZM562.508 524.75V530H559.008V524.75H562.508ZM565.563 524.75V530H562.063V524.75H565.563ZM565.563 524.75V530H562.063V524.75H565.563ZM567.744 524.75V530H565.119V524.75H567.744ZM572.11 524.75V530H568.61V524.75H572.11ZM572.11 524.75V530H568.61V524.75H572.11ZM575.166 524.75V530H571.666V524.75H575.166ZM575.166 524.75V530H571.666V524.75H575.166ZM578.222 524.75V530H574.722V524.75H578.222ZM578.222 524.75V530H574.722V524.75H578.222ZM581.277 524.75V530H577.777V524.75H581.277ZM581.277 524.75V530H577.777V524.75H581.277ZM584.333 524.75V530H580.833V524.75H584.333ZM584.333 524.75V530H580.833V524.75H584.333ZM587.389 524.75V530H583.889V524.75H587.389ZM587.389 524.75V530H583.889V524.75H587.389ZM590.444 524.75V530H586.944V524.75H590.444ZM590.444 524.75V530H586.944V524.75H590.444ZM592.625 524.75V530H590V524.75H592.625ZM263.5 534.75V540H260V534.75H263.5ZM263.5 534.75V540H260V534.75H263.5ZM266.556 534.75V540H263.056V534.75H266.556ZM266.556 534.75V540H263.056V534.75H266.556ZM269.611 534.75V540H266.111V534.75H269.611ZM269.611 534.75V540H266.111V534.75H269.611ZM272.667 534.75V540H269.167V534.75H272.667ZM272.667 534.75V540H269.167V534.75H272.667ZM275.723 534.75V540H272.223V534.75H275.723ZM275.723 534.75V540H272.223V534.75H275.723ZM277.903 534.75V540H275.278V534.75H277.903ZM282.444 534.75V540H278.944V534.75H282.444ZM282.444 534.75V540H278.944V534.75H282.444ZM285.5 534.75V540H282V534.75H285.5ZM285.5 534.75V540H282V534.75H285.5ZM287.681 534.75V540H285.056V534.75H287.681ZM292.222 534.75V540H288.722V534.75H292.222ZM292.222 534.75V540H288.722V534.75H292.222ZM295.277 534.75V540H291.777V534.75H295.277ZM295.277 534.75V540H291.777V534.75H295.277ZM297.458 534.75V540H294.833V534.75H297.458ZM301.999 534.75V540H298.499V534.75H301.999ZM301.999 534.75V540H298.499V534.75H301.999ZM305.055 534.75V540H301.555V534.75H305.055ZM305.055 534.75V540H301.555V534.75H305.055ZM308.11 534.75V540H304.61V534.75H308.11ZM308.11 534.75V540H304.61V534.75H308.11ZM311.166 534.75V540H307.666V534.75H311.166ZM311.166 534.75V540H307.666V534.75H311.166ZM313.347 534.75V540H310.722V534.75H313.347ZM317.888 534.75V540H314.388V534.75H317.888ZM317.888 534.75V540H314.388V534.75H317.888ZM320.943 534.75V540H317.443V534.75H320.943ZM320.943 534.75V540H317.443V534.75H320.943ZM323.999 534.75V540H320.499V534.75H323.999ZM323.999 534.75V540H320.499V534.75H323.999ZM327.055 534.75V540H323.555V534.75H327.055ZM327.055 534.75V540H323.555V534.75H327.055ZM330.11 534.75V540H326.61V534.75H330.11ZM330.11 534.75V540H326.61V534.75H330.11ZM332.291 534.75V540H329.666V534.75H332.291ZM336.832 534.75V540H333.332V534.75H336.832ZM336.832 534.75V540H333.332V534.75H336.832ZM339.888 534.75V540H336.388V534.75H339.888ZM339.888 534.75V540H336.388V534.75H339.888ZM342.943 534.75V540H339.443V534.75H342.943ZM342.943 534.75V540H339.443V534.75H342.943ZM345.999 534.75V540H342.499V534.75H345.999ZM345.999 534.75V540H342.499V534.75H345.999ZM349.055 534.75V540H345.555V534.75H349.055ZM349.055 534.75V540H345.555V534.75H349.055ZM352.11 534.75V540H348.61V534.75H352.11ZM352.11 534.75V540H348.61V534.75H352.11ZM355.166 534.75V540H351.666V534.75H355.166ZM355.166 534.75V540H351.666V534.75H355.166ZM358.222 534.75V540H354.722V534.75H358.222ZM358.222 534.75V540H354.722V534.75H358.222ZM361.277 534.75V540H357.777V534.75H361.277ZM361.277 534.75V540H357.777V534.75H361.277ZM364.333 534.75V540H360.833V534.75H364.333ZM364.333 534.75V540H360.833V534.75H364.333ZM367.389 534.75V540H363.889V534.75H367.389ZM367.389 534.75V540H363.889V534.75H367.389ZM370.444 534.75V540H366.944V534.75H370.444ZM370.444 534.75V540H366.944V534.75H370.444ZM372.625 534.75V540H370V534.75H372.625ZM377.166 534.75V540H373.666V534.75H377.166ZM377.166 534.75V540H373.666V534.75H377.166ZM380.222 534.75V540H376.722V534.75H380.222ZM380.222 534.75V540H376.722V534.75H380.222ZM383.277 534.75V540H379.777V534.75H383.277ZM383.277 534.75V540H379.777V534.75H383.277ZM386.333 534.75V540H382.833V534.75H386.333ZM386.333 534.75V540H382.833V534.75H386.333ZM388.514 534.75V540H385.889V534.75H388.514ZM393.055 534.75V540H389.555V534.75H393.055ZM393.055 534.75V540H389.555V534.75H393.055ZM396.11 534.75V540H392.61V534.75H396.11ZM396.11 534.75V540H392.61V534.75H396.11ZM399.166 534.75V540H395.666V534.75H399.166ZM399.166 534.75V540H395.666V534.75H399.166ZM401.347 534.75V540H398.722V534.75H401.347ZM405.888 534.75V540H402.388V534.75H405.888ZM405.888 534.75V540H402.388V534.75H405.888ZM408.943 534.75V540H405.443V534.75H408.943ZM408.943 534.75V540H405.443V534.75H408.943ZM411.999 534.75V540H408.499V534.75H411.999ZM411.999 534.75V540H408.499V534.75H411.999ZM415.055 534.75V540H411.555V534.75H415.055ZM415.055 534.75V540H411.555V534.75H415.055ZM418.11 534.75V540H414.61V534.75H418.11ZM418.11 534.75V540H414.61V534.75H418.11ZM421.166 534.75V540H417.666V534.75H421.166ZM421.166 534.75V540H417.666V534.75H421.166ZM424.222 534.75V540H420.722V534.75H424.222ZM424.222 534.75V540H420.722V534.75H424.222ZM426.402 534.75V540H423.777V534.75H426.402ZM430.943 534.75V540H427.443V534.75H430.943ZM430.943 534.75V540H427.443V534.75H430.943ZM433.999 534.75V540H430.499V534.75H433.999ZM433.999 534.75V540H430.499V534.75H433.999ZM437.055 534.75V540H433.555V534.75H437.055ZM437.055 534.75V540H433.555V534.75H437.055ZM439.235 534.75V540H436.61V534.75H439.235ZM443.776 534.75V540H440.276V534.75H443.776ZM443.776 534.75V540H440.276V534.75H443.776ZM446.832 534.75V540H443.332V534.75H446.832ZM446.832 534.75V540H443.332V534.75H446.832ZM449.888 534.75V540H446.388V534.75H449.888ZM449.888 534.75V540H446.388V534.75H449.888ZM452.943 534.75V540H449.443V534.75H452.943ZM452.943 534.75V540H449.443V534.75H452.943ZM455.999 534.75V540H452.499V534.75H455.999ZM455.999 534.75V540H452.499V534.75H455.999ZM459.055 534.75V540H455.555V534.75H459.055ZM459.055 534.75V540H455.555V534.75H459.055ZM462.11 534.75V540H458.61V534.75H462.11ZM462.11 534.75V540H458.61V534.75H462.11ZM465.166 534.75V540H461.666V534.75H465.166ZM465.166 534.75V540H461.666V534.75H465.166ZM468.222 534.75V540H464.722V534.75H468.222ZM468.222 534.75V540H464.722V534.75H468.222ZM471.277 534.75V540H467.777V534.75H471.277ZM471.277 534.75V540H467.777V534.75H471.277ZM474.333 534.75V540H470.833V534.75H474.333ZM474.333 534.75V540H470.833V534.75H474.333ZM476.514 534.75V540H473.889V534.75H476.514ZM481.055 534.75V540H477.555V534.75H481.055ZM481.055 534.75V540H477.555V534.75H481.055ZM484.11 534.75V540H480.61V534.75H484.11ZM484.11 534.75V540H480.61V534.75H484.11ZM487.166 534.75V540H483.666V534.75H487.166ZM487.166 534.75V540H483.666V534.75H487.166ZM490.222 534.75V540H486.722V534.75H490.222ZM490.222 534.75V540H486.722V534.75H490.222ZM493.277 534.75V540H489.777V534.75H493.277ZM493.277 534.75V540H489.777V534.75H493.277ZM496.333 534.75V540H492.833V534.75H496.333ZM496.333 534.75V540H492.833V534.75H496.333ZM498.514 534.75V540H495.889V534.75H498.514ZM503.055 534.75V540H499.555V534.75H503.055ZM503.055 534.75V540H499.555V534.75H503.055ZM506.11 534.75V540H502.61V534.75H506.11ZM506.11 534.75V540H502.61V534.75H506.11ZM509.166 534.75V540H505.666V534.75H509.166ZM509.166 534.75V540H505.666V534.75H509.166ZM512.222 534.75V540H508.722V534.75H512.222ZM512.222 534.75V540H508.722V534.75H512.222ZM515.277 534.75V540H511.777V534.75H515.277ZM515.277 534.75V540H511.777V534.75H515.277ZM518.333 534.75V540H514.833V534.75H518.333ZM518.333 534.75V540H514.833V534.75H518.333ZM521.389 534.75V540H517.889V534.75H521.389ZM521.389 534.75V540H517.889V534.75H521.389ZM524.444 534.75V540H520.944V534.75H524.444ZM524.444 534.75V540H520.944V534.75H524.444ZM527.5 534.75V540H524V534.75H527.5ZM527.5 534.75V540H524V534.75H527.5ZM530.556 534.75V540H527.056V534.75H530.556ZM530.556 534.75V540H527.056V534.75H530.556ZM533.611 534.75V540H530.111V534.75H533.611ZM533.611 534.75V540H530.111V534.75H533.611ZM536.667 534.75V540H533.167V534.75H536.667ZM536.667 534.75V540H533.167V534.75H536.667ZM538.848 534.75V540H536.223V534.75H538.848ZM543.389 534.75V540H539.889V534.75H543.389ZM543.389 534.75V540H539.889V534.75H543.389ZM546.444 534.75V540H542.944V534.75H546.444ZM546.444 534.75V540H542.944V534.75H546.444ZM549.5 534.75V540H546V534.75H549.5ZM549.5 534.75V540H546V534.75H549.5ZM552.556 534.75V540H549.056V534.75H552.556ZM552.556 534.75V540H549.056V534.75H552.556ZM555.611 534.75V540H552.111V534.75H555.611ZM555.611 534.75V540H552.111V534.75H555.611ZM557.792 534.75V540H555.167V534.75H557.792ZM562.333 534.75V540H558.833V534.75H562.333ZM562.333 534.75V540H558.833V534.75H562.333ZM565.389 534.75V540H561.889V534.75H565.389ZM565.389 534.75V540H561.889V534.75H565.389ZM568.444 534.75V540H564.944V534.75H568.444ZM568.444 534.75V540H564.944V534.75H568.444ZM571.5 534.75V540H568V534.75H571.5ZM571.5 534.75V540H568V534.75H571.5ZM574.556 534.75V540H571.056V534.75H574.556ZM574.556 534.75V540H571.056V534.75H574.556ZM576.736 534.75V540H574.111V534.75H576.736ZM581.277 534.75V540H577.777V534.75H581.277ZM581.277 534.75V540H577.777V534.75H581.277ZM584.333 534.75V540H580.833V534.75H584.333ZM584.333 534.75V540H580.833V534.75H584.333ZM587.389 534.75V540H583.889V534.75H587.389ZM587.389 534.75V540H583.889V534.75H587.389ZM590.444 534.75V540H586.944V534.75H590.444ZM590.444 534.75V540H586.944V534.75H590.444ZM592.625 534.75V540H590V534.75H592.625ZM263.5 544.75V550H260V544.75H263.5ZM263.5 544.75V550H260V544.75H263.5ZM266.556 544.75V550H263.056V544.75H266.556ZM266.556 544.75V550H263.056V544.75H266.556ZM269.611 544.75V550H266.111V544.75H269.611ZM269.611 544.75V550H266.111V544.75H269.611ZM272.667 544.75V550H269.167V544.75H272.667ZM272.667 544.75V550H269.167V544.75H272.667ZM275.723 544.75V550H272.223V544.75H275.723ZM275.723 544.75V550H272.223V544.75H275.723ZM278.778 544.75V550H275.278V544.75H278.778ZM278.778 544.75V550H275.278V544.75H278.778ZM281.834 544.75V550H278.334V544.75H281.834ZM281.834 544.75V550H278.334V544.75H281.834ZM284.89 544.75V550H281.39V544.75H284.89ZM284.89 544.75V550H281.39V544.75H284.89ZM287.945 544.75V550H284.445V544.75H287.945ZM287.945 544.75V550H284.445V544.75H287.945ZM290.126 544.75V550H287.501V544.75H290.126ZM295.074 544.75V550H291.574V544.75H295.074ZM295.074 544.75V550H291.574V544.75H295.074ZM298.13 544.75V550H294.63V544.75H298.13ZM298.13 544.75V550H294.63V544.75H298.13ZM301.186 544.75V550H297.686V544.75H301.186ZM301.186 544.75V550H297.686V544.75H301.186ZM304.241 544.75V550H300.741V544.75H304.241ZM304.241 544.75V550H300.741V544.75H304.241ZM307.297 544.75V550H303.797V544.75H307.297ZM307.297 544.75V550H303.797V544.75H307.297ZM310.353 544.75V550H306.853V544.75H310.353ZM310.353 544.75V550H306.853V544.75H310.353ZM313.408 544.75V550H309.908V544.75H313.408ZM313.408 544.75V550H309.908V544.75H313.408ZM316.464 544.75V550H312.964V544.75H316.464ZM316.464 544.75V550H312.964V544.75H316.464ZM319.52 544.75V550H316.02V544.75H319.52ZM319.52 544.75V550H316.02V544.75H319.52ZM321.7 544.75V550H319.075V544.75H321.7ZM326.648 544.75V550H323.148V544.75H326.648ZM326.648 544.75V550H323.148V544.75H326.648ZM329.704 544.75V550H326.204V544.75H329.704ZM329.704 544.75V550H326.204V544.75H329.704ZM332.76 544.75V550H329.26V544.75H332.76ZM332.76 544.75V550H329.26V544.75H332.76ZM335.815 544.75V550H332.315V544.75H335.815ZM335.815 544.75V550H332.315V544.75H335.815ZM338.871 544.75V550H335.371V544.75H338.871ZM338.871 544.75V550H335.371V544.75H338.871ZM341.927 544.75V550H338.427V544.75H341.927ZM341.927 544.75V550H338.427V544.75H341.927ZM344.982 544.75V550H341.482V544.75H344.982ZM344.982 544.75V550H341.482V544.75H344.982ZM348.038 544.75V550H344.538V544.75H348.038ZM348.038 544.75V550H344.538V544.75H348.038ZM351.094 544.75V550H347.594V544.75H351.094ZM351.094 544.75V550H347.594V544.75H351.094ZM354.149 544.75V550H350.649V544.75H354.149ZM354.149 544.75V550H350.649V544.75H354.149ZM357.205 544.75V550H353.705V544.75H357.205ZM357.205 544.75V550H353.705V544.75H357.205ZM360.261 544.75V550H356.761V544.75H360.261ZM360.261 544.75V550H356.761V544.75H360.261ZM362.441 544.75V550H359.816V544.75H362.441ZM367.39 544.75V550H363.89V544.75H367.39ZM367.39 544.75V550H363.89V544.75H367.39ZM370.445 544.75V550H366.945V544.75H370.445ZM370.445 544.75V550H366.945V544.75H370.445ZM373.501 544.75V550H370.001V544.75H373.501ZM373.501 544.75V550H370.001V544.75H373.501ZM375.682 544.75V550H373.057V544.75H375.682ZM380.63 544.75V550H377.13V544.75H380.63ZM380.63 544.75V550H377.13V544.75H380.63ZM383.686 544.75V550H380.186V544.75H383.686ZM383.686 544.75V550H380.186V544.75H383.686ZM386.741 544.75V550H383.241V544.75H386.741ZM386.741 544.75V550H383.241V544.75H386.741ZM389.797 544.75V550H386.297V544.75H389.797ZM389.797 544.75V550H386.297V544.75H389.797ZM392.853 544.75V550H389.353V544.75H392.853ZM392.853 544.75V550H389.353V544.75H392.853ZM395.908 544.75V550H392.408V544.75H395.908ZM395.908 544.75V550H392.408V544.75H395.908ZM398.964 544.75V550H395.464V544.75H398.964ZM398.964 544.75V550H395.464V544.75H398.964ZM402.02 544.75V550H398.52V544.75H402.02ZM402.02 544.75V550H398.52V544.75H402.02ZM404.2 544.75V550H401.575V544.75H404.2ZM409.148 544.75V550H405.648V544.75H409.148ZM409.148 544.75V550H405.648V544.75H409.148ZM412.204 544.75V550H408.704V544.75H412.204ZM412.204 544.75V550H408.704V544.75H412.204ZM415.26 544.75V550H411.76V544.75H415.26ZM415.26 544.75V550H411.76V544.75H415.26ZM418.315 544.75V550H414.815V544.75H418.315ZM418.315 544.75V550H414.815V544.75H418.315ZM421.371 544.75V550H417.871V544.75H421.371ZM421.371 544.75V550H417.871V544.75H421.371ZM424.427 544.75V550H420.927V544.75H424.427ZM424.427 544.75V550H420.927V544.75H424.427ZM427.482 544.75V550H423.982V544.75H427.482ZM427.482 544.75V550H423.982V544.75H427.482ZM429.663 544.75V550H427.038V544.75H429.663ZM434.611 544.75V550H431.111V544.75H434.611ZM434.611 544.75V550H431.111V544.75H434.611ZM437.667 544.75V550H434.167V544.75H437.667ZM437.667 544.75V550H434.167V544.75H437.667ZM440.723 544.75V550H437.223V544.75H440.723ZM440.723 544.75V550H437.223V544.75H440.723ZM443.778 544.75V550H440.278V544.75H443.778ZM443.778 544.75V550H440.278V544.75H443.778ZM445.959 544.75V550H443.334V544.75H445.959ZM450.907 544.75V550H447.407V544.75H450.907ZM450.907 544.75V550H447.407V544.75H450.907ZM453.963 544.75V550H450.463V544.75H453.963ZM453.963 544.75V550H450.463V544.75H453.963ZM457.019 544.75V550H453.519V544.75H457.019ZM457.019 544.75V550H453.519V544.75H457.019ZM460.074 544.75V550H456.574V544.75H460.074ZM460.074 544.75V550H456.574V544.75H460.074ZM463.13 544.75V550H459.63V544.75H463.13ZM463.13 544.75V550H459.63V544.75H463.13ZM466.186 544.75V550H462.686V544.75H466.186ZM466.186 544.75V550H462.686V544.75H466.186ZM469.241 544.75V550H465.741V544.75H469.241ZM469.241 544.75V550H465.741V544.75H469.241ZM472.297 544.75V550H468.797V544.75H472.297ZM472.297 544.75V550H468.797V544.75H472.297ZM475.353 544.75V550H471.853V544.75H475.353ZM475.353 544.75V550H471.853V544.75H475.353ZM478.408 544.75V550H474.908V544.75H478.408ZM478.408 544.75V550H474.908V544.75H478.408ZM480.589 544.75V550H477.964V544.75H480.589ZM485.537 544.75V550H482.037V544.75H485.537ZM485.537 544.75V550H482.037V544.75H485.537ZM488.593 544.75V550H485.093V544.75H488.593ZM488.593 544.75V550H485.093V544.75H488.593ZM491.648 544.75V550H488.148V544.75H491.648ZM491.648 544.75V550H488.148V544.75H491.648ZM493.829 544.75V550H491.204V544.75H493.829ZM498.777 544.75V550H495.277V544.75H498.777ZM498.777 544.75V550H495.277V544.75H498.777ZM501.833 544.75V550H498.333V544.75H501.833ZM501.833 544.75V550H498.333V544.75H501.833ZM504.889 544.75V550H501.389V544.75H504.889ZM504.889 544.75V550H501.389V544.75H504.889ZM507.944 544.75V550H504.444V544.75H507.944ZM507.944 544.75V550H504.444V544.75H507.944ZM511 544.75V550H507.5V544.75H511ZM511 544.75V550H507.5V544.75H511ZM514.056 544.75V550H510.556V544.75H514.056ZM514.056 544.75V550H510.556V544.75H514.056ZM516.236 544.75V550H513.611V544.75H516.236ZM521.185 544.75V550H517.685V544.75H521.185ZM521.185 544.75V550H517.685V544.75H521.185ZM524.24 544.75V550H520.74V544.75H524.24ZM524.24 544.75V550H520.74V544.75H524.24ZM527.296 544.75V550H523.796V544.75H527.296ZM527.296 544.75V550H523.796V544.75H527.296ZM530.352 544.75V550H526.852V544.75H530.352ZM530.352 544.75V550H526.852V544.75H530.352ZM533.407 544.75V550H529.907V544.75H533.407ZM533.407 544.75V550H529.907V544.75H533.407ZM536.463 544.75V550H532.963V544.75H536.463ZM536.463 544.75V550H532.963V544.75H536.463ZM539.519 544.75V550H536.019V544.75H539.519ZM539.519 544.75V550H536.019V544.75H539.519ZM542.574 544.75V550H539.074V544.75H542.574ZM542.574 544.75V550H539.074V544.75H542.574ZM545.63 544.75V550H542.13V544.75H545.63ZM545.63 544.75V550H542.13V544.75H545.63ZM547.811 544.75V550H545.186V544.75H547.811ZM552.759 544.75V550H549.259V544.75H552.759ZM552.759 544.75V550H549.259V544.75H552.759ZM555.814 544.75V550H552.314V544.75H555.814ZM555.814 544.75V550H552.314V544.75H555.814ZM558.87 544.75V550H555.37V544.75H558.87ZM558.87 544.75V550H555.37V544.75H558.87ZM561.926 544.75V550H558.426V544.75H561.926ZM561.926 544.75V550H558.426V544.75H561.926ZM564.981 544.75V550H561.481V544.75H564.981ZM564.981 544.75V550H561.481V544.75H564.981ZM568.037 544.75V550H564.537V544.75H568.037ZM568.037 544.75V550H564.537V544.75H568.037ZM571.093 544.75V550H567.593V544.75H571.093ZM571.093 544.75V550H567.593V544.75H571.093ZM573.273 544.75V550H570.648V544.75H573.273ZM578.222 544.75V550H574.722V544.75H578.222ZM578.222 544.75V550H574.722V544.75H578.222ZM581.277 544.75V550H577.777V544.75H581.277ZM581.277 544.75V550H577.777V544.75H581.277ZM584.333 544.75V550H580.833V544.75H584.333ZM584.333 544.75V550H580.833V544.75H584.333ZM587.389 544.75V550H583.889V544.75H587.389ZM587.389 544.75V550H583.889V544.75H587.389ZM590.444 544.75V550H586.944V544.75H590.444ZM590.444 544.75V550H586.944V544.75H590.444ZM592.625 544.75V550H590V544.75H592.625ZM263.5 554.75V560H260V554.75H263.5ZM263.5 554.75V560H260V554.75H263.5ZM266.556 554.75V560H263.056V554.75H266.556ZM266.556 554.75V560H263.056V554.75H266.556ZM269.611 554.75V560H266.111V554.75H269.611ZM269.611 554.75V560H266.111V554.75H269.611ZM272.667 554.75V560H269.167V554.75H272.667ZM272.667 554.75V560H269.167V554.75H272.667ZM275.723 554.75V560H272.223V554.75H275.723ZM275.723 554.75V560H272.223V554.75H275.723ZM277.903 554.75V560H275.278V554.75H277.903ZM281.834 554.75V560H278.334V554.75H281.834ZM281.834 554.75V560H278.334V554.75H281.834ZM284.89 554.75V560H281.39V554.75H284.89ZM284.89 554.75V560H281.39V554.75H284.89ZM287.945 554.75V560H284.445V554.75H287.945ZM287.945 554.75V560H284.445V554.75H287.945ZM291.001 554.75V560H287.501V554.75H291.001ZM291.001 554.75V560H287.501V554.75H291.001ZM294.057 554.75V560H290.557V554.75H294.057ZM294.057 554.75V560H290.557V554.75H294.057ZM296.237 554.75V560H293.612V554.75H296.237ZM300.168 554.75V560H296.668V554.75H300.168ZM300.168 554.75V560H296.668V554.75H300.168ZM303.224 554.75V560H299.724V554.75H303.224ZM303.224 554.75V560H299.724V554.75H303.224ZM306.279 554.75V560H302.779V554.75H306.279ZM306.279 554.75V560H302.779V554.75H306.279ZM308.46 554.75V560H305.835V554.75H308.46ZM312.391 554.75V560H308.891V554.75H312.391ZM312.391 554.75V560H308.891V554.75H312.391ZM315.446 554.75V560H311.946V554.75H315.446ZM315.446 554.75V560H311.946V554.75H315.446ZM318.502 554.75V560H315.002V554.75H318.502ZM318.502 554.75V560H315.002V554.75H318.502ZM321.558 554.75V560H318.058V554.75H321.558ZM321.558 554.75V560H318.058V554.75H321.558ZM323.738 554.75V560H321.113V554.75H323.738ZM327.669 554.75V560H324.169V554.75H327.669ZM327.669 554.75V560H324.169V554.75H327.669ZM330.725 554.75V560H327.225V554.75H330.725ZM330.725 554.75V560H327.225V554.75H330.725ZM333.78 554.75V560H330.28V554.75H333.78ZM333.78 554.75V560H330.28V554.75H333.78ZM336.836 554.75V560H333.336V554.75H336.836ZM336.836 554.75V560H333.336V554.75H336.836ZM339.892 554.75V560H336.392V554.75H339.892ZM339.892 554.75V560H336.392V554.75H339.892ZM342.947 554.75V560H339.447V554.75H342.947ZM342.947 554.75V560H339.447V554.75H342.947ZM346.003 554.75V560H342.503V554.75H346.003ZM346.003 554.75V560H342.503V554.75H346.003ZM349.059 554.75V560H345.559V554.75H349.059ZM349.059 554.75V560H345.559V554.75H349.059ZM352.114 554.75V560H348.614V554.75H352.114ZM352.114 554.75V560H348.614V554.75H352.114ZM354.295 554.75V560H351.67V554.75H354.295ZM358.226 554.75V560H354.726V554.75H358.226ZM358.226 554.75V560H354.726V554.75H358.226ZM361.281 554.75V560H357.781V554.75H361.281ZM361.281 554.75V560H357.781V554.75H361.281ZM364.337 554.75V560H360.837V554.75H364.337ZM364.337 554.75V560H360.837V554.75H364.337ZM367.393 554.75V560H363.893V554.75H367.393ZM367.393 554.75V560H363.893V554.75H367.393ZM370.448 554.75V560H366.948V554.75H370.448ZM370.448 554.75V560H366.948V554.75H370.448ZM373.504 554.75V560H370.004V554.75H373.504ZM373.504 554.75V560H370.004V554.75H373.504ZM376.56 554.75V560H373.06V554.75H376.56ZM376.56 554.75V560H373.06V554.75H376.56ZM378.74 554.75V560H376.115V554.75H378.74ZM382.671 554.75V560H379.171V554.75H382.671ZM382.671 554.75V560H379.171V554.75H382.671ZM385.727 554.75V560H382.227V554.75H385.727ZM385.727 554.75V560H382.227V554.75H385.727ZM388.782 554.75V560H385.282V554.75H388.782ZM388.782 554.75V560H385.282V554.75H388.782ZM391.838 554.75V560H388.338V554.75H391.838ZM391.838 554.75V560H388.338V554.75H391.838ZM394.894 554.75V560H391.394V554.75H394.894ZM394.894 554.75V560H391.394V554.75H394.894ZM397.949 554.75V560H394.449V554.75H397.949ZM397.949 554.75V560H394.449V554.75H397.949ZM401.005 554.75V560H397.505V554.75H401.005ZM401.005 554.75V560H397.505V554.75H401.005ZM403.186 554.75V560H400.561V554.75H403.186ZM407.116 554.75V560H403.616V554.75H407.116ZM407.116 554.75V560H403.616V554.75H407.116ZM410.172 554.75V560H406.672V554.75H410.172ZM410.172 554.75V560H406.672V554.75H410.172ZM413.228 554.75V560H409.728V554.75H413.228ZM413.228 554.75V560H409.728V554.75H413.228ZM416.283 554.75V560H412.783V554.75H416.283ZM416.283 554.75V560H412.783V554.75H416.283ZM419.339 554.75V560H415.839V554.75H419.339ZM419.339 554.75V560H415.839V554.75H419.339ZM422.395 554.75V560H418.895V554.75H422.395ZM422.395 554.75V560H418.895V554.75H422.395ZM425.45 554.75V560H421.95V554.75H425.45ZM425.45 554.75V560H421.95V554.75H425.45ZM428.506 554.75V560H425.006V554.75H428.506ZM428.506 554.75V560H425.006V554.75H428.506ZM431.562 554.75V560H428.062V554.75H431.562ZM431.562 554.75V560H428.062V554.75H431.562ZM433.742 554.75V560H431.117V554.75H433.742ZM437.673 554.75V560H434.173V554.75H437.673ZM437.673 554.75V560H434.173V554.75H437.673ZM440.729 554.75V560H437.229V554.75H440.729ZM440.729 554.75V560H437.229V554.75H440.729ZM442.909 554.75V560H440.284V554.75H442.909ZM446.84 554.75V560H443.34V554.75H446.84ZM446.84 554.75V560H443.34V554.75H446.84ZM449.896 554.75V560H446.396V554.75H449.896ZM449.896 554.75V560H446.396V554.75H449.896ZM452.951 554.75V560H449.451V554.75H452.951ZM452.951 554.75V560H449.451V554.75H452.951ZM456.007 554.75V560H452.507V554.75H456.007ZM456.007 554.75V560H452.507V554.75H456.007ZM262.625 574.75V580H260V574.75H262.625ZM267.864 574.75V580H264.364V574.75H267.864ZM267.864 574.75V580H264.364V574.75H267.864ZM270.92 574.75V580H267.42V574.75H270.92ZM270.92 574.75V580H267.42V574.75H270.92ZM273.976 574.75V580H270.476V574.75H273.976ZM273.976 574.75V580H270.476V574.75H273.976ZM276.156 574.75V580H273.531V574.75H276.156ZM281.396 574.75V580H277.896V574.75H281.396ZM281.396 574.75V580H277.896V574.75H281.396ZM284.451 574.75V580H280.951V574.75H284.451ZM284.451 574.75V580H280.951V574.75H284.451ZM287.507 574.75V580H284.007V574.75H287.507ZM287.507 574.75V580H284.007V574.75H287.507ZM290.563 574.75V580H287.063V574.75H290.563ZM290.563 574.75V580H287.063V574.75H290.563ZM293.618 574.75V580H290.118V574.75H293.618ZM293.618 574.75V580H290.118V574.75H293.618ZM296.674 574.75V580H293.174V574.75H296.674ZM296.674 574.75V580H293.174V574.75H296.674ZM299.73 574.75V580H296.23V574.75H299.73ZM299.73 574.75V580H296.23V574.75H299.73ZM302.785 574.75V580H299.285V574.75H302.785ZM302.785 574.75V580H299.285V574.75H302.785ZM304.966 574.75V580H302.341V574.75H304.966ZM310.205 574.75V580H306.705V574.75H310.205ZM310.205 574.75V580H306.705V574.75H310.205ZM313.261 574.75V580H309.761V574.75H313.261ZM313.261 574.75V580H309.761V574.75H313.261ZM316.317 574.75V580H312.817V574.75H316.317ZM316.317 574.75V580H312.817V574.75H316.317ZM319.372 574.75V580H315.872V574.75H319.372ZM319.372 574.75V580H315.872V574.75H319.372ZM322.428 574.75V580H318.928V574.75H322.428ZM322.428 574.75V580H318.928V574.75H322.428ZM325.484 574.75V580H321.984V574.75H325.484ZM325.484 574.75V580H321.984V574.75H325.484ZM328.539 574.75V580H325.039V574.75H328.539ZM328.539 574.75V580H325.039V574.75H328.539ZM331.595 574.75V580H328.095V574.75H331.595ZM331.595 574.75V580H328.095V574.75H331.595ZM333.776 574.75V580H331.151V574.75H333.776ZM339.015 574.75V580H335.515V574.75H339.015ZM339.015 574.75V580H335.515V574.75H339.015ZM342.071 574.75V580H338.571V574.75H342.071ZM342.071 574.75V580H338.571V574.75H342.071ZM345.127 574.75V580H341.627V574.75H345.127ZM345.127 574.75V580H341.627V574.75H345.127ZM348.182 574.75V580H344.682V574.75H348.182ZM348.182 574.75V580H344.682V574.75H348.182ZM351.238 574.75V580H347.738V574.75H351.238ZM351.238 574.75V580H347.738V574.75H351.238ZM354.294 574.75V580H350.794V574.75H354.294ZM354.294 574.75V580H350.794V574.75H354.294ZM357.349 574.75V580H353.849V574.75H357.349ZM357.349 574.75V580H353.849V574.75H357.349ZM360.405 574.75V580H356.905V574.75H360.405ZM360.405 574.75V580H356.905V574.75H360.405ZM363.461 574.75V580H359.961V574.75H363.461ZM363.461 574.75V580H359.961V574.75H363.461ZM366.516 574.75V580H363.016V574.75H366.516ZM366.516 574.75V580H363.016V574.75H366.516ZM369.572 574.75V580H366.072V574.75H369.572ZM369.572 574.75V580H366.072V574.75H369.572ZM371.753 574.75V580H369.128V574.75H371.753ZM376.992 574.75V580H373.492V574.75H376.992ZM376.992 574.75V580H373.492V574.75H376.992ZM380.048 574.75V580H376.548V574.75H380.048ZM380.048 574.75V580H376.548V574.75H380.048ZM383.103 574.75V580H379.603V574.75H383.103ZM383.103 574.75V580H379.603V574.75H383.103ZM386.159 574.75V580H382.659V574.75H386.159ZM386.159 574.75V580H382.659V574.75H386.159ZM389.215 574.75V580H385.715V574.75H389.215ZM389.215 574.75V580H385.715V574.75H389.215ZM392.27 574.75V580H388.77V574.75H392.27ZM392.27 574.75V580H388.77V574.75H392.27ZM395.326 574.75V580H391.826V574.75H395.326ZM395.326 574.75V580H391.826V574.75H395.326ZM397.507 574.75V580H394.882V574.75H397.507ZM402.746 574.75V580H399.246V574.75H402.746ZM402.746 574.75V580H399.246V574.75H402.746ZM405.802 574.75V580H402.302V574.75H405.802ZM405.802 574.75V580H402.302V574.75H405.802ZM408.857 574.75V580H405.357V574.75H408.857ZM408.857 574.75V580H405.357V574.75H408.857ZM411.913 574.75V580H408.413V574.75H411.913ZM411.913 574.75V580H408.413V574.75H411.913ZM414.969 574.75V580H411.469V574.75H414.969ZM414.969 574.75V580H411.469V574.75H414.969ZM418.024 574.75V580H414.524V574.75H418.024ZM418.024 574.75V580H414.524V574.75H418.024ZM421.08 574.75V580H417.58V574.75H421.08ZM421.08 574.75V580H417.58V574.75H421.08ZM423.261 574.75V580H420.636V574.75H423.261ZM428.5 574.75V580H425V574.75H428.5ZM428.5 574.75V580H425V574.75H428.5ZM431.556 574.75V580H428.056V574.75H431.556ZM431.556 574.75V580H428.056V574.75H431.556ZM434.611 574.75V580H431.111V574.75H434.611ZM434.611 574.75V580H431.111V574.75H434.611ZM437.667 574.75V580H434.167V574.75H437.667ZM437.667 574.75V580H434.167V574.75H437.667ZM440.723 574.75V580H437.223V574.75H440.723ZM440.723 574.75V580H437.223V574.75H440.723ZM443.778 574.75V580H440.278V574.75H443.778ZM443.778 574.75V580H440.278V574.75H443.778ZM445.959 574.75V580H443.334V574.75H445.959ZM451.198 574.75V580H447.698V574.75H451.198ZM451.198 574.75V580H447.698V574.75H451.198ZM454.254 574.75V580H450.754V574.75H454.254ZM454.254 574.75V580H450.754V574.75H454.254ZM456.435 574.75V580H453.81V574.75H456.435ZM461.674 574.75V580H458.174V574.75H461.674ZM461.674 574.75V580H458.174V574.75H461.674ZM464.73 574.75V580H461.23V574.75H464.73ZM464.73 574.75V580H461.23V574.75H464.73ZM467.785 574.75V580H464.285V574.75H467.785ZM467.785 574.75V580H464.285V574.75H467.785ZM470.841 574.75V580H467.341V574.75H470.841ZM470.841 574.75V580H467.341V574.75H470.841ZM473.022 574.75V580H470.397V574.75H473.022ZM478.261 574.75V580H474.761V574.75H478.261ZM478.261 574.75V580H474.761V574.75H478.261ZM481.317 574.75V580H477.817V574.75H481.317ZM481.317 574.75V580H477.817V574.75H481.317ZM484.372 574.75V580H480.872V574.75H484.372ZM484.372 574.75V580H480.872V574.75H484.372ZM486.553 574.75V580H483.928V574.75H486.553ZM491.793 574.75V580H488.293V574.75H491.793ZM491.793 574.75V580H488.293V574.75H491.793ZM494.848 574.75V580H491.348V574.75H494.848ZM494.848 574.75V580H491.348V574.75H494.848ZM497.904 574.75V580H494.404V574.75H497.904ZM497.904 574.75V580H494.404V574.75H497.904ZM500.96 574.75V580H497.46V574.75H500.96ZM500.96 574.75V580H497.46V574.75H500.96ZM504.015 574.75V580H500.515V574.75H504.015ZM504.015 574.75V580H500.515V574.75H504.015ZM507.071 574.75V580H503.571V574.75H507.071ZM507.071 574.75V580H503.571V574.75H507.071ZM510.127 574.75V580H506.627V574.75H510.127ZM510.127 574.75V580H506.627V574.75H510.127ZM513.182 574.75V580H509.682V574.75H513.182ZM513.182 574.75V580H509.682V574.75H513.182ZM516.238 574.75V580H512.738V574.75H516.238ZM516.238 574.75V580H512.738V574.75H516.238ZM519.294 574.75V580H515.794V574.75H519.294ZM519.294 574.75V580H515.794V574.75H519.294ZM522.349 574.75V580H518.849V574.75H522.349ZM522.349 574.75V580H518.849V574.75H522.349ZM524.53 574.75V580H521.905V574.75H524.53ZM529.769 574.75V580H526.269V574.75H529.769ZM529.769 574.75V580H526.269V574.75H529.769ZM532.825 574.75V580H529.325V574.75H532.825ZM532.825 574.75V580H529.325V574.75H532.825ZM535.881 574.75V580H532.381V574.75H535.881ZM535.881 574.75V580H532.381V574.75H535.881ZM538.936 574.75V580H535.436V574.75H538.936ZM538.936 574.75V580H535.436V574.75H538.936ZM541.992 574.75V580H538.492V574.75H541.992ZM541.992 574.75V580H538.492V574.75H541.992ZM545.048 574.75V580H541.548V574.75H545.048ZM545.048 574.75V580H541.548V574.75H545.048ZM547.228 574.75V580H544.603V574.75H547.228ZM552.468 574.75V580H548.968V574.75H552.468ZM552.468 574.75V580H548.968V574.75H552.468ZM555.523 574.75V580H552.023V574.75H555.523ZM555.523 574.75V580H552.023V574.75H555.523ZM558.579 574.75V580H555.079V574.75H558.579ZM558.579 574.75V580H555.079V574.75H558.579ZM561.635 574.75V580H558.135V574.75H561.635ZM561.635 574.75V580H558.135V574.75H561.635ZM564.69 574.75V580H561.19V574.75H564.69ZM564.69 574.75V580H561.19V574.75H564.69ZM566.871 574.75V580H564.246V574.75H566.871ZM572.11 574.75V580H568.61V574.75H572.11ZM572.11 574.75V580H568.61V574.75H572.11ZM575.166 574.75V580H571.666V574.75H575.166ZM575.166 574.75V580H571.666V574.75H575.166ZM578.222 574.75V580H574.722V574.75H578.222ZM578.222 574.75V580H574.722V574.75H578.222ZM581.277 574.75V580H577.777V574.75H581.277ZM581.277 574.75V580H577.777V574.75H581.277ZM584.333 574.75V580H580.833V574.75H584.333ZM584.333 574.75V580H580.833V574.75H584.333ZM587.389 574.75V580H583.889V574.75H587.389ZM587.389 574.75V580H583.889V574.75H587.389ZM590.444 574.75V580H586.944V574.75H590.444ZM590.444 574.75V580H586.944V574.75H590.444ZM592.625 574.75V580H590V574.75H592.625ZM263.5 584.75V590H260V584.75H263.5ZM263.5 584.75V590H260V584.75H263.5ZM266.556 584.75V590H263.056V584.75H266.556ZM266.556 584.75V590H263.056V584.75H266.556ZM269.611 584.75V590H266.111V584.75H269.611ZM269.611 584.75V590H266.111V584.75H269.611ZM272.667 584.75V590H269.167V584.75H272.667ZM272.667 584.75V590H269.167V584.75H272.667ZM275.723 584.75V590H272.223V584.75H275.723ZM275.723 584.75V590H272.223V584.75H275.723ZM277.903 584.75V590H275.278V584.75H277.903ZM282.003 584.75V590H278.503V584.75H282.003ZM282.003 584.75V590H278.503V584.75H282.003ZM285.059 584.75V590H281.559V584.75H285.059ZM285.059 584.75V590H281.559V584.75H285.059ZM288.114 584.75V590H284.614V584.75H288.114ZM288.114 584.75V590H284.614V584.75H288.114ZM290.295 584.75V590H287.67V584.75H290.295ZM294.395 584.75V590H290.895V584.75H294.395ZM294.395 584.75V590H290.895V584.75H294.395ZM297.451 584.75V590H293.951V584.75H297.451ZM297.451 584.75V590H293.951V584.75H297.451ZM300.506 584.75V590H297.006V584.75H300.506ZM300.506 584.75V590H297.006V584.75H300.506ZM302.687 584.75V590H300.062V584.75H302.687ZM306.787 584.75V590H303.287V584.75H306.787ZM306.787 584.75V590H303.287V584.75H306.787ZM309.842 584.75V590H306.342V584.75H309.842ZM309.842 584.75V590H306.342V584.75H309.842ZM312.898 584.75V590H309.398V584.75H312.898ZM312.898 584.75V590H309.398V584.75H312.898ZM315.954 584.75V590H312.454V584.75H315.954ZM315.954 584.75V590H312.454V584.75H315.954ZM319.009 584.75V590H315.509V584.75H319.009ZM319.009 584.75V590H315.509V584.75H319.009ZM322.065 584.75V590H318.565V584.75H322.065ZM322.065 584.75V590H318.565V584.75H322.065ZM325.121 584.75V590H321.621V584.75H325.121ZM325.121 584.75V590H321.621V584.75H325.121ZM328.176 584.75V590H324.676V584.75H328.176ZM328.176 584.75V590H324.676V584.75H328.176ZM330.357 584.75V590H327.732V584.75H330.357ZM334.457 584.75V590H330.957V584.75H334.457ZM334.457 584.75V590H330.957V584.75H334.457ZM337.512 584.75V590H334.012V584.75H337.512ZM337.512 584.75V590H334.012V584.75H337.512ZM340.568 584.75V590H337.068V584.75H340.568ZM340.568 584.75V590H337.068V584.75H340.568ZM343.624 584.75V590H340.124V584.75H343.624ZM343.624 584.75V590H340.124V584.75H343.624ZM346.679 584.75V590H343.179V584.75H346.679ZM346.679 584.75V590H343.179V584.75H346.679ZM349.735 584.75V590H346.235V584.75H349.735ZM349.735 584.75V590H346.235V584.75H349.735ZM352.791 584.75V590H349.291V584.75H352.791ZM352.791 584.75V590H349.291V584.75H352.791ZM355.846 584.75V590H352.346V584.75H355.846ZM355.846 584.75V590H352.346V584.75H355.846ZM358.902 584.75V590H355.402V584.75H358.902ZM358.902 584.75V590H355.402V584.75H358.902ZM361.083 584.75V590H358.458V584.75H361.083ZM365.182 584.75V590H361.682V584.75H365.182ZM365.182 584.75V590H361.682V584.75H365.182ZM368.238 584.75V590H364.738V584.75H368.238ZM368.238 584.75V590H364.738V584.75H368.238ZM371.294 584.75V590H367.794V584.75H371.294ZM371.294 584.75V590H367.794V584.75H371.294ZM374.349 584.75V590H370.849V584.75H374.349ZM374.349 584.75V590H370.849V584.75H374.349ZM376.53 584.75V590H373.905V584.75H376.53ZM380.63 584.75V590H377.13V584.75H380.63ZM380.63 584.75V590H377.13V584.75H380.63ZM383.686 584.75V590H380.186V584.75H383.686ZM383.686 584.75V590H380.186V584.75H383.686ZM386.741 584.75V590H383.241V584.75H386.741ZM386.741 584.75V590H383.241V584.75H386.741ZM388.922 584.75V590H386.297V584.75H388.922ZM393.022 584.75V590H389.522V584.75H393.022ZM393.022 584.75V590H389.522V584.75H393.022ZM396.077 584.75V590H392.577V584.75H396.077ZM396.077 584.75V590H392.577V584.75H396.077ZM399.133 584.75V590H395.633V584.75H399.133ZM399.133 584.75V590H395.633V584.75H399.133ZM402.189 584.75V590H398.689V584.75H402.189ZM402.189 584.75V590H398.689V584.75H402.189ZM405.244 584.75V590H401.744V584.75H405.244ZM405.244 584.75V590H401.744V584.75H405.244ZM408.3 584.75V590H404.8V584.75H408.3ZM408.3 584.75V590H404.8V584.75H408.3ZM410.481 584.75V590H407.856V584.75H410.481ZM414.58 584.75V590H411.08V584.75H414.58ZM414.58 584.75V590H411.08V584.75H414.58ZM417.636 584.75V590H414.136V584.75H417.636ZM417.636 584.75V590H414.136V584.75H417.636ZM420.692 584.75V590H417.192V584.75H420.692ZM420.692 584.75V590H417.192V584.75H420.692ZM423.747 584.75V590H420.247V584.75H423.747ZM423.747 584.75V590H420.247V584.75H423.747ZM426.803 584.75V590H423.303V584.75H426.803ZM426.803 584.75V590H423.303V584.75H426.803ZM428.984 584.75V590H426.359V584.75H428.984ZM433.083 584.75V590H429.583V584.75H433.083ZM433.083 584.75V590H429.583V584.75H433.083ZM436.139 584.75V590H432.639V584.75H436.139ZM436.139 584.75V590H432.639V584.75H436.139ZM439.195 584.75V590H435.695V584.75H439.195ZM439.195 584.75V590H435.695V584.75H439.195ZM442.25 584.75V590H438.75V584.75H442.25ZM442.25 584.75V590H438.75V584.75H442.25ZM445.306 584.75V590H441.806V584.75H445.306ZM445.306 584.75V590H441.806V584.75H445.306ZM448.362 584.75V590H444.862V584.75H448.362ZM448.362 584.75V590H444.862V584.75H448.362ZM450.542 584.75V590H447.917V584.75H450.542ZM454.642 584.75V590H451.142V584.75H454.642ZM454.642 584.75V590H451.142V584.75H454.642ZM457.698 584.75V590H454.198V584.75H457.698ZM457.698 584.75V590H454.198V584.75H457.698ZM460.754 584.75V590H457.254V584.75H460.754ZM460.754 584.75V590H457.254V584.75H460.754ZM463.809 584.75V590H460.309V584.75H463.809ZM463.809 584.75V590H460.309V584.75H463.809ZM466.865 584.75V590H463.365V584.75H466.865ZM466.865 584.75V590H463.365V584.75H466.865ZM469.921 584.75V590H466.421V584.75H469.921ZM469.921 584.75V590H466.421V584.75H469.921ZM472.101 584.75V590H469.476V584.75H472.101ZM476.201 584.75V590H472.701V584.75H476.201ZM476.201 584.75V590H472.701V584.75H476.201ZM479.257 584.75V590H475.757V584.75H479.257ZM479.257 584.75V590H475.757V584.75H479.257ZM481.437 584.75V590H478.812V584.75H481.437ZM485.537 584.75V590H482.037V584.75H485.537ZM485.537 584.75V590H482.037V584.75H485.537ZM488.593 584.75V590H485.093V584.75H488.593ZM488.593 584.75V590H485.093V584.75H488.593ZM490.773 584.75V590H488.148V584.75H490.773ZM494.873 584.75V590H491.373V584.75H494.873ZM494.873 584.75V590H491.373V584.75H494.873ZM497.929 584.75V590H494.429V584.75H497.929ZM497.929 584.75V590H494.429V584.75H497.929ZM500.985 584.75V590H497.485V584.75H500.985ZM500.985 584.75V590H497.485V584.75H500.985ZM504.04 584.75V590H500.54V584.75H504.04ZM504.04 584.75V590H500.54V584.75H504.04ZM506.221 584.75V590H503.596V584.75H506.221ZM510.321 584.75V590H506.821V584.75H510.321ZM510.321 584.75V590H506.821V584.75H510.321ZM513.376 584.75V590H509.876V584.75H513.376ZM513.376 584.75V590H509.876V584.75H513.376ZM516.432 584.75V590H512.932V584.75H516.432ZM516.432 584.75V590H512.932V584.75H516.432ZM519.488 584.75V590H515.988V584.75H519.488ZM519.488 584.75V590H515.988V584.75H519.488ZM522.543 584.75V590H519.043V584.75H522.543ZM522.543 584.75V590H519.043V584.75H522.543ZM524.724 584.75V590H522.099V584.75H524.724ZM528.824 584.75V590H525.324V584.75H528.824ZM528.824 584.75V590H525.324V584.75H528.824ZM531.879 584.75V590H528.379V584.75H531.879ZM531.879 584.75V590H528.379V584.75H531.879ZM534.935 584.75V590H531.435V584.75H534.935ZM534.935 584.75V590H531.435V584.75H534.935ZM537.991 584.75V590H534.491V584.75H537.991ZM537.991 584.75V590H534.491V584.75H537.991ZM541.046 584.75V590H537.546V584.75H541.046ZM541.046 584.75V590H537.546V584.75H541.046ZM544.102 584.75V590H540.602V584.75H544.102ZM544.102 584.75V590H540.602V584.75H544.102ZM547.158 584.75V590H543.658V584.75H547.158ZM547.158 584.75V590H543.658V584.75H547.158ZM549.338 584.75V590H546.713V584.75H549.338ZM553.438 584.75V590H549.938V584.75H553.438ZM553.438 584.75V590H549.938V584.75H553.438ZM556.494 584.75V590H552.994V584.75H556.494ZM556.494 584.75V590H552.994V584.75H556.494ZM559.549 584.75V590H556.049V584.75H559.549ZM559.549 584.75V590H556.049V584.75H559.549ZM561.73 584.75V590H559.105V584.75H561.73ZM565.83 584.75V590H562.33V584.75H565.83ZM565.83 584.75V590H562.33V584.75H565.83ZM568.886 584.75V590H565.386V584.75H568.886ZM568.886 584.75V590H565.386V584.75H568.886ZM571.941 584.75V590H568.441V584.75H571.941ZM571.941 584.75V590H568.441V584.75H571.941ZM574.122 584.75V590H571.497V584.75H574.122ZM578.222 584.75V590H574.722V584.75H578.222ZM578.222 584.75V590H574.722V584.75H578.222ZM581.277 584.75V590H577.777V584.75H581.277ZM581.277 584.75V590H577.777V584.75H581.277ZM584.333 584.75V590H580.833V584.75H584.333ZM584.333 584.75V590H580.833V584.75H584.333ZM587.389 584.75V590H583.889V584.75H587.389ZM587.389 584.75V590H583.889V584.75H587.389ZM590.444 584.75V590H586.944V584.75H590.444ZM590.444 584.75V590H586.944V584.75H590.444ZM592.625 584.75V590H590V584.75H592.625ZM263.5 594.75V600H260V594.75H263.5ZM263.5 594.75V600H260V594.75H263.5ZM266.556 594.75V600H263.056V594.75H266.556ZM266.556 594.75V600H263.056V594.75H266.556ZM269.611 594.75V600H266.111V594.75H269.611ZM269.611 594.75V600H266.111V594.75H269.611ZM272.667 594.75V600H269.167V594.75H272.667ZM272.667 594.75V600H269.167V594.75H272.667ZM275.723 594.75V600H272.223V594.75H275.723ZM275.723 594.75V600H272.223V594.75H275.723ZM278.778 594.75V600H275.278V594.75H278.778ZM278.778 594.75V600H275.278V594.75H278.778ZM281.834 594.75V600H278.334V594.75H281.834ZM281.834 594.75V600H278.334V594.75H281.834ZM284.89 594.75V600H281.39V594.75H284.89ZM284.89 594.75V600H281.39V594.75H284.89ZM287.945 594.75V600H284.445V594.75H287.945ZM287.945 594.75V600H284.445V594.75H287.945ZM290.126 594.75V600H287.501V594.75H290.126ZM294.871 594.75V600H291.371V594.75H294.871ZM294.871 594.75V600H291.371V594.75H294.871ZM297.926 594.75V600H294.426V594.75H297.926ZM297.926 594.75V600H294.426V594.75H297.926ZM300.982 594.75V600H297.482V594.75H300.982ZM300.982 594.75V600H297.482V594.75H300.982ZM304.038 594.75V600H300.538V594.75H304.038ZM304.038 594.75V600H300.538V594.75H304.038ZM307.093 594.75V600H303.593V594.75H307.093ZM307.093 594.75V600H303.593V594.75H307.093ZM310.149 594.75V600H306.649V594.75H310.149ZM310.149 594.75V600H306.649V594.75H310.149ZM313.205 594.75V600H309.705V594.75H313.205ZM313.205 594.75V600H309.705V594.75H313.205ZM316.26 594.75V600H312.76V594.75H316.26ZM316.26 594.75V600H312.76V594.75H316.26ZM319.316 594.75V600H315.816V594.75H319.316ZM319.316 594.75V600H315.816V594.75H319.316ZM322.372 594.75V600H318.872V594.75H322.372ZM322.372 594.75V600H318.872V594.75H322.372ZM324.552 594.75V600H321.927V594.75H324.552ZM329.297 594.75V600H325.797V594.75H329.297ZM329.297 594.75V600H325.797V594.75H329.297ZM332.353 594.75V600H328.853V594.75H332.353ZM332.353 594.75V600H328.853V594.75H332.353ZM334.533 594.75V600H331.908V594.75H334.533ZM339.278 594.75V600H335.778V594.75H339.278ZM339.278 594.75V600H335.778V594.75H339.278ZM342.334 594.75V600H338.834V594.75H342.334ZM342.334 594.75V600H338.834V594.75H342.334ZM345.389 594.75V600H341.889V594.75H345.389ZM345.389 594.75V600H341.889V594.75H345.389ZM348.445 594.75V600H344.945V594.75H348.445ZM348.445 594.75V600H344.945V594.75H348.445ZM351.501 594.75V600H348.001V594.75H351.501ZM351.501 594.75V600H348.001V594.75H351.501ZM354.556 594.75V600H351.056V594.75H354.556ZM354.556 594.75V600H351.056V594.75H354.556ZM356.737 594.75V600H354.112V594.75H356.737ZM361.482 594.75V600H357.982V594.75H361.482ZM361.482 594.75V600H357.982V594.75H361.482ZM364.537 594.75V600H361.037V594.75H364.537ZM364.537 594.75V600H361.037V594.75H364.537ZM367.593 594.75V600H364.093V594.75H367.593ZM367.593 594.75V600H364.093V594.75H367.593ZM370.649 594.75V600H367.149V594.75H370.649ZM370.649 594.75V600H367.149V594.75H370.649ZM372.829 594.75V600H370.204V594.75H372.829ZM377.574 594.75V600H374.074V594.75H377.574ZM377.574 594.75V600H374.074V594.75H377.574ZM380.63 594.75V600H377.13V594.75H380.63ZM380.63 594.75V600H377.13V594.75H380.63ZM383.686 594.75V600H380.186V594.75H383.686ZM383.686 594.75V600H380.186V594.75H383.686ZM386.741 594.75V600H383.241V594.75H386.741ZM386.741 594.75V600H383.241V594.75H386.741ZM389.797 594.75V600H386.297V594.75H389.797ZM389.797 594.75V600H386.297V594.75H389.797ZM392.853 594.75V600H389.353V594.75H392.853ZM392.853 594.75V600H389.353V594.75H392.853ZM395.908 594.75V600H392.408V594.75H395.908ZM395.908 594.75V600H392.408V594.75H395.908ZM398.964 594.75V600H395.464V594.75H398.964ZM398.964 594.75V600H395.464V594.75H398.964ZM402.02 594.75V600H398.52V594.75H402.02ZM402.02 594.75V600H398.52V594.75H402.02ZM404.2 594.75V600H401.575V594.75H404.2ZM408.945 594.75V600H405.445V594.75H408.945ZM408.945 594.75V600H405.445V594.75H408.945ZM412.001 594.75V600H408.501V594.75H412.001ZM412.001 594.75V600H408.501V594.75H412.001ZM415.056 594.75V600H411.556V594.75H415.056ZM415.056 594.75V600H411.556V594.75H415.056ZM418.112 594.75V600H414.612V594.75H418.112ZM418.112 594.75V600H414.612V594.75H418.112ZM421.168 594.75V600H417.668V594.75H421.168ZM421.168 594.75V600H417.668V594.75H421.168ZM423.348 594.75V600H420.723V594.75H423.348ZM428.093 594.75V600H424.593V594.75H428.093ZM428.093 594.75V600H424.593V594.75H428.093ZM431.149 594.75V600H427.649V594.75H431.149ZM431.149 594.75V600H427.649V594.75H431.149ZM434.204 594.75V600H430.704V594.75H434.204ZM434.204 594.75V600H430.704V594.75H434.204ZM437.26 594.75V600H433.76V594.75H437.26ZM437.26 594.75V600H433.76V594.75H437.26ZM440.316 594.75V600H436.816V594.75H440.316ZM440.316 594.75V600H436.816V594.75H440.316ZM442.496 594.75V600H439.871V594.75H442.496ZM447.241 594.75V600H443.741V594.75H447.241ZM447.241 594.75V600H443.741V594.75H447.241ZM450.297 594.75V600H446.797V594.75H450.297ZM450.297 594.75V600H446.797V594.75H450.297ZM453.352 594.75V600H449.852V594.75H453.352ZM453.352 594.75V600H449.852V594.75H453.352ZM456.408 594.75V600H452.908V594.75H456.408ZM456.408 594.75V600H452.908V594.75H456.408ZM459.464 594.75V600H455.964V594.75H459.464ZM459.464 594.75V600H455.964V594.75H459.464ZM462.519 594.75V600H459.019V594.75H462.519ZM462.519 594.75V600H459.019V594.75H462.519ZM465.575 594.75V600H462.075V594.75H465.575ZM465.575 594.75V600H462.075V594.75H465.575ZM468.631 594.75V600H465.131V594.75H468.631ZM468.631 594.75V600H465.131V594.75H468.631ZM471.686 594.75V600H468.186V594.75H471.686ZM471.686 594.75V600H468.186V594.75H471.686ZM474.742 594.75V600H471.242V594.75H474.742ZM474.742 594.75V600H471.242V594.75H474.742ZM476.923 594.75V600H474.298V594.75H476.923ZM481.667 594.75V600H478.167V594.75H481.667ZM481.667 594.75V600H478.167V594.75H481.667ZM484.723 594.75V600H481.223V594.75H484.723ZM484.723 594.75V600H481.223V594.75H484.723ZM487.779 594.75V600H484.279V594.75H487.779ZM487.779 594.75V600H484.279V594.75H487.779ZM490.834 594.75V600H487.334V594.75H490.834ZM490.834 594.75V600H487.334V594.75H490.834ZM493.89 594.75V600H490.39V594.75H493.89ZM493.89 594.75V600H490.39V594.75H493.89ZM496.071 594.75V600H493.446V594.75H496.071ZM500.815 594.75V600H497.315V594.75H500.815ZM500.815 594.75V600H497.315V594.75H500.815ZM503.871 594.75V600H500.371V594.75H503.871ZM503.871 594.75V600H500.371V594.75H503.871ZM506.927 594.75V600H503.427V594.75H506.927ZM506.927 594.75V600H503.427V594.75H506.927ZM509.107 594.75V600H506.482V594.75H509.107ZM513.852 594.75V600H510.352V594.75H513.852ZM513.852 594.75V600H510.352V594.75H513.852ZM516.908 594.75V600H513.408V594.75H516.908ZM516.908 594.75V600H513.408V594.75H516.908ZM519.088 594.75V600H516.463V594.75H519.088ZM523.833 594.75V600H520.333V594.75H523.833ZM523.833 594.75V600H520.333V594.75H523.833ZM526.889 594.75V600H523.389V594.75H526.889ZM526.889 594.75V600H523.389V594.75H526.889ZM529.945 594.75V600H526.445V594.75H529.945ZM529.945 594.75V600H526.445V594.75H529.945ZM533 594.75V600H529.5V594.75H533ZM533 594.75V600H529.5V594.75H533ZM535.181 594.75V600H532.556V594.75H535.181ZM539.926 594.75V600H536.426V594.75H539.926ZM539.926 594.75V600H536.426V594.75H539.926ZM542.981 594.75V600H539.481V594.75H542.981ZM542.981 594.75V600H539.481V594.75H542.981ZM546.037 594.75V600H542.537V594.75H546.037ZM546.037 594.75V600H542.537V594.75H546.037ZM549.093 594.75V600H545.593V594.75H549.093ZM549.093 594.75V600H545.593V594.75H549.093ZM551.273 594.75V600H548.648V594.75H551.273ZM556.018 594.75V600H552.518V594.75H556.018ZM556.018 594.75V600H552.518V594.75H556.018ZM559.074 594.75V600H555.574V594.75H559.074ZM559.074 594.75V600H555.574V594.75H559.074ZM562.129 594.75V600H558.629V594.75H562.129ZM562.129 594.75V600H558.629V594.75H562.129ZM565.185 594.75V600H561.685V594.75H565.185ZM565.185 594.75V600H561.685V594.75H565.185ZM568.241 594.75V600H564.741V594.75H568.241ZM568.241 594.75V600H564.741V594.75H568.241ZM571.296 594.75V600H567.796V594.75H571.296ZM571.296 594.75V600H567.796V594.75H571.296ZM574.352 594.75V600H570.852V594.75H574.352ZM574.352 594.75V600H570.852V594.75H574.352ZM576.533 594.75V600H573.908V594.75H576.533ZM581.277 594.75V600H577.777V594.75H581.277ZM581.277 594.75V600H577.777V594.75H581.277ZM584.333 594.75V600H580.833V594.75H584.333ZM584.333 594.75V600H580.833V594.75H584.333ZM587.389 594.75V600H583.889V594.75H587.389ZM587.389 594.75V600H583.889V594.75H587.389ZM590.444 594.75V600H586.944V594.75H590.444ZM590.444 594.75V600H586.944V594.75H590.444ZM592.625 594.75V600H590V594.75H592.625ZM263.5 604.75V610H260V604.75H263.5ZM263.5 604.75V610H260V604.75H263.5ZM266.556 604.75V610H263.056V604.75H266.556ZM266.556 604.75V610H263.056V604.75H266.556ZM269.611 604.75V610H266.111V604.75H269.611ZM269.611 604.75V610H266.111V604.75H269.611ZM272.667 604.75V610H269.167V604.75H272.667ZM272.667 604.75V610H269.167V604.75H272.667ZM275.723 604.75V610H272.223V604.75H275.723ZM275.723 604.75V610H272.223V604.75H275.723ZM278.778 604.75V610H275.278V604.75H278.778ZM278.778 604.75V610H275.278V604.75H278.778ZM281.834 604.75V610H278.334V604.75H281.834ZM281.834 604.75V610H278.334V604.75H281.834ZM284.89 604.75V610H281.39V604.75H284.89ZM284.89 604.75V610H281.39V604.75H284.89ZM287.945 604.75V610H284.445V604.75H287.945ZM287.945 604.75V610H284.445V604.75H287.945ZM291.001 604.75V610H287.501V604.75H291.001ZM291.001 604.75V610H287.501V604.75H291.001ZM294.057 604.75V610H290.557V604.75H294.057ZM294.057 604.75V610H290.557V604.75H294.057ZM296.237 604.75V610H293.612V604.75H296.237ZM300.168 604.75V610H296.668V604.75H300.168ZM300.168 604.75V610H296.668V604.75H300.168ZM303.224 604.75V610H299.724V604.75H303.224ZM303.224 604.75V610H299.724V604.75H303.224ZM306.279 604.75V610H302.779V604.75H306.279ZM306.279 604.75V610H302.779V604.75H306.279ZM309.335 604.75V610H305.835V604.75H309.335ZM309.335 604.75V610H305.835V604.75H309.335ZM312.391 604.75V610H308.891V604.75H312.391ZM312.391 604.75V610H308.891V604.75H312.391ZM315.446 604.75V610H311.946V604.75H315.446ZM315.446 604.75V610H311.946V604.75H315.446ZM318.502 604.75V610H315.002V604.75H318.502ZM318.502 604.75V610H315.002V604.75H318.502ZM321.558 604.75V610H318.058V604.75H321.558ZM321.558 604.75V610H318.058V604.75H321.558ZM323.738 604.75V610H321.113V604.75H323.738ZM327.669 604.75V610H324.169V604.75H327.669ZM327.669 604.75V610H324.169V604.75H327.669ZM330.725 604.75V610H327.225V604.75H330.725ZM330.725 604.75V610H327.225V604.75H330.725ZM333.78 604.75V610H330.28V604.75H333.78ZM333.78 604.75V610H330.28V604.75H333.78ZM336.836 604.75V610H333.336V604.75H336.836ZM336.836 604.75V610H333.336V604.75H336.836ZM339.892 604.75V610H336.392V604.75H339.892ZM339.892 604.75V610H336.392V604.75H339.892ZM342.947 604.75V610H339.447V604.75H342.947ZM342.947 604.75V610H339.447V604.75H342.947ZM346.003 604.75V610H342.503V604.75H346.003ZM346.003 604.75V610H342.503V604.75H346.003ZM349.059 604.75V610H345.559V604.75H349.059ZM349.059 604.75V610H345.559V604.75H349.059ZM352.114 604.75V610H348.614V604.75H352.114ZM352.114 604.75V610H348.614V604.75H352.114ZM355.17 604.75V610H351.67V604.75H355.17ZM355.17 604.75V610H351.67V604.75H355.17ZM358.226 604.75V610H354.726V604.75H358.226ZM358.226 604.75V610H354.726V604.75H358.226ZM360.406 604.75V610H357.781V604.75H360.406ZM364.337 604.75V610H360.837V604.75H364.337ZM364.337 604.75V610H360.837V604.75H364.337ZM367.393 604.75V610H363.893V604.75H367.393ZM367.393 604.75V610H363.893V604.75H367.393ZM369.573 604.75V610H366.948V604.75H369.573ZM373.504 604.75V610H370.004V604.75H373.504ZM373.504 604.75V610H370.004V604.75H373.504ZM376.56 604.75V610H373.06V604.75H376.56ZM376.56 604.75V610H373.06V604.75H376.56ZM379.615 604.75V610H376.115V604.75H379.615ZM379.615 604.75V610H376.115V604.75H379.615ZM382.671 604.75V610H379.171V604.75H382.671ZM382.671 604.75V610H379.171V604.75H382.671Z" fill="#353340"/>
<defs>
<filter id="filter0_f_5_1486" x="0" y="0" width="292" height="742" filterUnits="userSpaceOnUse" color-interpolation-filters="sRGB">
<feFlood flood-opacity="0" result="BackgroundImageFix"/>
<feBlend mode="normal" in="SourceGraphic" in2="BackgroundImageFix" result="shape"/>
<feGaussianBlur stdDeviation="27" result="effect1_foregroundBlur_5_1486"/>
</filter>
<filter id="filter1_d_5_1486" x="141" y="17" width="518" height="685" filterUnits="userSpaceOnUse" color-interpolation-filters="sRGB">
<feFlood flood-opacity="0" result="BackgroundImageFix"/>
<feColorMatrix in="SourceAlpha" type="matrix" values="0 0 0 0 0 0 0 0 0 0 0 0 0 0 0 0 0 0 127 0" result="hardAlpha"/>
<feOffset dx="-14" dy="9"/>
<feGaussianBlur stdDeviation="17"/>
<feComposite in2="hardAlpha" operator="out"/>
<feColorMatrix type="matrix" values="0 0 0 0 0 0 0 0 0 0 0 0 0 0 0 0 0 0 0.25 0"/>
<feBlend mode="normal" in2="BackgroundImageFix" result="effect1_dropShadow_5_1486"/>
<feBlend mode="normal" in="SourceGraphic" in2="effect1_dropShadow_5_1486" result="shape"/>
</filter>
<linearGradient id="paint0_linear_5_1486" x1="54.6456" y1="429.49" x2="237.984" y2="426.892" gradientUnits="userSpaceOnUse">
<stop stop-opacity="0"/>
<stop offset="1" stop-opacity="0.79"/>
</linearGradient>
<linearGradient id="paint1_linear_5_1486" x1="219" y1="659" x2="189" y2="659" gradientUnits="userSpaceOnUse">
<stop stop-color="#292731"/>
<stop offset="0.260417" stop-color="#121116"/>
<stop offset="0.395833" stop-color="#17181E"/>
<stop offset="0.578125" stop-color="#313147"/>
<stop offset="0.833333" stop-color="#0E0F0E"/>
<stop offset="1" stop-color="#120F10"/>
</linearGradient>
</defs>
</svg>
