<svg width="620" height="909" viewBox="0 0 620 909" fill="none" xmlns="http://www.w3.org/2000/svg">
<path d="M603.79 29.4085L62.79 68.3506C54.9439 68.9154 48.8669 75.4455 48.8669 83.3119V805.434C48.8669 813.18 54.7644 819.652 62.4767 820.369L603.477 870.726C612.272 871.544 619.867 864.623 619.867 855.79V44.3698C619.867 35.6614 612.476 28.7832 603.79 29.4085Z" fill="#250958"/>
<path d="M603.79 29.4085L62.79 68.3506C54.9439 68.9154 48.8669 75.4455 48.8669 83.3119V805.434C48.8669 813.18 54.7644 819.652 62.4767 820.369L603.477 870.726C612.272 871.544 619.867 864.623 619.867 855.79V44.3698C619.867 35.6614 612.476 28.7832 603.79 29.4085Z" fill="url(#paint0_linear_205_998)"/>
<path d="M615.287 33.7494C615.287 33.7494 618.164 36.4609 619.104 39.6977C619.873 42.3488 619.842 43.1494 619.867 43.1303V856.226C619.867 856.226 619.575 858.596 619.104 860.041C618.206 862.791 615.287 866.39 615.287 866.39V33.7494Z" fill="url(#paint1_linear_205_998)"/>
<path d="M615.287 33.7494C615.287 33.7494 618.164 36.4609 619.104 39.6977C619.873 42.3488 619.842 43.1494 619.867 43.1303V856.226C619.867 856.226 619.575 858.596 619.104 860.041C618.206 862.791 615.287 866.39 615.287 866.39V33.7494Z" fill="url(#paint2_linear_205_998)"/>
<g filter="url(#filter0_d_205_998)">
<path d="M606 46L58 85.4458V804.992L606 856V46Z" fill="white"/>
<path d="M606 46L58 85.4458V804.992L606 856V46Z" stroke="#CBCBCB" stroke-width="1.52709"/>
</g>
<g filter="url(#filter1_d_205_998)">
<path d="M603 44L56 83.5919V805.804L603 857V44Z" fill="white"/>
<path d="M603 44L56 83.5919V805.804L603 857V44Z" stroke="#CBCBCB" stroke-width="1.52709"/>
</g>
<g filter="url(#filter2_d_205_998)">
<path d="M600 43L53 82.738V807.615L600 859V43Z" fill="white"/>
<path d="M600 43L53 82.738V807.615L600 859V43Z" stroke="#CBCBCB" stroke-width="1.52709"/>
</g>
<g filter="url(#filter3_d_205_998)">
<path d="M597 41L50 80.8841V808.426L597 860V41Z" fill="white"/>
<path d="M597 41L50 80.8841V808.426L597 860V41Z" stroke="#CBCBCB" stroke-width="1.52709"/>
</g>
<g filter="url(#filter4_d_205_998)">
<path d="M594 40L47 80.0302V810.237L594 862V40Z" fill="white"/>
<path d="M594 40L47 80.0302V810.237L594 862V40Z" stroke="#CBCBCB" stroke-width="1.52709"/>
</g>
<g filter="url(#filter5_d_205_998)">
<path d="M591 38L47 78.2737V812.922L591 865V38Z" fill="white"/>
<path d="M591 38L47 78.2737V812.922L591 865V38Z" stroke="#CBCBCB" stroke-width="1.52709"/>
</g>
<g filter="url(#filter6_d_205_998)">
<path d="M588 37L44 77.4685V815.67L588 868V37Z" fill="white"/>
<path d="M588 37L44 77.4685V815.67L588 868V37Z" stroke="#CBCBCB" stroke-width="1.52709"/>
</g>
<g filter="url(#filter7_d_205_998)">
<path d="M585 34L41 74.7607V818.292L585 871V34Z" fill="white"/>
<path d="M585 34L41 74.7607V818.292L585 871V34Z" stroke="#CBCBCB" stroke-width="1.52709"/>
</g>
<g filter="url(#filter8_d_205_998)">
<path d="M582 32L38 73.0042V820.977L582 874V32Z" fill="white"/>
<path d="M582 32L38 73.0042V820.977L582 874V32Z" stroke="#CBCBCB" stroke-width="1.52709"/>
</g>
<g filter="url(#filter9_d_205_998)">
<path d="M579 29L35 70.3938V825.474L579 879V29Z" fill="white"/>
<path d="M579 29L35 70.3938V825.474L579 879V29Z" stroke="#CBCBCB" stroke-width="1.52709"/>
</g>
<g filter="url(#filter10_d_205_998)">
<path d="M576 26L32 67.686V828.096L576 882V26Z" fill="white"/>
<path d="M576 26L32 67.686V828.096L576 882V26Z" stroke="#CBCBCB" stroke-width="1.52709"/>
</g>
<g filter="url(#filter11_d_205_998)">
<path d="M573 23L29 65.0269V831.655L573 886V23Z" fill="white"/>
<path d="M573 23L29 65.0269V831.655L573 886V23Z" stroke="#CBCBCB" stroke-width="1.52709"/>
</g>
<g filter="url(#filter12_d_205_998)">
<path d="M570 20L26 62.3191V834.277L570 889V20Z" fill="white"/>
<path d="M570 20L26 62.3191V834.277L570 889V20Z" stroke="#CBCBCB" stroke-width="1.52709"/>
</g>
<path d="M554.841 1.25276L13.8406 43.194C6.02945 43.7996 0 50.3146 0 58.1492V838.187C0 845.892 5.83737 852.343 13.5038 853.112L554.504 907.346C563.335 908.232 571 901.297 571 892.421V16.2079C571 7.46667 563.556 0.577125 554.841 1.25276Z" fill="#B388FF"/>
<path d="M554.841 1.25276L13.8406 43.194C6.02945 43.7996 0 50.3146 0 58.1492V838.187C0 845.892 5.83737 852.343 13.5038 853.112L554.504 907.346C563.335 908.232 571 901.297 571 892.421V16.2079C571 7.46667 563.556 0.577125 554.841 1.25276Z" fill="url(#paint3_linear_205_998)"/>
<path d="M560.443 1.94409C560.443 1.94409 566.83 4.50888 569.086 7.9923C570.934 10.8453 571.384 16.3347 571.443 16.3142V892.439C571.443 892.439 570.092 899.216 568.301 901.6C566.004 904.656 560.443 906.944 560.443 906.944V1.94409Z" fill="url(#paint4_linear_205_998)"/>
<path d="M560.443 1.94409C560.443 1.94409 566.83 4.50888 569.086 7.9923C570.934 10.8453 571.384 16.3347 571.443 16.3142V892.439C571.443 892.439 570.092 899.216 568.301 901.6C566.004 904.656 560.443 906.944 560.443 906.944V1.94409Z" fill="url(#paint5_linear_205_998)"/>
<path d="M103.076 797.715L94.7712 796.952L92.906 801.976L90.2103 801.728L97.78 782.517L100.067 782.728L107.65 803.331L104.968 803.084L103.076 797.715ZM95.5608 794.864L102.3 795.483L98.9236 785.863L95.5608 794.864ZM119.209 789.6L119.277 791.247C120.357 790.07 121.814 789.566 123.648 789.734C125.708 789.923 127.11 790.845 127.854 792.5C128.345 791.834 128.98 791.318 129.76 790.952C130.55 790.587 131.48 790.454 132.551 790.552C135.783 790.849 137.425 792.718 137.48 796.159V806.072L134.961 805.84V796.078C134.961 795.021 134.721 794.211 134.24 793.647C133.759 793.074 132.951 792.735 131.816 792.631C130.881 792.545 130.105 792.757 129.488 793.265C128.871 793.764 128.512 794.483 128.413 795.422V805.238L125.88 805.006V795.312C125.88 793.161 124.832 791.989 122.735 791.797C121.083 791.645 119.953 792.248 119.345 793.604V804.405L116.827 804.174V789.381L119.209 789.6ZM150.386 805.795C149.406 806.862 147.968 807.309 146.071 807.134C144.5 806.99 143.302 806.424 142.476 805.437C141.66 804.441 141.247 803.045 141.238 801.249V791.624L143.756 791.855V801.412C143.756 803.654 144.664 804.859 146.479 805.025C148.403 805.202 149.683 804.6 150.318 803.218V792.458L152.837 792.69V807.483L150.441 807.262L150.386 805.795ZM165.254 804.7C165.254 804.016 164.995 803.464 164.477 803.042C163.969 802.613 163.075 802.203 161.795 801.812C160.525 801.421 159.513 801 158.759 800.548C158.015 800.097 157.461 799.591 157.098 799.029C156.744 798.467 156.567 797.822 156.567 797.093C156.567 795.881 157.076 794.902 158.092 794.157C159.118 793.413 160.425 793.113 162.013 793.259C163.683 793.413 165.036 793.97 166.07 794.931C167.114 795.893 167.636 797.048 167.636 798.397L165.104 798.164C165.104 797.472 164.809 796.848 164.219 796.292C163.638 795.737 162.903 795.419 162.013 795.338C161.097 795.253 160.38 795.388 159.862 795.741C159.345 796.095 159.086 796.595 159.086 797.242C159.086 797.853 159.327 798.335 159.808 798.69C160.289 799.044 161.156 799.42 162.408 799.817C163.67 800.216 164.691 800.647 165.471 801.11C166.252 801.574 166.828 802.101 167.2 802.691C167.582 803.273 167.772 803.96 167.772 804.753C167.772 806.075 167.246 807.089 166.193 807.794C165.14 808.49 163.774 808.761 162.095 808.607C160.915 808.498 159.871 808.193 158.964 807.69C158.056 807.187 157.343 806.539 156.826 805.744C156.318 804.941 156.064 804.101 156.064 803.226L158.582 803.458C158.628 804.31 158.964 805.015 159.59 805.574C160.225 806.124 161.06 806.447 162.095 806.542C163.048 806.63 163.81 806.509 164.382 806.178C164.963 805.84 165.254 805.347 165.254 804.7ZM174.471 791.095V794.678L177.221 794.93V796.885L174.471 796.633V805.806C174.471 806.399 174.593 806.857 174.838 807.18C175.083 807.494 175.501 807.678 176.091 807.733C176.381 807.759 176.78 807.741 177.289 807.679V809.729C176.626 809.851 175.982 809.883 175.355 809.825C174.23 809.722 173.381 809.302 172.81 808.566C172.238 807.83 171.952 806.833 171.952 805.575V796.401L169.27 796.155V794.2L171.952 794.446V790.864L174.471 791.095ZM185.417 803.052L178.773 802.442V800.378L185.417 800.988V803.052ZM190.4 797.932C191.516 796.658 192.968 796.104 194.756 796.268C197.869 796.554 199.44 798.462 199.467 801.992V811.767L196.948 811.536V801.747C196.939 800.68 196.694 799.869 196.213 799.314C195.741 798.76 195.001 798.437 193.994 798.344C193.177 798.269 192.46 798.422 191.843 798.803C191.225 799.184 190.744 799.714 190.4 800.393V810.934L187.881 810.703V789.703L190.4 789.934V797.932ZM212.333 812.95C212.187 812.645 212.069 812.114 211.979 811.358C210.808 812.472 209.41 812.954 207.785 812.805C206.333 812.672 205.14 812.152 204.205 811.246C203.279 810.331 202.816 809.24 202.816 807.974C202.816 806.433 203.397 805.293 204.559 804.552C205.729 803.802 207.372 803.525 209.487 803.719L211.938 803.944V802.782C211.938 801.898 211.674 801.172 211.148 800.604C210.622 800.027 209.846 799.692 208.82 799.597C207.921 799.515 207.168 799.674 206.56 800.073C205.952 800.473 205.648 800.997 205.648 801.644L203.116 801.411C203.116 800.673 203.374 799.986 203.892 799.35C204.418 798.705 205.126 798.224 206.015 797.904C206.914 797.586 207.899 797.476 208.97 797.574C210.667 797.73 211.997 798.281 212.959 799.226C213.921 800.162 214.42 801.379 214.456 802.877V809.686C214.456 811.044 214.629 812.14 214.974 812.973V813.192L212.333 812.95ZM208.153 810.638C208.943 810.71 209.691 810.574 210.399 810.229C211.107 809.884 211.62 809.398 211.938 808.771V805.735L209.964 805.554C206.878 805.271 205.335 806.036 205.335 807.849C205.335 808.642 205.598 809.286 206.124 809.781C206.651 810.276 207.327 810.562 208.153 810.638ZM223.047 810.502L226.696 799.476L229.269 799.713L223.987 814.02L222.067 813.844L216.73 798.561L219.303 798.797L223.047 810.502ZM237.615 815.546C235.618 815.363 233.993 814.557 232.741 813.129C231.488 811.693 230.862 809.872 230.862 807.666V807.201C230.862 805.734 231.139 804.451 231.692 803.353C232.255 802.248 233.036 801.417 234.034 800.862C235.042 800.298 236.131 800.07 237.302 800.177C239.217 800.353 240.705 801.124 241.767 802.488C242.829 803.853 243.36 805.715 243.36 808.076V809.129L233.381 808.212C233.417 809.673 233.839 810.892 234.647 811.869C235.464 812.837 236.498 813.379 237.751 813.494C238.64 813.576 239.394 813.463 240.011 813.155C240.628 812.847 241.168 812.414 241.631 811.855L243.169 813.199C241.935 814.991 240.083 815.773 237.615 815.546ZM237.302 802.256C236.285 802.162 235.432 802.457 234.742 803.141C234.052 803.816 233.626 804.816 233.462 806.141L240.841 806.819V806.628C240.769 805.336 240.424 804.311 239.807 803.552C239.189 802.785 238.354 802.352 237.302 802.256ZM254.442 816.819V803.981L252.114 803.767V801.812L254.442 802.026V800.508C254.442 798.922 254.864 797.735 255.708 796.947C256.552 796.159 257.746 795.835 259.289 795.977C259.87 796.03 260.446 796.161 261.018 796.368L260.882 798.407C260.455 798.285 260.002 798.203 259.52 798.159C258.704 798.083 258.073 798.267 257.628 798.709C257.183 799.142 256.961 799.805 256.961 800.699V802.257L260.106 802.546V804.501L256.961 804.212V817.05L254.442 816.819ZM262.23 810.001C262.23 808.552 262.511 807.274 263.074 806.169C263.646 805.064 264.435 804.243 265.443 803.707C266.459 803.171 267.617 802.963 268.914 803.082C270.92 803.267 272.54 804.113 273.775 805.621C275.018 807.129 275.64 809.041 275.64 811.357V811.534C275.64 812.974 275.363 814.243 274.81 815.341C274.265 816.43 273.48 817.247 272.454 817.79C271.438 818.335 270.267 818.546 268.942 818.425C266.945 818.241 265.325 817.395 264.081 815.886C262.847 814.378 262.23 812.476 262.23 810.179V810.001ZM264.762 810.535C264.762 812.175 265.139 813.527 265.892 814.59C266.654 815.653 267.671 816.243 268.942 816.36C270.221 816.478 271.238 816.07 271.991 815.136C272.745 814.194 273.121 812.816 273.121 811.002C273.121 809.38 272.736 808.032 271.964 806.958C271.202 805.876 270.185 805.277 268.914 805.16C267.671 805.046 266.668 805.451 265.906 806.374C265.143 807.298 264.762 808.684 264.762 810.535ZM285.919 807.188C285.538 807.089 285.125 807.019 284.68 806.978C283.028 806.826 281.907 807.43 281.317 808.788V819.288L278.799 819.057V804.264L281.249 804.489L281.29 806.202C282.116 804.956 283.287 804.403 284.803 804.542C285.293 804.587 285.665 804.685 285.919 804.836V807.188ZM307.607 814.472C307.607 816.723 307.094 818.49 306.069 819.772C305.043 821.054 303.654 821.614 301.902 821.453C300.114 821.289 298.708 820.59 297.682 819.356V826.48L295.163 826.248V805.768L297.464 805.979L297.587 807.631C298.612 806.449 300.037 805.942 301.862 806.11C303.632 806.272 305.029 807.071 306.055 808.505C307.09 809.94 307.607 811.851 307.607 814.239V814.472ZM305.088 813.953C305.088 812.285 304.734 810.935 304.026 809.904C303.318 808.873 302.347 808.301 301.113 808.187C299.588 808.047 298.444 808.621 297.682 809.909V816.978C298.435 818.396 299.588 819.176 301.14 819.319C302.347 819.43 303.305 819.039 304.013 818.147C304.73 817.247 305.088 815.849 305.088 813.953ZM317.94 810.13C317.559 810.031 317.146 809.961 316.701 809.921C315.05 809.769 313.929 810.372 313.339 811.731V822.231L310.82 821.999V807.206L313.271 807.431L313.311 809.144C314.137 807.898 315.308 807.345 316.824 807.485C317.314 807.53 317.686 807.628 317.94 807.779V810.13ZM319.329 815.248C319.329 813.799 319.61 812.521 320.173 811.415C320.745 810.31 321.535 809.49 322.542 808.953C323.559 808.418 324.716 808.21 326.014 808.329C328.02 808.513 329.64 809.359 330.874 810.867C332.118 812.376 332.739 814.288 332.739 816.603V816.781C332.739 818.221 332.463 819.49 331.909 820.587C331.364 821.677 330.579 822.493 329.554 823.037C328.537 823.582 327.366 823.793 326.041 823.671C324.044 823.488 322.424 822.642 321.181 821.133C319.946 819.625 319.329 817.723 319.329 815.426V815.248ZM321.861 815.781C321.861 817.422 322.238 818.774 322.991 819.836C323.754 820.9 324.77 821.49 326.041 821.607C327.321 821.724 328.337 821.317 329.091 820.383C329.844 819.441 330.221 818.063 330.221 816.249C330.221 814.626 329.835 813.278 329.063 812.205C328.301 811.123 327.284 810.524 326.014 810.407C324.77 810.293 323.767 810.697 323.005 811.621C322.243 812.544 321.861 813.931 321.861 815.781ZM335.299 816.729C335.299 814.423 335.83 812.64 336.892 811.379C337.954 810.11 339.361 809.555 341.112 809.716C342.909 809.881 344.312 810.648 345.319 812.017L345.442 810.388L347.743 810.599V825.036C347.743 826.951 347.175 828.407 346.041 829.405C344.915 830.405 343.4 830.817 341.493 830.642C340.432 830.544 339.392 830.221 338.376 829.672C337.359 829.123 336.583 828.427 336.048 827.585L337.355 826.187C338.435 827.627 339.755 828.418 341.316 828.561C342.542 828.674 343.495 828.415 344.176 827.785C344.865 827.156 345.21 826.212 345.21 824.954V823.683C344.203 824.757 342.828 825.214 341.085 825.054C339.361 824.895 337.963 824.069 336.892 822.577C335.83 821.084 335.299 819.135 335.299 816.729ZM337.831 817.249C337.831 818.917 338.172 820.261 338.852 821.28C339.533 822.291 340.486 822.852 341.711 822.965C343.3 823.111 344.466 822.493 345.21 821.112V814.358C344.439 812.875 343.282 812.062 341.739 811.92C340.513 811.808 339.556 812.198 338.866 813.092C338.176 813.986 337.831 815.371 337.831 817.249ZM358.675 813.873C358.294 813.774 357.881 813.704 357.436 813.664C355.784 813.512 354.663 814.115 354.073 815.474V825.974L351.555 825.742V810.949L354.005 811.174L354.046 812.887C354.872 811.641 356.043 811.088 357.559 811.228C358.049 811.273 358.421 811.371 358.675 811.521V813.873ZM369.553 827.396C369.408 827.091 369.29 826.561 369.199 825.805C368.028 826.919 366.63 827.401 365.006 827.252C363.554 827.118 362.36 826.598 361.425 825.692C360.499 824.778 360.036 823.687 360.036 822.42C360.036 820.88 360.617 819.739 361.779 818.998C362.95 818.249 364.593 817.972 366.708 818.166L369.158 818.391V817.229C369.158 816.345 368.895 815.619 368.369 815.051C367.842 814.474 367.066 814.138 366.04 814.044C365.142 813.961 364.389 814.12 363.78 814.52C363.172 814.92 362.868 815.443 362.868 816.09L360.336 815.858C360.336 815.119 360.595 814.432 361.112 813.796C361.638 813.152 362.346 812.67 363.236 812.351C364.134 812.032 365.119 811.922 366.19 812.021C367.888 812.177 369.217 812.727 370.179 813.672C371.141 814.608 371.641 815.825 371.677 817.324V824.132C371.677 825.49 371.849 826.586 372.194 827.42V827.639L369.553 827.396ZM365.373 825.084C366.163 825.157 366.912 825.021 367.62 824.675C368.328 824.33 368.841 823.844 369.158 823.217V820.182L367.184 820.001C364.098 819.717 362.555 820.482 362.555 822.296C362.555 823.089 362.818 823.733 363.345 824.228C363.871 824.723 364.547 825.008 365.373 825.084ZM377.994 813.379L378.062 815.026C379.142 813.849 380.599 813.345 382.432 813.513C384.493 813.702 385.895 814.624 386.639 816.279C387.129 815.613 387.765 815.097 388.545 814.731C389.335 814.366 390.265 814.233 391.336 814.331C394.567 814.628 396.21 816.497 396.265 819.938V829.851L393.746 829.619V819.857C393.746 818.8 393.505 817.99 393.024 817.426C392.543 816.853 391.736 816.514 390.601 816.41C389.666 816.324 388.89 816.536 388.273 817.044C387.656 817.543 387.297 818.262 387.197 819.201V829.017L384.665 828.785V819.091C384.665 816.94 383.617 815.768 381.52 815.576C379.868 815.424 378.738 816.027 378.13 817.383V828.184L375.611 827.953V813.16L377.994 813.379ZM402.446 815.625L402.514 817.272C403.594 816.096 405.051 815.591 406.884 815.76C408.944 815.949 410.347 816.871 411.091 818.525C411.581 817.859 412.216 817.344 412.997 816.978C413.787 816.613 414.717 816.48 415.788 816.578C419.019 816.875 420.662 818.744 420.716 822.185V832.097L418.198 831.866V822.104C418.198 821.047 417.957 820.236 417.476 819.673C416.995 819.1 416.187 818.761 415.053 818.657C414.118 818.571 413.342 818.782 412.725 819.291C412.107 819.79 411.749 820.509 411.649 821.448V831.264L409.117 831.031V821.338C409.117 819.187 408.068 818.015 405.972 817.823C404.32 817.671 403.19 818.273 402.582 819.63V830.431L400.063 830.2V815.407L402.446 815.625ZM430.641 833.283C428.645 833.099 427.02 832.294 425.767 830.866C424.515 829.429 423.889 827.608 423.889 825.402V824.938C423.889 823.47 424.165 822.188 424.719 821.09C425.282 819.984 426.062 819.154 427.061 818.598C428.068 818.035 429.157 817.807 430.328 817.914C432.243 818.09 433.732 818.86 434.794 820.225C435.856 821.589 436.387 823.452 436.387 825.813V826.865L426.407 825.948C426.444 827.41 426.866 828.629 427.673 829.606C428.49 830.574 429.525 831.116 430.778 831.231C431.667 831.313 432.42 831.199 433.038 830.892C433.655 830.584 434.195 830.15 434.658 829.591L436.196 830.936C434.962 832.727 433.11 833.51 430.641 833.283ZM430.328 819.992C429.312 819.899 428.459 820.194 427.769 820.878C427.079 821.553 426.652 822.553 426.489 823.878L433.868 824.556V824.364C433.795 823.073 433.45 822.047 432.833 821.289C432.216 820.521 431.381 820.089 430.328 819.992ZM446.434 821.937C446.053 821.838 445.64 821.768 445.195 821.727C443.543 821.576 442.422 822.179 441.832 823.538V834.038L439.314 833.806V819.013L441.764 819.238L441.805 820.951C442.631 819.705 443.802 819.152 445.318 819.291C445.808 819.336 446.18 819.434 446.434 819.585V821.937ZM457.339 831.539C457.339 830.855 457.081 830.303 456.563 829.881C456.055 829.452 455.161 829.042 453.881 828.651C452.611 828.26 451.599 827.839 450.845 827.387C450.101 826.936 449.547 826.429 449.184 825.867C448.83 825.306 448.653 824.661 448.653 823.932C448.653 822.72 449.162 821.741 450.178 820.996C451.204 820.252 452.511 819.952 454.099 820.098C455.769 820.252 457.122 820.809 458.156 821.77C459.2 822.732 459.722 823.887 459.722 825.236L457.19 825.003C457.19 824.311 456.895 823.687 456.305 823.131C455.724 822.576 454.989 822.258 454.099 822.176C453.182 822.092 452.465 822.227 451.948 822.58C451.431 822.934 451.172 823.434 451.172 824.081C451.172 824.692 451.413 825.174 451.894 825.528C452.375 825.883 453.241 826.258 454.494 826.656C455.756 827.055 456.777 827.486 457.557 827.949C458.338 828.413 458.914 828.94 459.286 829.53C459.668 830.112 459.858 830.799 459.858 831.592C459.858 832.914 459.332 833.927 458.279 834.633C457.226 835.329 455.86 835.6 454.181 835.446C453.001 835.337 451.957 835.032 451.05 834.529C450.142 834.026 449.429 833.378 448.912 832.583C448.404 831.779 448.15 830.94 448.15 830.065L450.668 830.297C450.714 831.149 451.05 831.854 451.676 832.413C452.311 832.963 453.146 833.286 454.181 833.381C455.134 833.469 455.896 833.347 456.468 833.017C457.049 832.679 457.339 832.186 457.339 831.539Z" fill="white" fill-opacity="0.7"/>
<path d="M163.326 356.147V351.383L153.694 348.04L152.499 347.603L153.694 347.179L163.326 344.035V339.289L147.771 345.537V349.492L163.326 356.147ZM168.617 349.097V349.466C168.617 350.849 168.787 352.134 169.127 353.322C169.467 354.499 169.959 355.519 170.603 356.383C171.236 357.246 172.009 357.93 172.923 358.434C173.849 358.927 174.892 359.181 176.052 359.196C177.118 359.21 178.056 359.017 178.864 358.618C179.673 358.218 180.376 357.653 180.973 356.923L181.219 358.912L185.631 358.97V331.97L180.727 331.906V341.591C180.141 340.927 179.468 340.415 178.706 340.053C177.956 339.68 177.083 339.487 176.087 339.474C174.904 339.458 173.849 339.679 172.923 340.136C172.009 340.592 171.23 341.244 170.586 342.091C169.941 342.938 169.449 343.957 169.109 345.148C168.781 346.339 168.617 347.655 168.617 349.097ZM173.503 349.53V349.161C173.503 348.364 173.574 347.621 173.714 346.931C173.855 346.23 174.077 345.618 174.382 345.094C174.687 344.583 175.079 344.183 175.56 343.897C176.052 343.598 176.644 343.454 177.335 343.463C178.167 343.474 178.858 343.664 179.409 344.035C179.96 344.394 180.399 344.898 180.727 345.546V353.246C180.399 353.874 179.954 354.366 179.391 354.722C178.841 355.078 178.143 355.251 177.3 355.24C176.608 355.231 176.023 355.077 175.542 354.777C175.062 354.478 174.669 354.069 174.365 353.549C174.06 353.041 173.837 352.446 173.697 351.765C173.568 351.072 173.503 350.327 173.503 349.53ZM199.974 359.509C201.813 359.533 203.407 359.197 204.754 358.5C206.102 357.802 207.086 357.018 207.707 356.148L205.264 353.479C204.702 354.198 203.969 354.733 203.067 355.085C202.165 355.436 201.233 355.606 200.272 355.593C199.593 355.584 198.966 355.471 198.392 355.252C197.818 355.034 197.308 354.728 196.863 354.336C196.429 353.955 196.083 353.535 195.826 353.074C195.568 352.602 195.357 351.984 195.193 351.22V351.167L208.094 351.336V349.262C208.094 347.868 207.901 346.594 207.514 345.44C207.127 344.275 206.565 343.277 205.827 342.447C205.077 341.617 204.163 340.972 203.085 340.513C202.018 340.042 200.8 339.797 199.429 339.779C198.105 339.762 196.88 339.986 195.755 340.452C194.63 340.918 193.658 341.579 192.838 342.435C192.017 343.292 191.379 344.321 190.922 345.522C190.465 346.711 190.236 348.032 190.236 349.485V350.188C190.236 351.466 190.465 352.67 190.922 353.801C191.39 354.92 192.052 355.896 192.908 356.727C193.763 357.571 194.789 358.24 195.984 358.736C197.179 359.232 198.509 359.49 199.974 359.509ZM199.394 343.734C200.015 343.742 200.56 343.849 201.028 344.054C201.509 344.248 201.913 344.511 202.241 344.844C202.569 345.188 202.827 345.59 203.014 346.049C203.202 346.509 203.296 346.996 203.296 347.512V347.898L195.281 347.794C195.398 347.174 195.574 346.614 195.808 346.113C196.042 345.612 196.335 345.182 196.687 344.824C197.027 344.465 197.425 344.195 197.882 344.013C198.339 343.82 198.843 343.727 199.394 343.734ZM229.502 350.228V349.859C229.502 348.71 229.397 347.631 229.186 346.62C228.987 345.61 228.676 344.698 228.254 343.883C227.985 343.376 227.674 342.909 227.323 342.483C226.971 342.044 226.579 341.67 226.145 341.36C225.606 340.954 224.991 340.641 224.3 340.421C223.62 340.202 222.87 340.086 222.05 340.076C221.452 340.068 220.896 340.125 220.38 340.247C219.876 340.358 219.408 340.533 218.974 340.774C218.669 340.934 218.382 341.129 218.113 341.36C217.843 341.579 217.591 341.822 217.357 342.088V332.385L212.471 332.321V359.321L216.865 359.379L217.093 357.36C217.292 357.621 217.503 357.864 217.726 358.089C217.949 358.303 218.189 358.5 218.447 358.679C218.927 359.037 219.466 359.307 220.064 359.491C220.673 359.686 221.347 359.789 222.085 359.799C222.894 359.809 223.632 359.714 224.3 359.511C224.979 359.321 225.589 359.036 226.128 358.656C226.725 358.254 227.241 357.745 227.674 357.13C228.12 356.514 228.477 355.828 228.747 355.07C228.993 354.381 229.18 353.634 229.309 352.827C229.438 352.008 229.502 351.142 229.502 350.228ZM224.616 349.795V350.164C224.616 350.656 224.593 351.13 224.546 351.587C224.511 352.043 224.446 352.464 224.352 352.85C224.235 353.376 224.059 353.848 223.825 354.267C223.602 354.674 223.31 355.004 222.946 355.257C222.689 355.441 222.384 355.584 222.032 355.685C221.681 355.786 221.288 355.833 220.855 355.828C220.351 355.821 219.9 355.756 219.501 355.634C219.115 355.512 218.775 355.337 218.482 355.111C218.236 354.932 218.019 354.724 217.831 354.487C217.656 354.239 217.498 353.967 217.357 353.672V346.096C217.462 345.875 217.58 345.671 217.708 345.486C217.837 345.288 217.978 345.114 218.13 344.964C218.447 344.651 218.828 344.416 219.273 344.258C219.718 344.1 220.234 344.024 220.82 344.032C221.253 344.038 221.64 344.096 221.98 344.206C222.319 344.304 222.624 344.454 222.894 344.657C223.304 344.979 223.608 345.334 223.808 345.724C224.018 346.101 224.188 346.531 224.317 347.013C224.423 347.425 224.499 347.865 224.546 348.335C224.593 348.804 224.616 349.291 224.616 349.795ZM246.394 359.765L250.823 359.823V340.804L245.919 340.74V354.081C245.767 354.384 245.585 354.657 245.374 354.9C245.163 355.144 244.923 355.352 244.653 355.524C244.337 355.719 243.968 355.866 243.546 355.966C243.136 356.066 242.673 356.113 242.158 356.106C241.583 356.099 241.097 356.022 240.699 355.876C240.3 355.731 239.978 355.492 239.732 355.161C239.486 354.841 239.304 354.417 239.187 353.888C239.082 353.359 239.029 352.708 239.029 351.935V340.649L234.143 340.585V351.835C234.143 353.277 234.301 354.515 234.617 355.551C234.945 356.574 235.402 357.418 235.988 358.082C236.574 358.758 237.277 359.253 238.097 359.569C238.918 359.884 239.82 360.048 240.804 360.061C241.882 360.075 242.872 359.819 243.775 359.292C244.689 358.765 245.468 358.031 246.112 357.09L246.394 359.765ZM255.112 350.229V350.598C255.112 351.981 255.287 353.267 255.639 354.455C256.002 355.631 256.518 356.652 257.186 357.516C257.853 358.38 258.656 359.065 259.594 359.569C260.543 360.062 261.609 360.316 262.792 360.332C263.39 360.339 263.947 360.282 264.462 360.16C264.99 360.038 265.47 359.863 265.904 359.634C266.196 359.474 266.472 359.29 266.73 359.082C266.987 358.875 267.234 358.644 267.468 358.389V359.479C267.468 360.123 267.374 360.702 267.187 361.215C267.011 361.729 266.753 362.159 266.413 362.506C266.038 362.888 265.57 363.175 265.007 363.366C264.456 363.558 263.824 363.65 263.109 363.64C262.664 363.635 262.23 363.582 261.808 363.483C261.398 363.395 261 363.261 260.613 363.08C260.215 362.899 259.834 362.666 259.471 362.38C259.107 362.106 258.767 361.785 258.451 361.417L256.254 364.359C256.664 364.892 257.156 365.35 257.73 365.732C258.305 366.126 258.914 366.451 259.558 366.705C260.203 366.96 260.853 367.15 261.509 367.276C262.166 367.402 262.781 367.468 263.355 367.476C264.691 367.493 265.909 367.327 267.011 366.979C268.124 366.642 269.079 366.133 269.876 365.452C270.661 364.771 271.27 363.929 271.704 362.927C272.149 361.925 272.372 360.779 272.372 359.49V341.086L267.925 341.028L267.732 342.836C267.497 342.54 267.239 342.273 266.958 342.035C266.677 341.785 266.372 341.57 266.044 341.39C265.611 341.138 265.124 340.95 264.585 340.826C264.058 340.69 263.472 340.618 262.828 340.609C261.632 340.594 260.56 340.814 259.611 341.27C258.662 341.727 257.853 342.378 257.186 343.225C256.518 344.072 256.002 345.09 255.639 346.281C255.287 347.472 255.112 348.788 255.112 350.229ZM260.015 350.662V350.293C260.015 349.496 260.097 348.753 260.261 348.064C260.426 347.363 260.677 346.751 261.017 346.228C261.345 345.717 261.761 345.318 262.265 345.032C262.769 344.734 263.367 344.589 264.058 344.598C264.433 344.603 264.779 344.643 265.095 344.717C265.423 344.792 265.722 344.895 265.991 345.028C266.308 345.184 266.589 345.387 266.835 345.636C267.081 345.886 267.292 346.176 267.468 346.506V354.557C267.304 354.848 267.11 355.109 266.888 355.34C266.665 355.572 266.407 355.768 266.114 355.928C265.833 356.076 265.517 356.19 265.165 356.267C264.826 356.345 264.445 356.381 264.023 356.375C263.332 356.366 262.734 356.212 262.23 355.912C261.726 355.613 261.31 355.203 260.982 354.683C260.654 354.175 260.408 353.58 260.244 352.898C260.092 352.204 260.015 351.459 260.015 350.662ZM276.731 350.512V350.881C276.731 352.264 276.907 353.55 277.258 354.738C277.621 355.914 278.137 356.935 278.805 357.799C279.473 358.663 280.275 359.348 281.213 359.852C282.162 360.345 283.228 360.599 284.412 360.615C285.009 360.622 285.566 360.565 286.082 360.443C286.609 360.321 287.089 360.146 287.523 359.917C287.816 359.757 288.091 359.573 288.349 359.365C288.607 359.158 288.853 358.927 289.087 358.672V359.762C289.087 360.406 288.993 360.985 288.806 361.498C288.63 362.012 288.372 362.442 288.033 362.789C287.658 363.171 287.189 363.458 286.626 363.649C286.076 363.841 285.443 363.933 284.728 363.923C284.283 363.918 283.849 363.865 283.427 363.766C283.017 363.678 282.619 363.544 282.232 363.363C281.834 363.182 281.453 362.949 281.09 362.663C280.726 362.389 280.387 362.068 280.07 361.7L277.873 364.642C278.283 365.175 278.775 365.633 279.35 366.015C279.924 366.409 280.533 366.734 281.178 366.988C281.822 367.243 282.472 367.433 283.129 367.559C283.785 367.685 284.4 367.751 284.974 367.759C286.31 367.776 287.529 367.611 288.63 367.262C289.743 366.925 290.698 366.416 291.495 365.735C292.28 365.054 292.89 364.212 293.323 363.21C293.768 362.208 293.991 361.062 293.991 359.773V341.369L289.544 341.311L289.351 343.119C289.116 342.823 288.859 342.556 288.577 342.318C288.296 342.068 287.992 341.853 287.663 341.673C287.23 341.421 286.744 341.233 286.205 341.109C285.677 340.973 285.091 340.901 284.447 340.892C283.252 340.877 282.179 341.097 281.23 341.553C280.281 342.01 279.473 342.661 278.805 343.508C278.137 344.355 277.621 345.373 277.258 346.564C276.907 347.755 276.731 349.071 276.731 350.512ZM281.635 350.945V350.576C281.635 349.779 281.717 349.036 281.881 348.347C282.045 347.646 282.297 347.034 282.636 346.511C282.965 346 283.381 345.601 283.884 345.315C284.388 345.017 284.986 344.872 285.677 344.881C286.052 344.886 286.398 344.926 286.714 345C287.042 345.075 287.341 345.178 287.611 345.311C287.927 345.467 288.208 345.67 288.454 345.919C288.7 346.169 288.911 346.459 289.087 346.789V354.84C288.923 355.131 288.73 355.392 288.507 355.623C288.284 355.855 288.027 356.051 287.734 356.211C287.452 356.36 287.136 356.473 286.785 356.55C286.445 356.628 286.064 356.664 285.642 356.658C284.951 356.649 284.353 356.495 283.849 356.195C283.345 355.896 282.929 355.486 282.601 354.966C282.273 354.458 282.027 353.863 281.863 353.181C281.711 352.487 281.635 351.742 281.635 350.945ZM300.143 341.449V345.44L305.556 345.511V356.567L300.143 356.496V360.469L315.645 360.672V356.699L310.495 356.632V341.585L300.143 341.449ZM305.205 336.647C305.205 337.022 305.269 337.374 305.398 337.704C305.539 338.022 305.732 338.294 305.978 338.52C306.224 338.758 306.517 338.943 306.857 339.076C307.209 339.21 307.595 339.279 308.017 339.285C308.884 339.296 309.57 339.065 310.074 338.591C310.589 338.106 310.847 337.482 310.847 336.72C310.847 335.959 310.589 335.334 310.074 334.847C309.57 334.348 308.884 334.093 308.017 334.082C307.595 334.076 307.209 334.136 306.857 334.26C306.517 334.384 306.224 334.556 305.978 334.776C305.732 335.007 305.539 335.286 305.398 335.612C305.269 335.927 305.205 336.272 305.205 336.647ZM320.461 360.735L325.365 360.799V347.282C325.529 347.026 325.711 346.794 325.91 346.586C326.109 346.377 326.332 346.199 326.578 346.049C326.883 345.842 327.228 345.689 327.615 345.588C328.013 345.488 328.447 345.441 328.916 345.447C329.478 345.455 329.982 345.52 330.427 345.643C330.873 345.754 331.253 345.952 331.57 346.238C331.886 346.523 332.126 346.913 332.29 347.407C332.466 347.89 332.554 348.507 332.554 349.257V360.893L337.44 360.957V349.25C337.44 347.867 337.276 346.693 336.948 345.728C336.632 344.751 336.187 343.949 335.612 343.32C335.027 342.703 334.335 342.249 333.538 341.957C332.742 341.665 331.863 341.513 330.902 341.501C330.152 341.491 329.443 341.587 328.775 341.789C328.107 341.991 327.492 342.288 326.93 342.679C326.601 342.909 326.291 343.169 325.998 343.458C325.705 343.747 325.436 344.066 325.189 344.414L324.891 341.773L320.461 341.715V360.735ZM341.588 351.361V351.73C341.588 353.113 341.764 354.399 342.116 355.587C342.479 356.763 342.995 357.784 343.663 358.648C344.33 359.512 345.133 360.197 346.071 360.701C347.02 361.194 348.086 361.448 349.269 361.464C349.867 361.471 350.424 361.414 350.939 361.292C351.467 361.17 351.947 360.995 352.381 360.766C352.673 360.606 352.949 360.422 353.207 360.214C353.464 360.007 353.71 359.776 353.945 359.521V360.611C353.945 361.255 353.851 361.834 353.664 362.347C353.488 362.861 353.23 363.291 352.89 363.638C352.515 364.02 352.047 364.307 351.484 364.499C350.933 364.691 350.301 364.782 349.586 364.772C349.141 364.767 348.707 364.714 348.285 364.615C347.875 364.527 347.477 364.393 347.09 364.212C346.692 364.031 346.311 363.798 345.947 363.512C345.584 363.238 345.244 362.917 344.928 362.549L342.731 365.491C343.141 366.024 343.633 366.482 344.207 366.864C344.782 367.258 345.391 367.583 346.035 367.837C346.68 368.092 347.33 368.282 347.986 368.408C348.643 368.534 349.258 368.6 349.832 368.608C351.168 368.625 352.386 368.46 353.488 368.111C354.601 367.774 355.556 367.265 356.353 366.584C357.138 365.903 357.747 365.061 358.181 364.059C358.626 363.057 358.849 361.911 358.849 360.622V342.218L354.402 342.16L354.208 343.968C353.974 343.672 353.716 343.405 353.435 343.167C353.154 342.917 352.849 342.702 352.521 342.522C352.088 342.27 351.601 342.082 351.062 341.958C350.535 341.822 349.949 341.75 349.305 341.741C348.109 341.726 347.037 341.946 346.088 342.402C345.139 342.859 344.33 343.51 343.663 344.357C342.995 345.204 342.479 346.222 342.116 347.413C341.764 348.604 341.588 349.92 341.588 351.361ZM346.492 351.794V351.425C346.492 350.628 346.574 349.885 346.738 349.196C346.902 348.495 347.154 347.883 347.494 347.36C347.822 346.849 348.238 346.45 348.742 346.164C349.246 345.866 349.844 345.721 350.535 345.73C350.91 345.735 351.256 345.775 351.572 345.849C351.9 345.924 352.199 346.027 352.468 346.16C352.785 346.316 353.066 346.519 353.312 346.769C353.558 347.018 353.769 347.308 353.945 347.638V355.689C353.781 355.98 353.587 356.241 353.365 356.472C353.142 356.704 352.884 356.9 352.591 357.06C352.31 357.209 351.994 357.322 351.642 357.399C351.302 357.477 350.922 357.513 350.5 357.507C349.808 357.498 349.211 357.344 348.707 357.044C348.203 356.745 347.787 356.335 347.459 355.815C347.131 355.307 346.885 354.712 346.721 354.03C346.569 353.337 346.492 352.591 346.492 351.794ZM391.26 363.859L400.839 336.193L396.287 336.134L386.708 363.799L391.26 363.859ZM407.29 359.358L423.109 353.114V349.124L407.29 342.483V347.211L417.379 350.666L418.433 351.031L417.361 351.369L407.29 354.612V359.358ZM152.939 405.542L156.208 405.585V389.079L163.537 389.175V386.661L156.208 386.565V385.229C156.208 384.432 156.307 383.736 156.507 383.141C156.718 382.547 157.022 382.064 157.421 381.694C157.796 381.336 158.264 381.073 158.827 380.904C159.401 380.724 160.057 380.639 160.795 380.649C161.522 380.658 162.202 380.732 162.834 380.869C163.479 380.994 164.041 381.142 164.522 381.313L164.908 378.628C164.604 378.542 164.305 378.468 164.012 378.406C163.719 378.332 163.426 378.263 163.133 378.201C162.688 378.113 162.237 378.043 161.78 377.99C161.323 377.925 160.86 377.89 160.391 377.884C159.266 377.869 158.247 378.014 157.333 378.318C156.419 378.623 155.64 379.081 154.995 379.694C154.339 380.306 153.829 381.073 153.466 381.994C153.114 382.904 152.939 383.968 152.939 385.187V386.522L147.701 386.454V388.968L152.939 389.036V405.542ZM168.793 396.064V396.451C168.793 397.822 168.992 399.096 169.39 400.273C169.789 401.45 170.363 402.477 171.113 403.354C171.851 404.231 172.753 404.922 173.82 405.429C174.898 405.935 176.11 406.197 177.458 406.215C178.794 406.232 179.995 406.002 181.061 405.523C182.128 405.045 183.036 404.377 183.786 403.52C184.524 402.662 185.092 401.65 185.491 400.484C185.889 399.317 186.088 398.048 186.088 396.677V396.29C186.088 394.919 185.889 393.645 185.491 392.468C185.092 391.279 184.524 390.246 183.786 389.37C183.036 388.493 182.122 387.801 181.044 387.295C179.977 386.777 178.77 386.509 177.423 386.491C176.087 386.474 174.886 386.71 173.82 387.2C172.753 387.678 171.851 388.346 171.113 389.204C170.363 390.061 169.789 391.079 169.39 392.257C168.992 393.424 168.793 394.693 168.793 396.064ZM172.044 396.493V396.107C172.044 395.181 172.156 394.297 172.378 393.457C172.601 392.604 172.941 391.859 173.398 391.22C173.843 390.581 174.4 390.079 175.068 389.713C175.735 389.335 176.521 389.151 177.423 389.163C178.325 389.175 179.11 389.379 179.778 389.774C180.458 390.158 181.026 390.675 181.483 391.326C181.928 391.976 182.262 392.731 182.485 393.589C182.719 394.436 182.836 395.322 182.836 396.248V396.635C182.836 397.572 182.725 398.467 182.502 399.32C182.28 400.16 181.946 400.9 181.501 401.539C181.044 402.177 180.475 402.68 179.796 403.046C179.128 403.412 178.349 403.589 177.458 403.578C176.556 403.566 175.765 403.368 175.085 402.984C174.406 402.6 173.843 402.083 173.398 401.433C172.941 400.782 172.601 400.034 172.378 399.187C172.156 398.329 172.044 397.431 172.044 396.493ZM203.788 386.837C202.405 386.818 201.169 387.107 200.079 387.702C199.001 388.286 198.075 389.094 197.302 390.127L197.284 389.652L197.144 387.101L194.05 387.061V406.08L197.32 406.123V393.924C197.531 393.341 197.794 392.817 198.111 392.352C198.439 391.876 198.819 391.477 199.253 391.154C199.733 390.785 200.296 390.512 200.94 390.332C201.585 390.142 202.305 390.052 203.102 390.062C203.723 390.07 204.315 390.113 204.878 390.191C205.452 390.257 206.055 390.364 206.688 390.513L207.127 387.337C206.799 387.192 206.307 387.075 205.651 386.984C205.006 386.894 204.385 386.844 203.788 386.837ZM247.061 406.774L250.454 406.819V406.537C250.243 406.007 250.079 405.39 249.962 404.685C249.844 403.969 249.786 403.294 249.786 402.661V393.82C249.786 392.753 249.592 391.819 249.206 391.017C248.819 390.215 248.292 389.54 247.624 388.992C246.944 388.456 246.142 388.053 245.216 387.783C244.29 387.502 243.288 387.354 242.21 387.34C241.027 387.324 239.966 387.474 239.029 387.79C238.103 388.106 237.318 388.524 236.674 389.042C236.017 389.573 235.514 390.17 235.162 390.833C234.822 391.497 234.646 392.174 234.635 392.865L237.904 392.908C237.904 392.51 237.998 392.13 238.185 391.769C238.384 391.397 238.66 391.078 239.011 390.813C239.363 390.548 239.791 390.337 240.294 390.18C240.81 390.022 241.39 389.948 242.035 389.956C242.726 389.965 243.347 390.061 243.898 390.244C244.46 390.428 244.935 390.68 245.321 391.001C245.708 391.335 246.007 391.731 246.218 392.191C246.429 392.651 246.534 393.168 246.534 393.742V395.236L242.984 395.189C241.66 395.172 240.458 395.285 239.38 395.529C238.314 395.773 237.4 396.148 236.638 396.653C235.877 397.171 235.285 397.819 234.863 398.599C234.453 399.379 234.248 400.29 234.248 401.333C234.248 402.13 234.4 402.876 234.705 403.571C235.021 404.255 235.467 404.847 236.041 405.347C236.603 405.858 237.289 406.265 238.097 406.569C238.918 406.873 239.832 407.031 240.839 407.044C241.46 407.052 242.046 406.996 242.597 406.874C243.148 406.752 243.669 406.583 244.161 406.367C244.642 406.151 245.081 405.899 245.48 405.611C245.89 405.323 246.259 405.018 246.587 404.694C246.622 405.093 246.675 405.48 246.745 405.856C246.827 406.22 246.933 406.526 247.061 406.774ZM241.314 404.22C240.681 404.212 240.125 404.123 239.644 403.952C239.164 403.782 238.765 403.548 238.449 403.251C238.132 402.966 237.892 402.623 237.728 402.222C237.576 401.822 237.5 401.387 237.5 400.918C237.5 400.426 237.588 399.988 237.763 399.604C237.951 399.219 238.22 398.889 238.572 398.612C239.064 398.22 239.726 397.936 240.558 397.759C241.402 397.571 242.386 397.484 243.511 397.499L246.534 397.539V401.388C246.347 401.761 246.089 402.121 245.761 402.468C245.433 402.804 245.046 403.103 244.601 403.367C244.144 403.63 243.64 403.841 243.089 403.998C242.538 404.154 241.947 404.229 241.314 404.22ZM272.301 397.806V397.437C272.301 396.44 272.219 395.496 272.055 394.603C271.891 393.699 271.651 392.875 271.335 392.133C271.03 391.473 270.679 390.876 270.28 390.344C269.882 389.799 269.431 389.336 268.927 388.955C268.364 388.549 267.737 388.23 267.046 387.999C266.355 387.767 265.599 387.646 264.779 387.635C264.122 387.626 263.513 387.683 262.951 387.804C262.388 387.926 261.873 388.107 261.404 388.347C261.029 388.541 260.677 388.777 260.349 389.054C260.021 389.319 259.722 389.62 259.453 389.956V379.936L256.201 379.894V406.894L259.189 406.933L259.347 404.773C259.558 405.045 259.781 405.294 260.015 405.52C260.25 405.746 260.496 405.954 260.754 406.145C261.293 406.527 261.896 406.822 262.564 407.03C263.244 407.238 263.994 407.347 264.814 407.358C265.529 407.367 266.191 407.288 266.8 407.12C267.421 406.953 267.989 406.714 268.505 406.404C269.22 405.957 269.829 405.391 270.333 404.706C270.848 404.009 271.264 403.224 271.581 402.349C271.815 401.684 271.991 400.972 272.108 400.211C272.237 399.44 272.301 398.638 272.301 397.806ZM269.05 397.394V397.763C269.05 398.326 269.015 398.876 268.944 399.414C268.874 399.952 268.763 400.455 268.61 400.921C268.423 401.54 268.171 402.099 267.855 402.599C267.538 403.099 267.146 403.51 266.677 403.832C266.325 404.085 265.927 404.279 265.482 404.414C265.036 404.537 264.544 404.595 264.005 404.588C263.443 404.58 262.927 404.503 262.459 404.357C261.99 404.198 261.568 403.982 261.193 403.707C260.818 403.433 260.484 403.118 260.191 402.762C259.91 402.395 259.664 402 259.453 401.575V393.261C259.652 392.841 259.892 392.458 260.174 392.11C260.467 391.75 260.8 391.438 261.175 391.174C261.539 390.921 261.955 390.727 262.423 390.592C262.892 390.446 263.408 390.377 263.97 390.384C264.486 390.391 264.954 390.456 265.376 390.578C265.798 390.701 266.179 390.87 266.519 391.085C267.011 391.385 267.427 391.795 267.767 392.315C268.106 392.835 268.382 393.407 268.593 394.031C268.745 394.536 268.856 395.077 268.927 395.652C269.009 396.216 269.05 396.796 269.05 397.394ZM290.441 402.297C290.441 402.602 290.382 402.888 290.265 403.156C290.148 403.424 289.978 403.668 289.755 403.888C289.392 404.246 288.888 404.527 288.243 404.729C287.599 404.92 286.843 405.01 285.976 404.998C285.425 404.991 284.869 404.925 284.306 404.801C283.744 404.676 283.234 404.47 282.777 404.183C282.308 403.896 281.916 403.521 281.599 403.06C281.295 402.599 281.119 402.034 281.072 401.366L277.82 401.323C277.82 402.132 278.002 402.914 278.365 403.668C278.74 404.423 279.279 405.086 279.982 405.658C280.674 406.241 281.523 406.715 282.531 407.08C283.539 407.433 284.687 407.618 285.976 407.635C287.101 407.65 288.138 407.529 289.087 407.272C290.036 407.014 290.851 406.644 291.53 406.161C292.21 405.678 292.737 405.093 293.112 404.406C293.499 403.72 293.692 402.955 293.692 402.111C293.692 401.326 293.522 400.632 293.182 400.03C292.854 399.428 292.374 398.895 291.741 398.429C291.108 397.976 290.329 397.585 289.403 397.256C288.478 396.916 287.429 396.615 286.257 396.354C285.367 396.166 284.629 395.975 284.043 395.78C283.468 395.585 283.011 395.368 282.672 395.129C282.32 394.89 282.074 394.623 281.933 394.328C281.793 394.033 281.723 393.699 281.723 393.324C281.723 392.96 281.81 392.61 281.986 392.272C282.162 391.935 282.426 391.639 282.777 391.386C283.117 391.133 283.545 390.933 284.06 390.788C284.587 390.642 285.197 390.574 285.888 390.583C286.556 390.592 287.154 390.693 287.681 390.888C288.22 391.082 288.677 391.335 289.052 391.644C289.427 391.954 289.72 392.309 289.931 392.71C290.142 393.1 290.247 393.5 290.247 393.91L293.499 393.952C293.499 393.12 293.317 392.344 292.954 391.625C292.602 390.894 292.099 390.254 291.442 389.707C290.786 389.159 289.989 388.727 289.052 388.41C288.115 388.093 287.06 387.927 285.888 387.911C284.798 387.897 283.797 388.03 282.883 388.311C281.98 388.593 281.201 388.981 280.545 389.476C279.889 389.971 279.379 390.557 279.016 391.231C278.652 391.895 278.471 392.613 278.471 393.386C278.471 394.172 278.647 394.865 278.998 395.468C279.35 396.058 279.848 396.574 280.492 397.016C281.125 397.47 281.887 397.861 282.777 398.189C283.679 398.517 284.675 398.8 285.765 399.037C286.656 399.224 287.4 399.433 287.997 399.664C288.595 399.882 289.075 400.123 289.439 400.386C289.802 400.648 290.06 400.939 290.212 401.257C290.364 401.564 290.441 401.91 290.441 402.297ZM298.508 397.762V398.149C298.508 399.52 298.707 400.794 299.106 401.971C299.504 403.148 300.078 404.175 300.828 405.052C301.567 405.929 302.469 406.621 303.535 407.127C304.613 407.633 305.826 407.895 307.173 407.913C308.509 407.93 309.71 407.7 310.777 407.221C311.843 406.743 312.751 406.075 313.501 405.218C314.239 404.361 314.808 403.348 315.206 402.182C315.604 401.015 315.804 399.746 315.804 398.375V397.988C315.804 396.617 315.604 395.343 315.206 394.166C314.808 392.977 314.239 391.945 313.501 391.068C312.751 390.191 311.837 389.499 310.759 388.993C309.693 388.475 308.486 388.207 307.138 388.189C305.802 388.172 304.601 388.408 303.535 388.898C302.469 389.376 301.567 390.044 300.828 390.902C300.078 391.759 299.504 392.777 299.106 393.955C298.707 395.122 298.508 396.391 298.508 397.762ZM301.76 398.191V397.805C301.76 396.879 301.871 395.996 302.094 395.155C302.316 394.302 302.656 393.557 303.113 392.918C303.559 392.279 304.115 391.777 304.783 391.411C305.451 391.033 306.236 390.85 307.138 390.861C308.041 390.873 308.826 391.077 309.494 391.472C310.173 391.856 310.742 392.373 311.198 393.024C311.644 393.674 311.978 394.429 312.2 395.287C312.435 396.134 312.552 397.02 312.552 397.946V398.333C312.552 399.27 312.441 400.165 312.218 401.018C311.995 401.859 311.661 402.598 311.216 403.237C310.759 403.876 310.191 404.378 309.511 404.744C308.843 405.11 308.064 405.288 307.173 405.276C306.271 405.264 305.48 405.066 304.801 404.682C304.121 404.298 303.559 403.781 303.113 403.131C302.656 402.48 302.316 401.732 302.094 400.885C301.871 400.027 301.76 399.129 301.76 398.191ZM321.551 380.749V383.579L328.019 383.664V405.021L321.551 404.937V407.749L337.476 407.958V405.145L331.271 405.064V380.876L321.551 380.749ZM355.193 408.19L358.146 408.228V389.209L354.876 389.166V402.807C354.701 403.214 354.478 403.592 354.208 403.94C353.951 404.277 353.646 404.566 353.294 404.807C352.873 405.107 352.375 405.34 351.8 405.509C351.226 405.665 350.576 405.739 349.849 405.729C349.228 405.721 348.678 405.632 348.197 405.461C347.729 405.291 347.33 404.999 347.002 404.584C346.674 404.182 346.428 403.639 346.264 402.958C346.1 402.276 346.018 401.419 346.018 400.388V389.05L342.766 389.007V400.31C342.766 401.728 342.918 402.949 343.223 403.972C343.539 404.984 343.985 405.822 344.559 406.486C345.133 407.15 345.824 407.645 346.633 407.972C347.441 408.287 348.344 408.452 349.34 408.465C350.582 408.481 351.677 408.237 352.627 407.734C353.576 407.219 354.367 406.497 354.999 405.568L355.193 408.19ZM371.978 384.784L368.709 384.742V389.347L363.717 389.282V391.795L368.709 391.861V402.197C368.709 403.369 368.862 404.372 369.166 405.208C369.483 406.033 369.91 406.707 370.449 407.229C370.988 407.764 371.621 408.159 372.348 408.414C373.086 408.658 373.877 408.786 374.72 408.797C375.224 408.803 375.728 408.787 376.232 408.746C376.748 408.706 377.234 408.642 377.691 408.554C378.148 408.478 378.57 408.384 378.956 408.272C379.343 408.148 379.671 408.006 379.941 407.846L379.484 405.537C379.284 405.581 379.027 405.636 378.71 405.703C378.406 405.757 378.078 405.811 377.726 405.865C377.363 405.919 376.994 405.967 376.619 406.009C376.244 406.039 375.88 406.052 375.529 406.048C375.048 406.041 374.591 405.977 374.158 405.854C373.736 405.731 373.361 405.521 373.033 405.224C372.705 404.938 372.447 404.554 372.26 404.071C372.072 403.588 371.978 402.978 371.978 402.239V391.904L379.22 391.998V389.485L371.978 389.39V384.784ZM394.301 409.053C396.152 409.077 397.705 408.729 398.959 408.007C400.224 407.273 401.173 406.43 401.806 405.478L399.82 403.905C399.222 404.67 398.472 405.282 397.57 405.739C396.668 406.195 395.637 406.416 394.477 406.401C393.598 406.39 392.795 406.215 392.069 405.877C391.342 405.54 390.721 405.081 390.205 404.5C389.702 403.954 389.303 403.328 389.01 402.621C388.729 401.914 388.547 401.097 388.465 400.17V400.047L402.052 400.225V398.766C402.052 397.442 401.882 396.209 401.542 395.068C401.214 393.927 400.71 392.93 400.031 392.077C399.351 391.236 398.496 390.575 397.465 390.093C396.445 389.599 395.25 389.343 393.879 389.325C392.789 389.311 391.723 389.519 390.68 389.951C389.649 390.383 388.729 391.01 387.92 391.831C387.1 392.664 386.444 393.687 385.952 394.899C385.46 396.1 385.214 397.467 385.214 399.003V399.741C385.214 401.065 385.436 402.293 385.882 403.423C386.327 404.554 386.948 405.535 387.745 406.366C388.541 407.197 389.496 407.848 390.61 408.319C391.735 408.791 392.965 409.036 394.301 409.053ZM393.879 391.997C394.711 392.008 395.426 392.169 396.023 392.482C396.633 392.795 397.136 393.2 397.535 393.697C397.933 394.194 398.244 394.784 398.466 395.467C398.689 396.138 398.8 396.766 398.8 397.352V397.51L388.571 397.377C388.7 396.499 388.922 395.729 389.239 395.065C389.567 394.39 389.965 393.821 390.434 393.358C390.903 392.907 391.43 392.568 392.016 392.342C392.602 392.103 393.223 391.988 393.879 391.997ZM207.444 443.957V443.588C207.444 442.591 207.362 441.647 207.198 440.754C207.034 439.85 206.793 439.026 206.477 438.284C206.172 437.624 205.821 437.027 205.422 436.495C205.024 435.95 204.573 435.487 204.069 435.106C203.507 434.7 202.88 434.381 202.188 434.15C201.497 433.918 200.741 433.797 199.921 433.786C199.265 433.777 198.655 433.834 198.093 433.955C197.531 434.077 197.015 434.258 196.546 434.498C196.171 434.692 195.82 434.928 195.492 435.205C195.164 435.47 194.865 435.771 194.595 436.107V426.087L191.344 426.045V453.045L194.332 453.084L194.49 450.924C194.701 451.196 194.923 451.445 195.158 451.671C195.392 451.897 195.638 452.105 195.896 452.296C196.435 452.678 197.038 452.973 197.706 453.181C198.386 453.389 199.136 453.498 199.956 453.509C200.671 453.518 201.333 453.439 201.942 453.271C202.563 453.104 203.132 452.865 203.647 452.555C204.362 452.108 204.971 451.541 205.475 450.857C205.991 450.16 206.407 449.375 206.723 448.5C206.957 447.835 207.133 447.123 207.25 446.362C207.379 445.591 207.444 444.789 207.444 443.957ZM204.192 443.545V443.914C204.192 444.477 204.157 445.027 204.087 445.565C204.016 446.103 203.905 446.606 203.753 447.072C203.565 447.691 203.313 448.25 202.997 448.75C202.68 449.25 202.288 449.661 201.819 449.983C201.468 450.236 201.069 450.43 200.624 450.565C200.179 450.688 199.687 450.746 199.148 450.739C198.585 450.731 198.07 450.654 197.601 450.508C197.132 450.349 196.71 450.133 196.335 449.858C195.96 449.584 195.626 449.269 195.333 448.913C195.052 448.546 194.806 448.151 194.595 447.726V439.412C194.794 438.992 195.035 438.609 195.316 438.261C195.609 437.901 195.943 437.589 196.318 437.325C196.681 437.072 197.097 436.878 197.566 436.743C198.034 436.597 198.55 436.528 199.112 436.535C199.628 436.542 200.097 436.607 200.519 436.729C200.94 436.852 201.321 437.021 201.661 437.236C202.153 437.536 202.569 437.946 202.909 438.466C203.249 438.986 203.524 439.558 203.735 440.182C203.887 440.687 203.999 441.228 204.069 441.803C204.151 442.367 204.192 442.947 204.192 443.545ZM221.347 453.789C223.198 453.813 224.751 453.464 226.005 452.743C227.27 452.009 228.219 451.166 228.852 450.213L226.866 448.641C226.268 449.406 225.518 450.017 224.616 450.474C223.714 450.931 222.683 451.152 221.523 451.137C220.644 451.126 219.841 450.951 219.115 450.613C218.388 450.276 217.767 449.816 217.251 449.235C216.748 448.69 216.349 448.063 216.056 447.357C215.775 446.65 215.593 445.833 215.511 444.906V444.783L229.098 444.961V443.502C229.098 442.178 228.928 440.945 228.588 439.804C228.26 438.663 227.756 437.666 227.077 436.813C226.397 435.972 225.542 435.311 224.511 434.829C223.491 434.335 222.296 434.079 220.925 434.061C219.835 434.047 218.769 434.255 217.726 434.687C216.695 435.119 215.775 435.745 214.967 436.567C214.146 437.4 213.49 438.423 212.998 439.635C212.506 440.835 212.26 442.203 212.26 443.738V444.477C212.26 445.801 212.482 447.028 212.928 448.159C213.373 449.29 213.994 450.271 214.791 451.102C215.588 451.932 216.543 452.584 217.656 453.055C218.781 453.527 220.011 453.772 221.347 453.789ZM220.925 436.733C221.757 436.744 222.472 436.905 223.069 437.218C223.679 437.531 224.183 437.936 224.581 438.433C224.979 438.93 225.29 439.52 225.512 440.203C225.735 440.874 225.846 441.502 225.846 442.088V442.246L215.617 442.112C215.746 441.235 215.968 440.465 216.285 439.801C216.613 439.126 217.011 438.557 217.48 438.094C217.949 437.643 218.476 437.304 219.062 437.078C219.648 436.839 220.269 436.724 220.925 436.733ZM233.967 443.935V444.304C233.967 445.663 234.143 446.937 234.494 448.125C234.846 449.302 235.35 450.328 236.006 451.204C236.65 452.079 237.441 452.769 238.379 453.274C239.316 453.778 240.365 454.038 241.525 454.053C242.216 454.062 242.861 453.995 243.458 453.85C244.056 453.717 244.601 453.519 245.093 453.256C245.409 453.085 245.702 452.883 245.972 452.652C246.253 452.422 246.517 452.167 246.763 451.889V453.524C246.763 454.344 246.645 455.069 246.411 455.699C246.177 456.329 245.843 456.852 245.409 457.268C244.964 457.696 244.431 458.017 243.81 458.232C243.189 458.446 242.491 458.548 241.718 458.538C241.285 458.532 240.851 458.48 240.417 458.381C239.984 458.293 239.55 458.146 239.117 457.942C238.683 457.737 238.256 457.462 237.834 457.116C237.412 456.783 237.002 456.373 236.603 455.887L234.916 457.816C235.35 458.443 235.865 458.971 236.463 459.401C237.072 459.831 237.705 460.173 238.361 460.428C239.005 460.694 239.644 460.884 240.277 460.998C240.91 461.123 241.472 461.189 241.964 461.196C243.159 461.211 244.249 461.05 245.233 460.711C246.218 460.372 247.067 459.868 247.782 459.198C248.485 458.527 249.03 457.708 249.417 456.74C249.815 455.773 250.014 454.662 250.014 453.408V434.793L247.061 434.755L246.903 436.827C246.681 436.543 246.44 436.282 246.183 436.044C245.937 435.806 245.673 435.598 245.392 435.418C244.876 435.072 244.296 434.806 243.652 434.622C243.019 434.438 242.322 434.341 241.56 434.331C240.376 434.316 239.316 434.542 238.379 435.01C237.441 435.478 236.644 436.136 235.988 436.983C235.332 437.83 234.828 438.848 234.477 440.039C234.137 441.218 233.967 442.517 233.967 443.935ZM237.219 444.346V443.977C237.219 443.052 237.312 442.174 237.5 441.344C237.699 440.503 238.009 439.763 238.431 439.124C238.841 438.497 239.369 438 240.013 437.633C240.669 437.267 241.454 437.089 242.368 437.101C242.907 437.108 243.4 437.185 243.845 437.332C244.29 437.466 244.694 437.653 245.058 437.892C245.421 438.143 245.743 438.435 246.024 438.766C246.306 439.098 246.552 439.465 246.763 439.866V448.585C246.552 448.992 246.306 449.364 246.024 449.7C245.743 450.036 245.427 450.325 245.075 450.566C244.712 450.808 244.302 450.996 243.845 451.13C243.4 451.254 242.896 451.311 242.333 451.304C241.431 451.292 240.658 451.1 240.013 450.729C239.369 450.345 238.841 449.834 238.431 449.196C238.009 448.558 237.699 447.821 237.5 446.987C237.312 446.152 237.219 445.272 237.219 444.346ZM256.693 434.881V437.711L263.162 437.795V451.172L256.693 451.088V453.9L272.618 454.109V451.296L266.413 451.215V435.008L256.693 434.881ZM262.74 429.968C262.74 430.495 262.898 430.937 263.214 431.292C263.542 431.648 264.035 431.83 264.691 431.839C265.335 431.847 265.822 431.678 266.15 431.331C266.478 430.983 266.642 430.546 266.642 430.019C266.642 429.726 266.595 429.456 266.501 429.208C266.407 428.961 266.267 428.754 266.079 428.588C265.927 428.433 265.734 428.313 265.499 428.228C265.265 428.132 264.995 428.081 264.691 428.077C264.386 428.073 264.111 428.116 263.865 428.207C263.63 428.286 263.437 428.401 263.285 428.551C263.097 428.724 262.957 428.933 262.863 429.178C262.781 429.423 262.74 429.686 262.74 429.968ZM277.803 454.177L281.055 454.219V440.578C281.277 440.171 281.535 439.8 281.828 439.464C282.133 439.128 282.461 438.833 282.812 438.58C283.246 438.293 283.72 438.07 284.236 437.913C284.752 437.744 285.308 437.663 285.906 437.671C286.597 437.68 287.206 437.77 287.734 437.941C288.273 438.112 288.73 438.382 289.105 438.75C289.468 439.118 289.743 439.597 289.931 440.185C290.118 440.773 290.212 441.489 290.212 442.333V454.339L293.464 454.382V442.305C293.464 441.04 293.305 439.948 292.989 439.03C292.684 438.1 292.245 437.332 291.671 436.727C291.097 436.122 290.399 435.673 289.579 435.381C288.771 435.09 287.868 434.937 286.872 434.924C286.134 434.926 285.431 435.028 284.763 435.231C284.107 435.421 283.498 435.7 282.935 436.068C282.56 436.309 282.203 436.597 281.863 436.933C281.535 437.257 281.23 437.616 280.949 438.011L280.721 435.195L277.803 435.157V454.177ZM299.422 454.46L302.674 454.502V440.862C302.896 440.454 303.154 440.083 303.447 439.747C303.752 439.411 304.08 439.116 304.431 438.863C304.865 438.576 305.34 438.353 305.855 438.196C306.371 438.027 306.927 437.946 307.525 437.954C308.216 437.963 308.826 438.053 309.353 438.224C309.892 438.395 310.349 438.665 310.724 439.033C311.087 439.401 311.363 439.88 311.55 440.468C311.738 441.056 311.831 441.772 311.831 442.616V454.622L315.083 454.665V442.588C315.083 441.323 314.925 440.231 314.608 439.313C314.304 438.383 313.864 437.615 313.29 437.01C312.716 436.405 312.019 435.956 311.198 435.665C310.39 435.373 309.488 435.22 308.492 435.207C307.753 435.209 307.05 435.311 306.383 435.514C305.726 435.704 305.117 435.983 304.555 436.351C304.18 436.592 303.822 436.88 303.482 437.216C303.154 437.54 302.85 437.899 302.568 438.294L302.34 435.478L299.422 435.44V454.46ZM329.443 455.204C331.294 455.228 332.847 454.88 334.101 454.158C335.366 453.424 336.315 452.581 336.948 451.629L334.962 450.056C334.364 450.821 333.615 451.433 332.712 451.889C331.81 452.346 330.779 452.567 329.619 452.552C328.74 452.541 327.937 452.366 327.211 452.028C326.484 451.691 325.863 451.231 325.348 450.651C324.844 450.105 324.445 449.479 324.152 448.772C323.871 448.065 323.69 447.248 323.608 446.321V446.198L337.194 446.376V444.917C337.194 443.593 337.024 442.36 336.685 441.219C336.356 440.078 335.853 439.081 335.173 438.228C334.493 437.387 333.638 436.726 332.607 436.244C331.587 435.75 330.392 435.494 329.021 435.476C327.931 435.462 326.865 435.67 325.822 436.102C324.791 436.534 323.871 437.16 323.063 437.982C322.242 438.815 321.586 439.838 321.094 441.05C320.602 442.25 320.356 443.618 320.356 445.154V445.892C320.356 447.216 320.579 448.444 321.024 449.574C321.469 450.705 322.09 451.686 322.887 452.517C323.684 453.347 324.639 453.999 325.752 454.47C326.877 454.942 328.107 455.187 329.443 455.204ZM329.021 438.148C329.853 438.159 330.568 438.32 331.166 438.633C331.775 438.946 332.279 439.351 332.677 439.848C333.076 440.345 333.386 440.935 333.609 441.618C333.831 442.289 333.943 442.917 333.943 443.503V443.661L323.713 443.528C323.842 442.65 324.065 441.88 324.381 441.216C324.709 440.541 325.107 439.972 325.576 439.509C326.045 439.058 326.572 438.719 327.158 438.493C327.744 438.254 328.365 438.139 329.021 438.148ZM355.122 435.818C353.74 435.8 352.504 436.088 351.414 436.683C350.336 437.267 349.41 438.075 348.637 439.108L348.619 438.633L348.479 436.082L345.385 436.042V455.061L348.654 455.104V442.905C348.865 442.322 349.129 441.798 349.445 441.333C349.773 440.857 350.154 440.458 350.588 440.135C351.068 439.767 351.631 439.493 352.275 439.314C352.92 439.123 353.64 439.033 354.437 439.043C355.058 439.051 355.65 439.094 356.212 439.172C356.786 439.238 357.39 439.345 358.023 439.494L358.462 436.318C358.134 436.173 357.642 436.056 356.986 435.965C356.341 435.875 355.72 435.825 355.122 435.818ZM376.917 450.429C376.917 450.734 376.859 451.02 376.742 451.288C376.625 451.556 376.455 451.8 376.232 452.02C375.869 452.378 375.365 452.659 374.72 452.861C374.076 453.052 373.32 453.142 372.453 453.13C371.902 453.123 371.346 453.057 370.783 452.933C370.221 452.808 369.711 452.602 369.254 452.315C368.785 452.028 368.393 451.653 368.076 451.192C367.772 450.731 367.596 450.166 367.549 449.498L364.297 449.455C364.297 450.264 364.479 451.046 364.842 451.8C365.217 452.555 365.756 453.219 366.459 453.79C367.151 454.374 368 454.848 369.008 455.212C370.016 455.565 371.164 455.75 372.453 455.767C373.578 455.782 374.615 455.661 375.564 455.404C376.513 455.146 377.328 454.776 378.007 454.293C378.687 453.81 379.214 453.225 379.589 452.538C379.976 451.852 380.169 451.087 380.169 450.243C380.169 449.458 379.999 448.764 379.659 448.162C379.331 447.56 378.851 447.027 378.218 446.561C377.585 446.108 376.806 445.717 375.88 445.388C374.955 445.048 373.906 444.747 372.734 444.486C371.844 444.298 371.105 444.107 370.52 443.912C369.945 443.717 369.488 443.5 369.149 443.261C368.797 443.022 368.551 442.755 368.41 442.46C368.27 442.166 368.199 441.831 368.199 441.456C368.199 441.092 368.287 440.742 368.463 440.404C368.639 440.067 368.903 439.771 369.254 439.518C369.594 439.265 370.022 439.065 370.537 438.92C371.064 438.774 371.674 438.706 372.365 438.715C373.033 438.724 373.631 438.826 374.158 439.02C374.697 439.214 375.154 439.467 375.529 439.776C375.904 440.086 376.197 440.441 376.408 440.842C376.619 441.232 376.724 441.632 376.724 442.042L379.976 442.084C379.976 441.252 379.794 440.477 379.431 439.757C379.079 439.026 378.576 438.386 377.919 437.839C377.263 437.291 376.466 436.859 375.529 436.542C374.591 436.225 373.537 436.059 372.365 436.043C371.275 436.029 370.274 436.162 369.36 436.443C368.457 436.725 367.678 437.113 367.022 437.608C366.366 438.103 365.856 438.689 365.493 439.364C365.129 440.027 364.948 440.745 364.948 441.519C364.948 442.304 365.124 442.997 365.475 443.6C365.827 444.19 366.325 444.706 366.969 445.148C367.602 445.602 368.364 445.993 369.254 446.321C370.156 446.649 371.152 446.932 372.242 447.169C373.133 447.356 373.877 447.565 374.474 447.796C375.072 448.014 375.552 448.255 375.916 448.518C376.279 448.78 376.537 449.071 376.689 449.389C376.841 449.696 376.917 450.042 376.917 450.429Z" fill="white" fill-opacity="0.9"/>
<path d="M250.871 175.75L318.521 172.204C319.237 172.167 319.822 171.551 319.822 170.836C319.822 164.336 318.391 158.447 315.61 153.49C312.813 148.518 308.699 144.623 303.576 142.096C298.47 139.585 292.502 138.468 285.997 138.808L283.395 138.945C276.89 139.286 270.922 141.029 265.816 144.075C260.693 147.138 256.579 151.465 253.782 156.731C251.001 161.979 249.57 168.018 249.57 174.518C249.57 175.233 250.155 175.787 250.871 175.75Z" fill="white" fill-opacity="0.9"/>
<path d="M354.298 208.03L330.23 209.291V193.041C342.719 192.386 352.834 181.749 352.834 169.269C352.834 168.553 352.249 167.999 351.533 168.037L341.776 168.548C341.06 168.586 340.475 169.201 340.475 169.916C340.475 175.571 335.889 180.394 330.23 180.691L239.162 185.463C233.503 185.76 228.917 181.418 228.917 175.763C228.917 175.048 228.331 174.493 227.616 174.531L217.859 175.042C217.143 175.08 216.558 175.695 216.558 176.41C216.558 188.891 226.673 198.468 239.162 197.813V214.064L215.094 215.325C214.379 215.362 213.793 215.978 213.793 216.693V225.793C213.793 226.508 214.379 227.063 215.094 227.025L239.162 225.764V241.364C239.162 242.42 239.195 243.475 239.276 244.494C228.12 249.84 220.298 261.316 220.298 274.203C220.298 274.918 220.883 275.472 221.599 275.435L230.706 274.957C231.421 274.92 232.007 274.304 232.007 273.589C232.007 266.407 235.893 259.914 241.699 256.23C242.675 258.974 243.911 261.574 245.39 263.999C249.342 270.536 254.985 275.879 261.734 279.474C266.434 281.974 271.654 283.634 277.232 284.268C277.947 284.23 278.533 283.615 278.533 282.9V207.45C278.533 206.735 279.118 206.12 279.833 206.082L289.591 205.571C290.306 205.533 290.892 206.088 290.892 206.803V282.236C290.892 282.951 291.477 283.505 292.193 283.468C297.771 282.249 302.991 280.042 307.69 277.049C314.439 272.747 320.082 266.812 324.034 259.861C325.514 257.265 326.75 254.535 327.725 251.705C333.498 254.799 337.385 260.884 337.385 268.066C337.385 268.781 337.97 269.336 338.686 269.298L347.793 268.821C348.508 268.784 349.094 268.168 349.094 267.453C349.094 254.567 341.272 243.91 330.116 239.733C330.181 238.69 330.23 237.647 330.23 236.591V220.991L354.298 219.73C355.013 219.692 355.599 219.077 355.599 218.362V209.261C355.599 208.546 355.013 207.992 354.298 208.03Z" fill="white" fill-opacity="0.9"/>
<defs>
<filter id="filter0_d_205_998" x="55.7094" y="42.1254" width="555.635" height="817.767" filterUnits="userSpaceOnUse" color-interpolation-filters="sRGB">
<feFlood flood-opacity="0" result="BackgroundImageFix"/>
<feColorMatrix in="SourceAlpha" type="matrix" values="0 0 0 0 0 0 0 0 0 0 0 0 0 0 0 0 0 0 127 0" result="hardAlpha"/>
<feOffset dx="1.52709"/>
<feGaussianBlur stdDeviation="1.52709"/>
<feComposite in2="hardAlpha" operator="out"/>
<feColorMatrix type="matrix" values="0 0 0 0 0 0 0 0 0 0 0 0 0 0 0 0 0 0 0.1 0"/>
<feBlend mode="normal" in2="BackgroundImageFix" result="effect1_dropShadow_205_998"/>
<feBlend mode="normal" in="SourceGraphic" in2="effect1_dropShadow_205_998" result="shape"/>
</filter>
<filter id="filter1_d_205_998" x="53.7094" y="40.125" width="554.635" height="820.768" filterUnits="userSpaceOnUse" color-interpolation-filters="sRGB">
<feFlood flood-opacity="0" result="BackgroundImageFix"/>
<feColorMatrix in="SourceAlpha" type="matrix" values="0 0 0 0 0 0 0 0 0 0 0 0 0 0 0 0 0 0 127 0" result="hardAlpha"/>
<feOffset dx="1.52709"/>
<feGaussianBlur stdDeviation="1.52709"/>
<feComposite in2="hardAlpha" operator="out"/>
<feColorMatrix type="matrix" values="0 0 0 0 0 0 0 0 0 0 0 0 0 0 0 0 0 0 0.1 0"/>
<feBlend mode="normal" in2="BackgroundImageFix" result="effect1_dropShadow_205_998"/>
<feBlend mode="normal" in="SourceGraphic" in2="effect1_dropShadow_205_998" result="shape"/>
</filter>
<filter id="filter2_d_205_998" x="50.7094" y="39.1248" width="554.635" height="823.768" filterUnits="userSpaceOnUse" color-interpolation-filters="sRGB">
<feFlood flood-opacity="0" result="BackgroundImageFix"/>
<feColorMatrix in="SourceAlpha" type="matrix" values="0 0 0 0 0 0 0 0 0 0 0 0 0 0 0 0 0 0 127 0" result="hardAlpha"/>
<feOffset dx="1.52709"/>
<feGaussianBlur stdDeviation="1.52709"/>
<feComposite in2="hardAlpha" operator="out"/>
<feColorMatrix type="matrix" values="0 0 0 0 0 0 0 0 0 0 0 0 0 0 0 0 0 0 0.1 0"/>
<feBlend mode="normal" in2="BackgroundImageFix" result="effect1_dropShadow_205_998"/>
<feBlend mode="normal" in="SourceGraphic" in2="effect1_dropShadow_205_998" result="shape"/>
</filter>
<filter id="filter3_d_205_998" x="47.7094" y="37.1245" width="554.635" height="826.769" filterUnits="userSpaceOnUse" color-interpolation-filters="sRGB">
<feFlood flood-opacity="0" result="BackgroundImageFix"/>
<feColorMatrix in="SourceAlpha" type="matrix" values="0 0 0 0 0 0 0 0 0 0 0 0 0 0 0 0 0 0 127 0" result="hardAlpha"/>
<feOffset dx="1.52709"/>
<feGaussianBlur stdDeviation="1.52709"/>
<feComposite in2="hardAlpha" operator="out"/>
<feColorMatrix type="matrix" values="0 0 0 0 0 0 0 0 0 0 0 0 0 0 0 0 0 0 0.1 0"/>
<feBlend mode="normal" in2="BackgroundImageFix" result="effect1_dropShadow_205_998"/>
<feBlend mode="normal" in="SourceGraphic" in2="effect1_dropShadow_205_998" result="shape"/>
</filter>
<filter id="filter4_d_205_998" x="44.7094" y="36.1244" width="554.635" height="829.769" filterUnits="userSpaceOnUse" color-interpolation-filters="sRGB">
<feFlood flood-opacity="0" result="BackgroundImageFix"/>
<feColorMatrix in="SourceAlpha" type="matrix" values="0 0 0 0 0 0 0 0 0 0 0 0 0 0 0 0 0 0 127 0" result="hardAlpha"/>
<feOffset dx="1.52709"/>
<feGaussianBlur stdDeviation="1.52709"/>
<feComposite in2="hardAlpha" operator="out"/>
<feColorMatrix type="matrix" values="0 0 0 0 0 0 0 0 0 0 0 0 0 0 0 0 0 0 0.1 0"/>
<feBlend mode="normal" in2="BackgroundImageFix" result="effect1_dropShadow_205_998"/>
<feBlend mode="normal" in="SourceGraphic" in2="effect1_dropShadow_205_998" result="shape"/>
</filter>
<filter id="filter5_d_205_998" x="44.7094" y="34.1237" width="551.635" height="834.771" filterUnits="userSpaceOnUse" color-interpolation-filters="sRGB">
<feFlood flood-opacity="0" result="BackgroundImageFix"/>
<feColorMatrix in="SourceAlpha" type="matrix" values="0 0 0 0 0 0 0 0 0 0 0 0 0 0 0 0 0 0 127 0" result="hardAlpha"/>
<feOffset dx="1.52709"/>
<feGaussianBlur stdDeviation="1.52709"/>
<feComposite in2="hardAlpha" operator="out"/>
<feColorMatrix type="matrix" values="0 0 0 0 0 0 0 0 0 0 0 0 0 0 0 0 0 0 0.1 0"/>
<feBlend mode="normal" in2="BackgroundImageFix" result="effect1_dropShadow_205_998"/>
<feBlend mode="normal" in="SourceGraphic" in2="effect1_dropShadow_205_998" result="shape"/>
</filter>
<filter id="filter6_d_205_998" x="41.7094" y="33.1233" width="551.635" height="838.771" filterUnits="userSpaceOnUse" color-interpolation-filters="sRGB">
<feFlood flood-opacity="0" result="BackgroundImageFix"/>
<feColorMatrix in="SourceAlpha" type="matrix" values="0 0 0 0 0 0 0 0 0 0 0 0 0 0 0 0 0 0 127 0" result="hardAlpha"/>
<feOffset dx="1.52709"/>
<feGaussianBlur stdDeviation="1.52709"/>
<feComposite in2="hardAlpha" operator="out"/>
<feColorMatrix type="matrix" values="0 0 0 0 0 0 0 0 0 0 0 0 0 0 0 0 0 0 0.1 0"/>
<feBlend mode="normal" in2="BackgroundImageFix" result="effect1_dropShadow_205_998"/>
<feBlend mode="normal" in="SourceGraphic" in2="effect1_dropShadow_205_998" result="shape"/>
</filter>
<filter id="filter7_d_205_998" x="38.7094" y="30.1229" width="551.635" height="844.772" filterUnits="userSpaceOnUse" color-interpolation-filters="sRGB">
<feFlood flood-opacity="0" result="BackgroundImageFix"/>
<feColorMatrix in="SourceAlpha" type="matrix" values="0 0 0 0 0 0 0 0 0 0 0 0 0 0 0 0 0 0 127 0" result="hardAlpha"/>
<feOffset dx="1.52709"/>
<feGaussianBlur stdDeviation="1.52709"/>
<feComposite in2="hardAlpha" operator="out"/>
<feColorMatrix type="matrix" values="0 0 0 0 0 0 0 0 0 0 0 0 0 0 0 0 0 0 0.1 0"/>
<feBlend mode="normal" in2="BackgroundImageFix" result="effect1_dropShadow_205_998"/>
<feBlend mode="normal" in="SourceGraphic" in2="effect1_dropShadow_205_998" result="shape"/>
</filter>
<filter id="filter8_d_205_998" x="35.7094" y="28.1226" width="551.635" height="849.773" filterUnits="userSpaceOnUse" color-interpolation-filters="sRGB">
<feFlood flood-opacity="0" result="BackgroundImageFix"/>
<feColorMatrix in="SourceAlpha" type="matrix" values="0 0 0 0 0 0 0 0 0 0 0 0 0 0 0 0 0 0 127 0" result="hardAlpha"/>
<feOffset dx="1.52709"/>
<feGaussianBlur stdDeviation="1.52709"/>
<feComposite in2="hardAlpha" operator="out"/>
<feColorMatrix type="matrix" values="0 0 0 0 0 0 0 0 0 0 0 0 0 0 0 0 0 0 0.1 0"/>
<feBlend mode="normal" in2="BackgroundImageFix" result="effect1_dropShadow_205_998"/>
<feBlend mode="normal" in="SourceGraphic" in2="effect1_dropShadow_205_998" result="shape"/>
</filter>
<filter id="filter9_d_205_998" x="32.7094" y="25.122" width="551.635" height="857.775" filterUnits="userSpaceOnUse" color-interpolation-filters="sRGB">
<feFlood flood-opacity="0" result="BackgroundImageFix"/>
<feColorMatrix in="SourceAlpha" type="matrix" values="0 0 0 0 0 0 0 0 0 0 0 0 0 0 0 0 0 0 127 0" result="hardAlpha"/>
<feOffset dx="1.52709"/>
<feGaussianBlur stdDeviation="1.52709"/>
<feComposite in2="hardAlpha" operator="out"/>
<feColorMatrix type="matrix" values="0 0 0 0 0 0 0 0 0 0 0 0 0 0 0 0 0 0 0.1 0"/>
<feBlend mode="normal" in2="BackgroundImageFix" result="effect1_dropShadow_205_998"/>
<feBlend mode="normal" in="SourceGraphic" in2="effect1_dropShadow_205_998" result="shape"/>
</filter>
<filter id="filter10_d_205_998" x="29.7094" y="22.1215" width="551.635" height="863.776" filterUnits="userSpaceOnUse" color-interpolation-filters="sRGB">
<feFlood flood-opacity="0" result="BackgroundImageFix"/>
<feColorMatrix in="SourceAlpha" type="matrix" values="0 0 0 0 0 0 0 0 0 0 0 0 0 0 0 0 0 0 127 0" result="hardAlpha"/>
<feOffset dx="1.52709"/>
<feGaussianBlur stdDeviation="1.52709"/>
<feComposite in2="hardAlpha" operator="out"/>
<feColorMatrix type="matrix" values="0 0 0 0 0 0 0 0 0 0 0 0 0 0 0 0 0 0 0.1 0"/>
<feBlend mode="normal" in2="BackgroundImageFix" result="effect1_dropShadow_205_998"/>
<feBlend mode="normal" in="SourceGraphic" in2="effect1_dropShadow_205_998" result="shape"/>
</filter>
<filter id="filter11_d_205_998" x="26.7094" y="19.121" width="551.635" height="870.777" filterUnits="userSpaceOnUse" color-interpolation-filters="sRGB">
<feFlood flood-opacity="0" result="BackgroundImageFix"/>
<feColorMatrix in="SourceAlpha" type="matrix" values="0 0 0 0 0 0 0 0 0 0 0 0 0 0 0 0 0 0 127 0" result="hardAlpha"/>
<feOffset dx="1.52709"/>
<feGaussianBlur stdDeviation="1.52709"/>
<feComposite in2="hardAlpha" operator="out"/>
<feColorMatrix type="matrix" values="0 0 0 0 0 0 0 0 0 0 0 0 0 0 0 0 0 0 0.1 0"/>
<feBlend mode="normal" in2="BackgroundImageFix" result="effect1_dropShadow_205_998"/>
<feBlend mode="normal" in="SourceGraphic" in2="effect1_dropShadow_205_998" result="shape"/>
</filter>
<filter id="filter12_d_205_998" x="23.7094" y="16.1206" width="551.635" height="876.778" filterUnits="userSpaceOnUse" color-interpolation-filters="sRGB">
<feFlood flood-opacity="0" result="BackgroundImageFix"/>
<feColorMatrix in="SourceAlpha" type="matrix" values="0 0 0 0 0 0 0 0 0 0 0 0 0 0 0 0 0 0 127 0" result="hardAlpha"/>
<feOffset dx="1.52709"/>
<feGaussianBlur stdDeviation="1.52709"/>
<feComposite in2="hardAlpha" operator="out"/>
<feColorMatrix type="matrix" values="0 0 0 0 0 0 0 0 0 0 0 0 0 0 0 0 0 0 0.1 0"/>
<feBlend mode="normal" in2="BackgroundImageFix" result="effect1_dropShadow_205_998"/>
<feBlend mode="normal" in="SourceGraphic" in2="effect1_dropShadow_205_998" result="shape"/>
</filter>
<linearGradient id="paint0_linear_205_998" x1="619.867" y1="27.5426" x2="109.725" y2="933.451" gradientUnits="userSpaceOnUse">
<stop stop-color="#B388FF" stop-opacity="0.5"/>
<stop offset="1" stop-color="#673AB7"/>
<stop offset="1" stop-color="#5C00FF"/>
</linearGradient>
<linearGradient id="paint1_linear_205_998" x1="615.287" y1="459.226" x2="619.649" y2="459.226" gradientUnits="userSpaceOnUse">
<stop stop-color="#7044BF"/>
<stop offset="1" stop-color="#A97EF5"/>
</linearGradient>
<linearGradient id="paint2_linear_205_998" x1="617.904" y1="28.6804" x2="632.377" y2="28.9217" gradientUnits="userSpaceOnUse">
<stop stop-color="#AC7DFF" stop-opacity="0"/>
<stop offset="1" stop-color="#562D9D" stop-opacity="0.65"/>
</linearGradient>
<linearGradient id="paint3_linear_205_998" x1="571" y1="-0.763232" x2="1.20008" y2="938.731" gradientUnits="userSpaceOnUse">
<stop stop-color="#B388FF" stop-opacity="0.5"/>
<stop offset="1" stop-color="#673AB7"/>
<stop offset="1" stop-color="#5C00FF"/>
</linearGradient>
<linearGradient id="paint4_linear_205_998" x1="560.443" y1="464.103" x2="570.92" y2="464.103" gradientUnits="userSpaceOnUse">
<stop stop-color="#A97EF5"/>
<stop offset="1" stop-color="#7044BF"/>
</linearGradient>
<linearGradient id="paint5_linear_205_998" x1="566.729" y1="0.763674" x2="601.448" y2="2.05548" gradientUnits="userSpaceOnUse">
<stop stop-color="#AC7DFF" stop-opacity="0"/>
<stop offset="1" stop-color="#562D9D" stop-opacity="0.65"/>
</linearGradient>
</defs>
</svg>
