<svg width="658" height="867" viewBox="0 0 658 867" fill="none" xmlns="http://www.w3.org/2000/svg">
<g filter="url(#filter0_dd_117_13)">
<rect x="14" y="14" width="618" height="827" rx="20" fill="url(#paint0_linear_117_13)"/>
</g>
<g filter="url(#filter1_dd_117_13)">
<path d="M215.8 753.86H217.9L219.66 758.68L221.44 753.86H223.54L221.1 760.18L223.22 765.4L227.64 753.8H230.1L224.28 768H222.34L219.68 761.64L217 768H215.04L209.24 753.8H211.68L216.12 765.4L218.24 760.18L215.8 753.86ZM234.809 768.2C233.716 768.2 232.762 767.953 231.949 767.46C231.149 766.953 230.529 766.293 230.089 765.48C229.649 764.653 229.429 763.753 229.429 762.78C229.429 761.807 229.649 760.913 230.089 760.1C230.542 759.273 231.169 758.613 231.969 758.12C232.782 757.613 233.729 757.36 234.809 757.36C235.889 757.36 236.829 757.613 237.629 758.12C238.442 758.613 239.069 759.273 239.509 760.1C239.962 760.913 240.189 761.807 240.189 762.78C240.189 763.753 239.969 764.653 239.529 765.48C239.089 766.293 238.462 766.953 237.649 767.46C236.849 767.953 235.902 768.2 234.809 768.2ZM231.689 762.8C231.689 763.467 231.829 764.067 232.109 764.6C232.389 765.133 232.762 765.553 233.229 765.86C233.696 766.167 234.222 766.32 234.809 766.32C235.382 766.32 235.902 766.167 236.369 765.86C236.849 765.54 237.229 765.113 237.509 764.58C237.789 764.047 237.929 763.447 237.929 762.78C237.929 762.113 237.789 761.513 237.509 760.98C237.229 760.447 236.849 760.027 236.369 759.72C235.902 759.4 235.382 759.24 234.809 759.24C234.236 759.24 233.709 759.4 233.229 759.72C232.762 760.027 232.389 760.453 232.109 761C231.829 761.533 231.689 762.133 231.689 762.8ZM248.02 759.44C247.167 759.467 246.407 759.667 245.74 760.04C245.087 760.4 244.62 760.92 244.34 761.6V768H242.14V757.54H244.18V759.88C244.54 759.16 245.014 758.587 245.6 758.16C246.187 757.72 246.807 757.48 247.46 757.44C247.58 757.44 247.687 757.44 247.78 757.44C247.874 757.44 247.954 757.447 248.02 757.46V759.44ZM256.901 768L253.541 763.18L251.821 764.82V768H249.621V753.4H251.821V762.6L256.661 757.56H259.021L254.961 761.94L259.241 768H256.901ZM265.799 768V753.8H268.039V768H265.799ZM280.348 768H278.148V762.14C278.148 761.153 277.988 760.44 277.668 760C277.362 759.547 276.902 759.32 276.288 759.32C275.862 759.32 275.435 759.427 275.008 759.64C274.595 759.853 274.222 760.147 273.888 760.52C273.555 760.893 273.315 761.313 273.168 761.78V768H270.968V757.54H272.968V759.64C273.368 758.947 273.948 758.393 274.708 757.98C275.468 757.567 276.308 757.36 277.228 757.36C278.055 757.36 278.695 757.56 279.148 757.96C279.602 758.347 279.915 758.86 280.088 759.5C280.262 760.14 280.348 760.847 280.348 761.62V768ZM288.123 768V753.8H294.083C294.723 753.8 295.31 753.933 295.843 754.2C296.39 754.467 296.857 754.82 297.243 755.26C297.643 755.7 297.95 756.193 298.163 756.74C298.377 757.287 298.483 757.847 298.483 758.42C298.483 759.22 298.303 759.973 297.943 760.68C297.583 761.387 297.083 761.96 296.443 762.4C295.803 762.84 295.057 763.06 294.203 763.06H290.363V768H288.123ZM290.363 761.08H294.063C294.69 761.08 295.203 760.827 295.603 760.32C296.003 759.813 296.203 759.18 296.203 758.42C296.203 757.9 296.097 757.447 295.883 757.06C295.67 756.66 295.39 756.347 295.043 756.12C294.71 755.893 294.343 755.78 293.943 755.78H290.363V761.08ZM306.184 759.44C305.331 759.467 304.571 759.667 303.904 760.04C303.251 760.4 302.784 760.92 302.504 761.6V768H300.304V757.54H302.344V759.88C302.704 759.16 303.178 758.587 303.764 758.16C304.351 757.72 304.971 757.48 305.624 757.44C305.744 757.44 305.851 757.44 305.944 757.44C306.038 757.44 306.118 757.447 306.184 757.46V759.44ZM312.309 768.2C311.216 768.2 310.262 767.953 309.449 767.46C308.649 766.953 308.029 766.293 307.589 765.48C307.149 764.653 306.929 763.753 306.929 762.78C306.929 761.807 307.149 760.913 307.589 760.1C308.042 759.273 308.669 758.613 309.469 758.12C310.282 757.613 311.229 757.36 312.309 757.36C313.389 757.36 314.329 757.613 315.129 758.12C315.942 758.613 316.569 759.273 317.009 760.1C317.462 760.913 317.689 761.807 317.689 762.78C317.689 763.753 317.469 764.653 317.029 765.48C316.589 766.293 315.962 766.953 315.149 767.46C314.349 767.953 313.402 768.2 312.309 768.2ZM309.189 762.8C309.189 763.467 309.329 764.067 309.609 764.6C309.889 765.133 310.262 765.553 310.729 765.86C311.196 766.167 311.722 766.32 312.309 766.32C312.882 766.32 313.402 766.167 313.869 765.86C314.349 765.54 314.729 765.113 315.009 764.58C315.289 764.047 315.429 763.447 315.429 762.78C315.429 762.113 315.289 761.513 315.009 760.98C314.729 760.447 314.349 760.027 313.869 759.72C313.402 759.4 312.882 759.24 312.309 759.24C311.736 759.24 311.209 759.4 310.729 759.72C310.262 760.027 309.889 760.453 309.609 761C309.329 761.533 309.189 762.133 309.189 762.8ZM323.78 768.1C322.834 768.1 322 767.853 321.28 767.36C320.574 766.867 320.014 766.22 319.6 765.42C319.2 764.607 319 763.727 319 762.78C319 761.793 319.207 760.887 319.62 760.06C320.034 759.233 320.6 758.58 321.32 758.1C322.054 757.607 322.9 757.36 323.86 757.36C324.7 757.36 325.434 757.56 326.06 757.96C326.7 758.36 327.227 758.88 327.64 759.52V757.54H329.58V767.7C329.58 768.713 329.334 769.573 328.84 770.28C328.36 770.987 327.7 771.527 326.86 771.9C326.02 772.273 325.074 772.46 324.02 772.46C322.86 772.46 321.894 772.26 321.12 771.86C320.36 771.46 319.72 770.913 319.2 770.22L320.44 769.06C320.84 769.62 321.354 770.047 321.98 770.34C322.62 770.633 323.3 770.78 324.02 770.78C324.62 770.78 325.174 770.667 325.68 770.44C326.2 770.227 326.614 769.893 326.92 769.44C327.227 768.987 327.38 768.407 327.38 767.7V766.1C327.007 766.727 326.494 767.22 325.84 767.58C325.187 767.927 324.5 768.1 323.78 768.1ZM324.5 766.32C324.94 766.32 325.36 766.227 325.76 766.04C326.16 765.84 326.5 765.58 326.78 765.26C327.074 764.94 327.274 764.6 327.38 764.24V761.5C327.114 760.833 326.694 760.293 326.12 759.88C325.56 759.453 324.967 759.24 324.34 759.24C323.7 759.24 323.147 759.413 322.68 759.76C322.227 760.107 321.874 760.56 321.62 761.12C321.367 761.667 321.24 762.24 321.24 762.84C321.24 763.48 321.38 764.067 321.66 764.6C321.954 765.12 322.347 765.54 322.84 765.86C323.334 766.167 323.887 766.32 324.5 766.32ZM338.098 759.44C337.245 759.467 336.485 759.667 335.818 760.04C335.165 760.4 334.698 760.92 334.418 761.6V768H332.218V757.54H334.258V759.88C334.618 759.16 335.092 758.587 335.678 758.16C336.265 757.72 336.885 757.48 337.538 757.44C337.658 757.44 337.765 757.44 337.858 757.44C337.952 757.44 338.032 757.447 338.098 757.46V759.44ZM344.263 768.2C343.183 768.2 342.236 767.953 341.423 767.46C340.61 766.967 339.976 766.313 339.523 765.5C339.07 764.673 338.843 763.773 338.843 762.8C338.843 761.813 339.07 760.907 339.523 760.08C339.976 759.253 340.61 758.593 341.423 758.1C342.236 757.607 343.19 757.36 344.283 757.36C345.376 757.36 346.323 757.613 347.123 758.12C347.923 758.613 348.536 759.267 348.963 760.08C349.403 760.893 349.623 761.767 349.623 762.7C349.623 763.033 349.603 763.3 349.563 763.5H341.183C341.223 764.113 341.39 764.653 341.683 765.12C341.99 765.573 342.37 765.933 342.823 766.2C343.29 766.453 343.796 766.58 344.343 766.58C344.93 766.58 345.483 766.433 346.003 766.14C346.523 765.847 346.883 765.46 347.083 764.98L348.963 765.52C348.603 766.307 348.003 766.953 347.163 767.46C346.336 767.953 345.37 768.2 344.263 768.2ZM341.123 762.04H347.443C347.39 761.44 347.216 760.913 346.923 760.46C346.63 759.993 346.25 759.633 345.783 759.38C345.33 759.113 344.823 758.98 344.263 758.98C343.716 758.98 343.21 759.113 342.743 759.38C342.29 759.633 341.916 759.993 341.623 760.46C341.33 760.913 341.163 761.44 341.123 762.04ZM355.138 768.2C354.258 768.2 353.424 768.053 352.638 767.76C351.851 767.467 351.178 767.04 350.618 766.48L351.438 765C352.038 765.533 352.638 765.92 353.238 766.16C353.838 766.4 354.444 766.52 355.058 766.52C355.671 766.52 356.171 766.407 356.558 766.18C356.944 765.94 357.138 765.593 357.138 765.14C357.138 764.82 357.038 764.573 356.838 764.4C356.638 764.227 356.344 764.087 355.958 763.98C355.584 763.873 355.131 763.74 354.598 763.58C353.851 763.353 353.224 763.12 352.718 762.88C352.211 762.627 351.831 762.32 351.578 761.96C351.324 761.6 351.198 761.14 351.198 760.58C351.198 759.567 351.578 758.78 352.338 758.22C353.098 757.647 354.091 757.36 355.318 757.36C356.078 757.36 356.778 757.48 357.418 757.72C358.071 757.947 358.644 758.307 359.138 758.8L358.198 760.26C357.291 759.433 356.291 759.02 355.198 759.02C354.718 759.02 354.271 759.113 353.858 759.3C353.458 759.487 353.258 759.833 353.258 760.34C353.258 760.767 353.438 761.073 353.798 761.26C354.158 761.447 354.691 761.647 355.398 761.86C356.198 762.1 356.884 762.34 357.458 762.58C358.044 762.807 358.491 763.107 358.798 763.48C359.118 763.84 359.278 764.34 359.278 764.98C359.278 765.993 358.898 766.787 358.138 767.36C357.378 767.92 356.378 768.2 355.138 768.2ZM364.962 768.2C364.082 768.2 363.249 768.053 362.462 767.76C361.675 767.467 361.002 767.04 360.442 766.48L361.262 765C361.862 765.533 362.462 765.92 363.062 766.16C363.662 766.4 364.269 766.52 364.882 766.52C365.495 766.52 365.995 766.407 366.382 766.18C366.769 765.94 366.962 765.593 366.962 765.14C366.962 764.82 366.862 764.573 366.662 764.4C366.462 764.227 366.169 764.087 365.782 763.98C365.409 763.873 364.955 763.74 364.422 763.58C363.675 763.353 363.049 763.12 362.542 762.88C362.035 762.627 361.655 762.32 361.402 761.96C361.149 761.6 361.022 761.14 361.022 760.58C361.022 759.567 361.402 758.78 362.162 758.22C362.922 757.647 363.915 757.36 365.142 757.36C365.902 757.36 366.602 757.48 367.242 757.72C367.895 757.947 368.469 758.307 368.962 758.8L368.022 760.26C367.115 759.433 366.115 759.02 365.022 759.02C364.542 759.02 364.095 759.113 363.682 759.3C363.282 759.487 363.082 759.833 363.082 760.34C363.082 760.767 363.262 761.073 363.622 761.26C363.982 761.447 364.515 761.647 365.222 761.86C366.022 762.1 366.709 762.34 367.282 762.58C367.869 762.807 368.315 763.107 368.622 763.48C368.942 763.84 369.102 764.34 369.102 764.98C369.102 765.993 368.722 766.787 367.962 767.36C367.202 767.92 366.202 768.2 364.962 768.2ZM384.688 757.14C384.514 756.94 384.228 756.733 383.828 756.52C383.441 756.293 382.988 756.1 382.468 755.94C381.948 755.78 381.408 755.7 380.848 755.7C379.901 755.7 379.201 755.873 378.748 756.22C378.308 756.567 378.088 757.047 378.088 757.66C378.088 758.113 378.214 758.473 378.468 758.74C378.721 758.993 379.108 759.213 379.628 759.4C380.148 759.573 380.801 759.753 381.588 759.94C382.548 760.167 383.374 760.44 384.068 760.76C384.774 761.067 385.314 761.48 385.688 762C386.074 762.52 386.268 763.207 386.268 764.06C386.268 765.033 386.034 765.82 385.568 766.42C385.101 767.02 384.468 767.46 383.668 767.74C382.881 768.007 382.014 768.14 381.068 768.14C379.988 768.14 378.941 767.973 377.928 767.64C376.914 767.307 376.008 766.833 375.208 766.22L376.228 764.3C376.454 764.527 376.814 764.787 377.308 765.08C377.801 765.36 378.374 765.607 379.028 765.82C379.694 766.02 380.388 766.12 381.108 766.12C381.988 766.12 382.668 765.967 383.148 765.66C383.628 765.34 383.868 764.887 383.868 764.3C383.868 763.82 383.708 763.44 383.388 763.16C383.081 762.867 382.634 762.627 382.048 762.44C381.474 762.24 380.781 762.033 379.967 761.82C379.034 761.58 378.254 761.307 377.627 761C377.001 760.693 376.528 760.307 376.208 759.84C375.901 759.373 375.748 758.767 375.748 758.02C375.748 757.087 375.974 756.3 376.428 755.66C376.881 755.007 377.494 754.52 378.268 754.2C379.054 753.867 379.934 753.7 380.908 753.7C381.868 753.7 382.754 753.853 383.568 754.16C384.381 754.467 385.094 754.847 385.707 755.3L384.688 757.14ZM393.839 767.46C393.559 767.593 393.173 767.747 392.679 767.92C392.186 768.08 391.659 768.16 391.099 768.16C390.406 768.16 389.806 767.973 389.299 767.6C388.806 767.227 388.559 766.62 388.559 765.78V759.24H387.179V757.54H388.559V754.1H390.759V757.54H393.039V759.24H390.759V765.08C390.786 765.453 390.899 765.727 391.099 765.9C391.313 766.06 391.573 766.14 391.879 766.14C392.186 766.14 392.479 766.087 392.759 765.98C393.039 765.873 393.246 765.787 393.379 765.72L393.839 767.46ZM395.263 763.94V757.54H397.463V763.5C397.463 765.38 398.13 766.32 399.463 766.32C400.09 766.32 400.683 766.127 401.243 765.74C401.803 765.34 402.236 764.78 402.543 764.06V757.54H404.743V765.52C404.743 765.773 404.79 765.953 404.883 766.06C404.976 766.167 405.13 766.227 405.343 766.24V768C405.116 768.04 404.93 768.067 404.783 768.08C404.636 768.093 404.496 768.1 404.363 768.1C403.963 768.1 403.63 767.993 403.363 767.78C403.096 767.567 402.943 767.28 402.903 766.92L402.863 765.88C402.396 766.64 401.79 767.22 401.043 767.62C400.296 768.007 399.476 768.2 398.583 768.2C397.49 768.2 396.663 767.84 396.103 767.12C395.543 766.4 395.263 765.34 395.263 763.94ZM406.89 762.78C406.89 761.78 407.09 760.873 407.49 760.06C407.904 759.233 408.464 758.58 409.17 758.1C409.877 757.607 410.69 757.36 411.61 757.36C412.41 757.36 413.13 757.567 413.77 757.98C414.424 758.393 414.93 758.907 415.29 759.52V753.4H417.49V765.52C417.49 765.773 417.537 765.953 417.63 766.06C417.724 766.167 417.877 766.227 418.09 766.24V768C417.677 768.067 417.357 768.1 417.13 768.1C416.717 768.1 416.364 767.987 416.07 767.76C415.79 767.52 415.644 767.227 415.63 766.88L415.61 766.1C415.21 766.767 414.67 767.287 413.99 767.66C413.31 768.02 412.604 768.2 411.87 768.2C410.91 768.2 410.05 767.953 409.29 767.46C408.544 766.967 407.957 766.313 407.53 765.5C407.104 764.673 406.89 763.767 406.89 762.78ZM415.29 764.24V761.5C415.13 761.073 414.89 760.693 414.57 760.36C414.25 760.013 413.884 759.74 413.47 759.54C413.07 759.34 412.67 759.24 412.27 759.24C411.644 759.24 411.097 759.413 410.63 759.76C410.177 760.093 409.817 760.533 409.55 761.08C409.297 761.627 409.17 762.207 409.17 762.82C409.17 763.46 409.31 764.047 409.59 764.58C409.884 765.113 410.277 765.54 410.77 765.86C411.264 766.167 411.817 766.32 412.43 766.32C412.804 766.32 413.19 766.233 413.59 766.06C414.004 765.873 414.364 765.627 414.67 765.32C414.977 765 415.184 764.64 415.29 764.24ZM420.285 755.82V753.4H422.485V755.82H420.285ZM420.285 768V757.54H422.485V768H420.285ZM429.829 768.2C428.735 768.2 427.782 767.953 426.969 767.46C426.169 766.953 425.549 766.293 425.109 765.48C424.669 764.653 424.449 763.753 424.449 762.78C424.449 761.807 424.669 760.913 425.109 760.1C425.562 759.273 426.189 758.613 426.989 758.12C427.802 757.613 428.749 757.36 429.829 757.36C430.909 757.36 431.849 757.613 432.649 758.12C433.462 758.613 434.089 759.273 434.529 760.1C434.982 760.913 435.209 761.807 435.209 762.78C435.209 763.753 434.989 764.653 434.549 765.48C434.109 766.293 433.482 766.953 432.669 767.46C431.869 767.953 430.922 768.2 429.829 768.2ZM426.709 762.8C426.709 763.467 426.849 764.067 427.129 764.6C427.409 765.133 427.782 765.553 428.249 765.86C428.715 766.167 429.242 766.32 429.829 766.32C430.402 766.32 430.922 766.167 431.389 765.86C431.869 765.54 432.249 765.113 432.529 764.58C432.809 764.047 432.949 763.447 432.949 762.78C432.949 762.113 432.809 761.513 432.529 760.98C432.249 760.447 431.869 760.027 431.389 759.72C430.922 759.4 430.402 759.24 429.829 759.24C429.255 759.24 428.729 759.4 428.249 759.72C427.782 760.027 427.409 760.453 427.129 761C426.849 761.533 426.709 762.133 426.709 762.8Z" fill="#444444" fill-opacity="0.9"/>
</g>
<g opacity="0.8" clip-path="url(#clip0_117_13)">
<path d="M470.041 630.03C470.041 630.03 470.307 624.501 475.76 625.144L470.041 630.03Z" fill="#3F3D56"/>
<path d="M468.5 624.769C470.007 624.769 471.229 623.557 471.229 622.062C471.229 620.566 470.007 619.354 468.5 619.354C466.993 619.354 465.771 620.566 465.771 622.062C465.771 623.557 466.993 624.769 468.5 624.769Z" fill="white"/>
<path d="M468.826 626.62H468.056V631.969H468.826V626.62Z" fill="#3F3D56"/>
<path d="M284.752 467.499C284.752 468.853 284.708 470.195 284.619 471.527C284.123 479.204 282.168 486.719 278.856 493.676C278.83 493.735 278.8 493.79 278.774 493.845C278.62 494.168 278.462 494.491 278.299 494.809C277.314 496.776 276.222 498.689 275.026 500.538C269.565 509.027 262.08 516.051 253.232 520.99C244.384 525.928 234.446 528.629 224.296 528.854L224.908 563.756L232.888 559.588L234.313 562.275L224.968 567.155L226.111 631.977L226.123 632.843L219.953 634.205L219.966 633.335L221.909 528.858C213.739 528.742 205.674 527.017 198.182 523.784C190.69 520.55 183.92 515.873 178.265 510.023C177.876 509.624 177.49 509.213 177.114 508.805C177.097 508.788 177.084 508.771 177.071 508.759C172.36 503.663 168.549 497.814 165.801 491.46C165.861 491.528 165.925 491.592 165.985 491.66C159.773 477.252 159.351 461.032 164.807 446.326C170.263 431.62 181.183 419.54 195.329 412.561C195.543 412.455 195.761 412.353 195.975 412.247C209.968 405.562 225.983 404.335 240.845 408.81C255.707 413.285 268.331 423.135 276.215 436.408C276.592 437.036 276.956 437.677 277.307 438.322C282.204 447.279 284.764 457.309 284.752 467.499Z" fill="#E5E5E5"/>
<path d="M276.423 493.879C321.213 493.879 357.523 457.865 357.523 413.439C357.523 369.014 321.213 333 276.423 333C231.632 333 195.322 369.014 195.322 413.439C195.322 457.865 231.632 493.879 276.423 493.879Z" fill="white"/>
<path opacity="0.2" d="M216.541 359.712C198.933 400.565 218.048 447.84 259.236 465.304C274.863 471.93 292.194 473.52 308.781 469.85C325.368 466.179 340.373 457.433 351.678 444.847C334.072 485.701 286.409 504.663 245.219 487.2C204.03 469.738 184.912 422.463 202.518 381.609C205.967 373.606 210.703 366.211 216.541 359.712Z" fill="black"/>
<path d="M280.811 637.529L272.527 635.224L272.544 634.341L275.026 500.538L275.15 493.867L275.155 493.672L275.587 470.296L276.216 436.412V436.408L276.644 413.44H276.87L277.307 438.322L277.876 470.708L278.282 493.689V493.858L278.299 494.805V494.809L279.087 539.604L279.168 544.056L280.794 636.637L280.811 637.529Z" fill="#3F3D56"/>
<path d="M289.544 534.142L276.138 541.143L278.006 544.663L291.412 537.662L289.544 534.142Z" fill="#3F3D56"/>
<path d="M274.834 653.722H236.593V654.571H274.834V653.722Z" fill="#CBCBCB"/>
<path d="M345.006 668.151H306.766V669H345.006V668.151Z" fill="#CBCBCB"/>
<path d="M454.116 657.117H415.875V657.966H454.116V657.117Z" fill="#CBCBCB"/>
<path d="M436.65 622.581V597.893C436.65 597.893 446.35 615.396 436.65 622.581Z" fill="#F1F1F1"/>
<path d="M437.249 622.577L418.912 605.881C418.912 605.881 438.472 610.63 437.249 622.577Z" fill="#F1F1F1"/>
<path d="M247.098 628.523V603.834C247.098 603.834 256.799 621.337 247.098 628.523Z" fill="#F1F1F1"/>
<path d="M247.697 628.518L229.361 611.822C229.361 611.822 248.921 616.571 247.697 628.518Z" fill="#F1F1F1"/>
<path d="M312.992 646.347V615.647C312.992 615.647 325.055 637.412 312.992 646.347Z" fill="#F1F1F1"/>
<path d="M313.737 646.342L290.935 625.58C290.935 625.58 315.258 631.486 313.737 646.342Z" fill="#F1F1F1"/>
<path d="M509 642.591L508.765 643.411L436.954 623.124L382.857 634.952L313.672 646.674L313.578 646.649L280.811 637.528L272.527 635.224L247.227 628.179L226.124 632.843L219.954 634.205L206.539 637.172L206.355 636.344L219.966 633.335L226.111 631.977L247.252 627.305L247.355 627.33L272.544 634.341L280.794 636.637L313.715 645.804L382.69 634.121L436.979 622.25L437.086 622.276L509 642.591Z" fill="#CBCBCB"/>
<path d="M380.525 384.537L386 380.194C381.747 379.729 379.999 382.029 379.284 383.85C375.961 382.482 372.344 384.275 372.344 384.275L383.298 388.219C382.745 386.755 381.784 385.478 380.525 384.537Z" fill="#3F3D56"/>
<path d="M179.421 382.839L184.896 378.496C180.643 378.031 178.895 380.332 178.18 382.153C174.857 380.784 171.24 382.578 171.24 382.578L182.194 386.522C181.641 385.058 180.679 383.781 179.421 382.839Z" fill="#3F3D56"/>
<path d="M368.544 465.596L374.019 461.253C369.766 460.788 368.019 463.089 367.303 464.91C363.981 463.541 360.364 465.335 360.364 465.335L371.317 469.279C370.765 467.815 369.803 466.537 368.544 465.596Z" fill="#3F3D56"/>
<path d="M331.364 652.39L335.548 653.932L343.535 638.658L337.359 636.382L331.364 652.39Z" fill="#FFB7B7"/>
<path d="M330.804 650.641L339.044 653.678L339.044 653.678C340.437 654.191 341.567 655.232 342.186 656.572C342.805 657.912 342.862 659.441 342.344 660.822L342.281 660.991L328.789 656.019L330.804 650.641Z" fill="#2F2E41"/>
<path d="M372.541 656.7L377.005 656.699L379.128 639.622L372.54 639.623L372.541 656.7Z" fill="#FFB7B7"/>
<path d="M371.766 655.254L380.557 655.254H380.558C382.043 655.254 383.468 655.839 384.519 656.881C385.569 657.923 386.16 659.336 386.16 660.81V660.991L371.767 660.991L371.766 655.254Z" fill="#2F2E41"/>
<path d="M352.105 538.264L353.561 535.375L365.94 541.514L365.576 544.042L367.943 547.112C367.943 547.112 371.948 549.279 371.22 556.501L370.491 563.362L369.581 572.21L375.953 594.058L379.23 622.948L381.596 646.241L370.127 645.699L359.569 607.781L341 648.588L328.257 645.338L345.733 604.892L347.918 587.919C347.918 587.919 346.461 578.891 353.379 572.752L352.287 569.502V565.497L348.646 546.39L352.105 538.264Z" fill="#2F2E41"/>
<path opacity="0.2" d="M351.764 579.555L351.353 579.671L359.363 607.838L359.774 607.723L351.764 579.555Z" fill="black"/>
<path d="M352.469 574.016H370.309V572.21H352.469V574.016Z" fill="#3F3D56"/>
<path d="M370.309 575.099C370.711 575.099 371.038 574.291 371.038 573.293C371.038 572.296 370.711 571.488 370.309 571.488C369.907 571.488 369.581 572.296 369.581 573.293C369.581 574.291 369.907 575.099 370.309 575.099Z" fill="#3F3D56"/>
<path d="M370.78 529.765C373.351 525.1 371.622 519.251 366.919 516.701C362.216 514.151 356.319 515.865 353.748 520.53C351.177 525.195 352.906 531.044 357.609 533.594C362.312 536.144 368.209 534.429 370.78 529.765Z" fill="#FFB7B7"/>
<path d="M347.413 521.711C352.155 521.711 355.999 517.898 355.999 513.195C355.999 508.492 352.155 504.679 347.413 504.679C342.671 504.679 338.827 508.492 338.827 513.195C338.827 517.898 342.671 521.711 347.413 521.711Z" fill="#2F2E41"/>
<path d="M336.517 512.283C336.179 513.411 336.08 514.597 336.226 515.765C336.373 516.934 336.762 518.059 337.37 519.07C337.977 520.082 338.789 520.958 339.755 521.642C340.721 522.326 341.819 522.805 342.98 523.047C344.142 523.289 345.341 523.29 346.503 523.049C347.665 522.808 348.764 522.331 349.73 521.648C350.697 520.965 351.51 520.09 352.119 519.079C352.727 518.068 353.118 516.943 353.266 515.775C352.651 517.824 351.281 519.568 349.43 520.662C347.578 521.756 345.379 522.118 343.27 521.679C341.161 521.239 339.296 520.029 338.045 518.288C336.794 516.548 336.249 514.404 336.517 512.283Z" fill="#2F2E41"/>
<path d="M370.436 522.475C370.688 524.676 370.201 526.898 369.051 528.797C367.9 530.696 366.15 532.165 364.072 532.978C361.994 533.79 359.704 533.9 357.557 533.29C355.409 532.681 353.525 531.386 352.195 529.606C350.865 527.826 350.164 525.661 350.2 523.446C350.237 521.231 351.009 519.09 352.397 517.354C353.784 515.618 355.711 514.385 357.877 513.845C360.043 513.306 362.329 513.49 364.379 514.369C366.074 513.013 368.176 513.433 369.885 514.865C371.818 516.483 372.392 517.595 373.89 520.256C372.417 520.462 371.91 522.27 370.436 522.475Z" fill="#2F2E41"/>
<path d="M334.762 551.423C334.871 554.276 335.086 559.891 335.086 560.178C335.086 560.48 339.378 569.294 341.232 573.087V573.089C341.364 573.356 341.482 573.599 341.587 573.812C341.73 574.107 341.956 574.354 342.237 574.525C342.517 574.696 342.842 574.784 343.171 574.778L351.274 574.634C351.72 574.626 352.145 574.448 352.461 574.137C352.777 573.826 352.96 573.406 352.971 572.964L353.875 537.606C353.878 537.489 353.858 537.373 353.815 537.264C353.772 537.156 353.707 537.057 353.625 536.973C353.543 536.89 353.445 536.823 353.337 536.778C353.229 536.733 353.112 536.709 352.995 536.709H342.545C342.104 536.709 341.671 536.833 341.297 537.066C340.923 537.298 340.623 537.631 340.431 538.025L335.416 548.316C334.945 549.284 334.721 550.35 334.762 551.423V551.423Z" fill="white"/>
<path d="M353.112 570.538C355.192 569.288 357.06 567.722 358.649 565.897C362.341 561.778 364.587 556.583 365.048 551.09C365.46 546.391 364.52 542.898 362.254 540.708C359.374 537.925 355.453 538.329 355.288 538.348L355.112 538.368L352.456 540.597L353.208 541.478L355.584 539.483C356.312 539.447 359.282 539.439 361.451 541.544C363.448 543.482 364.268 546.66 363.889 550.99C363.45 556.22 361.317 561.168 357.81 565.096C356.296 566.832 354.523 568.326 352.551 569.527L353.112 570.538Z" fill="white"/>
<path d="M338.034 557.104L337.956 557.481L352.114 560.365L352.192 559.989L338.034 557.104Z" fill="#3F3D56"/>
<path d="M347.366 536.701L346.446 559.046L346.834 559.062L347.753 536.717L347.366 536.701Z" fill="#3F3D56"/>
<path d="M334.762 551.423C334.871 554.276 335.086 559.891 335.086 560.178C335.086 560.48 339.378 569.294 341.232 573.087L337.776 553.183C337.642 552.418 337.306 551.701 336.801 551.106C336.297 550.512 335.642 550.061 334.904 549.8C334.788 550.333 334.74 550.878 334.762 551.423Z" fill="#3F3D56"/>
<path d="M355.996 593.136C355.69 592.745 355.474 592.292 355.364 591.809C355.253 591.327 355.251 590.826 355.357 590.342C355.463 589.858 355.674 589.403 355.977 589.009C356.279 588.615 356.665 588.292 357.106 588.062L356.404 580.355L361.022 578.789L361.86 589.687C362.2 590.449 362.247 591.308 361.991 592.102C361.736 592.896 361.195 593.57 360.473 593.995C359.75 594.42 358.895 594.567 358.07 594.409C357.245 594.251 356.507 593.798 355.996 593.136Z" fill="#FFB7B7"/>
<path d="M352.974 546.623C352.884 545.452 353.189 544.286 353.841 543.306C354.494 542.327 355.456 541.591 356.577 541.215C357.566 540.891 358.633 540.892 359.621 541.218C360.678 541.575 361.595 542.252 362.242 543.155C362.89 544.057 363.235 545.138 363.229 546.246L363.575 585.385L355.393 585.679L352.974 546.623Z" fill="#CBCBCB"/>
</g>
<g filter="url(#filter2_dd_117_13)">
<path d="M231.069 134.42C230.799 134.12 230.229 133.73 229.359 133.25C228.489 132.74 227.439 132.29 226.209 131.9C225.009 131.48 223.764 131.27 222.474 131.27C219.084 131.27 217.389 132.47 217.389 134.87C217.389 135.74 217.659 136.43 218.199 136.94C218.739 137.45 219.549 137.885 220.629 138.245C221.709 138.605 223.059 138.995 224.679 139.415C226.779 139.955 228.594 140.585 230.124 141.305C231.684 142.025 232.869 142.985 233.679 144.185C234.519 145.355 234.939 146.915 234.939 148.865C234.939 151.145 234.384 152.99 233.274 154.4C232.194 155.78 230.754 156.785 228.954 157.415C227.154 158.045 225.204 158.36 223.104 158.36C220.704 158.36 218.319 158 215.949 157.28C213.609 156.53 211.524 155.51 209.694 154.22L212.439 148.865C212.709 149.135 213.189 149.495 213.879 149.945C214.569 150.365 215.409 150.8 216.399 151.25C217.389 151.67 218.469 152.03 219.639 152.33C220.809 152.63 221.994 152.78 223.194 152.78C226.614 152.78 228.324 151.685 228.324 149.495C228.324 148.565 227.979 147.815 227.289 147.245C226.599 146.675 225.624 146.195 224.364 145.805C223.134 145.415 221.694 144.98 220.044 144.5C218.004 143.93 216.309 143.3 214.959 142.61C213.639 141.89 212.649 141.005 211.989 139.955C211.329 138.875 210.999 137.51 210.999 135.86C210.999 133.67 211.509 131.84 212.529 130.37C213.579 128.87 214.989 127.745 216.759 126.995C218.529 126.215 220.494 125.825 222.654 125.825C224.874 125.825 226.944 126.185 228.864 126.905C230.784 127.625 232.434 128.45 233.814 129.38L231.069 134.42ZM263.526 131.495H253.311V158H247.146V131.495H236.931V126.05H263.526V131.495ZM267.493 158V126.05H281.623C283.093 126.05 284.443 126.35 285.673 126.95C286.933 127.55 288.013 128.36 288.913 129.38C289.843 130.4 290.548 131.54 291.028 132.8C291.538 134.06 291.793 135.35 291.793 136.67C291.793 138.71 291.268 140.585 290.218 142.295C289.198 144.005 287.803 145.235 286.033 145.985L293.323 158H286.483L279.913 147.29H273.703V158H267.493ZM273.703 141.845H281.488C282.658 141.845 283.618 141.35 284.368 140.36C285.148 139.34 285.538 138.11 285.538 136.67C285.538 135.68 285.328 134.795 284.908 134.015C284.488 133.235 283.948 132.62 283.288 132.17C282.658 131.72 281.968 131.495 281.218 131.495H273.703V141.845ZM306.104 126.05H312.404L324.149 158H317.759L314.789 150.035H303.629L300.704 158H294.314L306.104 126.05ZM313.664 145.67L309.254 132.485L304.664 145.67H313.664ZM348.56 131.495H338.345V158H332.18V131.495H321.965V126.05H348.56V131.495ZM374.712 152.555V158H352.527V126.05H374.307V131.495H358.737V139.19H372.192V144.23H358.737V152.555H374.712ZM392.257 158.225C390.157 158.225 388.192 157.805 386.362 156.965C384.532 156.125 382.912 154.97 381.502 153.5C380.122 152 379.042 150.26 378.262 148.28C377.482 146.3 377.092 144.155 377.092 141.845C377.092 139.655 377.482 137.6 378.262 135.68C379.042 133.73 380.137 132.02 381.547 130.55C382.957 129.08 384.607 127.925 386.497 127.085C388.387 126.245 390.442 125.825 392.662 125.825C395.632 125.825 398.197 126.47 400.357 127.76C402.517 129.02 404.137 130.7 405.217 132.8L400.582 136.22C399.772 134.66 398.632 133.46 397.162 132.62C395.722 131.75 394.147 131.315 392.437 131.315C390.637 131.315 389.047 131.81 387.667 132.8C386.317 133.79 385.252 135.095 384.472 136.715C383.722 138.335 383.347 140.105 383.347 142.025C383.347 144.035 383.752 145.85 384.562 147.47C385.372 149.09 386.482 150.38 387.892 151.34C389.332 152.27 390.967 152.735 392.797 152.735C395.887 152.735 398.677 151.28 401.167 148.37V146.12H394.732V141.575H406.297V158H401.167V154.4C398.587 156.95 395.617 158.225 392.257 158.225ZM413.519 126.05L421.394 141.08L429.404 126.05H436.109L424.499 146.84V158H418.334V146.75L406.769 126.05H413.519ZM242.51 211V179.05H254.12C257.6 179.05 260.51 179.77 262.85 181.21C265.19 182.62 266.945 184.54 268.115 186.97C269.285 189.37 269.87 192.04 269.87 194.98C269.87 198.22 269.225 201.04 267.935 203.44C266.645 205.84 264.815 207.7 262.445 209.02C260.075 210.34 257.3 211 254.12 211H242.51ZM263.615 194.98C263.615 192.91 263.24 191.095 262.49 189.535C261.74 187.945 260.66 186.715 259.25 185.845C257.84 184.945 256.13 184.495 254.12 184.495H248.72V205.555H254.12C256.16 205.555 257.885 205.105 259.295 204.205C260.705 203.275 261.77 202.015 262.49 200.425C263.24 198.805 263.615 196.99 263.615 194.98ZM296.907 205.555V211H274.722V179.05H296.502V184.495H280.932V192.19H294.387V197.23H280.932V205.555H296.907ZM320.783 187.42C320.513 187.12 319.943 186.73 319.073 186.25C318.203 185.74 317.153 185.29 315.923 184.9C314.723 184.48 313.478 184.27 312.188 184.27C308.798 184.27 307.103 185.47 307.103 187.87C307.103 188.74 307.373 189.43 307.913 189.94C308.453 190.45 309.263 190.885 310.343 191.245C311.423 191.605 312.773 191.995 314.393 192.415C316.493 192.955 318.308 193.585 319.838 194.305C321.398 195.025 322.583 195.985 323.393 197.185C324.233 198.355 324.653 199.915 324.653 201.865C324.653 204.145 324.098 205.99 322.988 207.4C321.908 208.78 320.468 209.785 318.668 210.415C316.868 211.045 314.918 211.36 312.818 211.36C310.418 211.36 308.033 211 305.663 210.28C303.323 209.53 301.238 208.51 299.408 207.22L302.153 201.865C302.423 202.135 302.903 202.495 303.593 202.945C304.283 203.365 305.123 203.8 306.113 204.25C307.103 204.67 308.183 205.03 309.353 205.33C310.523 205.63 311.708 205.78 312.908 205.78C316.328 205.78 318.038 204.685 318.038 202.495C318.038 201.565 317.693 200.815 317.003 200.245C316.313 199.675 315.338 199.195 314.078 198.805C312.848 198.415 311.408 197.98 309.758 197.5C307.718 196.93 306.023 196.3 304.673 195.61C303.353 194.89 302.363 194.005 301.703 192.955C301.043 191.875 300.713 190.51 300.713 188.86C300.713 186.67 301.223 184.84 302.243 183.37C303.293 181.87 304.703 180.745 306.473 179.995C308.243 179.215 310.208 178.825 312.368 178.825C314.588 178.825 316.658 179.185 318.578 179.905C320.498 180.625 322.148 181.45 323.528 182.38L320.783 187.42ZM329.346 211V179.05H335.556V211H329.346ZM355.497 211.225C353.397 211.225 351.432 210.805 349.602 209.965C347.772 209.125 346.152 207.97 344.742 206.5C343.362 205 342.282 203.26 341.502 201.28C340.722 199.3 340.332 197.155 340.332 194.845C340.332 192.655 340.722 190.6 341.502 188.68C342.282 186.73 343.377 185.02 344.787 183.55C346.197 182.08 347.847 180.925 349.737 180.085C351.627 179.245 353.682 178.825 355.902 178.825C358.872 178.825 361.437 179.47 363.597 180.76C365.757 182.02 367.377 183.7 368.457 185.8L363.822 189.22C363.012 187.66 361.872 186.46 360.402 185.62C358.962 184.75 357.387 184.315 355.677 184.315C353.877 184.315 352.287 184.81 350.907 185.8C349.557 186.79 348.492 188.095 347.712 189.715C346.962 191.335 346.587 193.105 346.587 195.025C346.587 197.035 346.992 198.85 347.802 200.47C348.612 202.09 349.722 203.38 351.132 204.34C352.572 205.27 354.207 205.735 356.037 205.735C359.127 205.735 361.917 204.28 364.407 201.37V199.12H357.972V194.575H369.537V211H364.407V207.4C361.827 209.95 358.857 211.225 355.497 211.225ZM381.039 190.48V211H374.829V179.05H379.779L396.294 200.11V179.095H402.504V211H397.329L381.039 190.48ZM195.547 258.555V264H173.362V232.05H195.142V237.495H179.572V245.19H193.027V250.23H179.572V258.555H195.547ZM206.598 243.48V264H200.388V232.05H205.338L221.853 253.11V232.095H228.063V264H222.888L206.598 243.48ZM247.984 264.225C245.884 264.225 243.919 263.805 242.089 262.965C240.259 262.125 238.639 260.97 237.229 259.5C235.849 258 234.769 256.26 233.989 254.28C233.209 252.3 232.819 250.155 232.819 247.845C232.819 245.655 233.209 243.6 233.989 241.68C234.769 239.73 235.864 238.02 237.274 236.55C238.684 235.08 240.334 233.925 242.224 233.085C244.114 232.245 246.169 231.825 248.389 231.825C251.359 231.825 253.924 232.47 256.084 233.76C258.244 235.02 259.864 236.7 260.944 238.8L256.309 242.22C255.499 240.66 254.359 239.46 252.889 238.62C251.449 237.75 249.874 237.315 248.164 237.315C246.364 237.315 244.774 237.81 243.394 238.8C242.044 239.79 240.979 241.095 240.199 242.715C239.449 244.335 239.074 246.105 239.074 248.025C239.074 250.035 239.479 251.85 240.289 253.47C241.099 255.09 242.209 256.38 243.619 257.34C245.059 258.27 246.694 258.735 248.524 258.735C251.614 258.735 254.404 257.28 256.894 254.37V252.12H250.459V247.575H262.024V264H256.894V260.4C254.314 262.95 251.344 264.225 247.984 264.225ZM267.317 264V232.05H273.527V264H267.317ZM286.403 243.48V264H280.193V232.05H285.143L301.658 253.11V232.095H307.868V264H302.693L286.403 243.48ZM336.699 258.555V264H314.514V232.05H336.294V237.495H320.724V245.19H334.179V250.23H320.724V258.555H336.699ZM363.725 258.555V264H341.54V232.05H363.32V237.495H347.75V245.19H361.205V250.23H347.75V258.555H363.725ZM368.567 264V232.05H382.697C384.167 232.05 385.517 232.35 386.747 232.95C388.007 233.55 389.087 234.36 389.987 235.38C390.917 236.4 391.622 237.54 392.102 238.8C392.612 240.06 392.867 241.35 392.867 242.67C392.867 244.71 392.342 246.585 391.292 248.295C390.272 250.005 388.877 251.235 387.107 251.985L394.397 264H387.557L380.987 253.29H374.777V264H368.567ZM374.777 247.845H382.562C383.732 247.845 384.692 247.35 385.442 246.36C386.222 245.34 386.612 244.11 386.612 242.67C386.612 241.68 386.402 240.795 385.982 240.015C385.562 239.235 385.022 238.62 384.362 238.17C383.732 237.72 383.042 237.495 382.292 237.495H374.777V247.845ZM398.494 264V232.05H404.704V264H398.494ZM417.58 243.48V264H411.37V232.05H416.32L432.835 253.11V232.095H439.045V264H433.87L417.58 243.48ZM458.966 264.225C456.866 264.225 454.901 263.805 453.071 262.965C451.241 262.125 449.621 260.97 448.211 259.5C446.831 258 445.751 256.26 444.971 254.28C444.191 252.3 443.801 250.155 443.801 247.845C443.801 245.655 444.191 243.6 444.971 241.68C445.751 239.73 446.846 238.02 448.256 236.55C449.666 235.08 451.316 233.925 453.206 233.085C455.096 232.245 457.151 231.825 459.371 231.825C462.341 231.825 464.906 232.47 467.066 233.76C469.226 235.02 470.846 236.7 471.926 238.8L467.291 242.22C466.481 240.66 465.341 239.46 463.871 238.62C462.431 237.75 460.856 237.315 459.146 237.315C457.346 237.315 455.756 237.81 454.376 238.8C453.026 239.79 451.961 241.095 451.181 242.715C450.431 244.335 450.056 246.105 450.056 248.025C450.056 250.035 450.461 251.85 451.271 253.47C452.081 255.09 453.191 256.38 454.601 257.34C456.041 258.27 457.676 258.735 459.506 258.735C462.596 258.735 465.386 257.28 467.876 254.37V252.12H461.441V247.575H473.006V264H467.876V260.4C465.296 262.95 462.326 264.225 458.966 264.225Z" fill="#333333" fill-opacity="0.9"/>
</g>
<g opacity="0.4" filter="url(#filter3_f_117_13)">
<path d="M14 33C14 33 14.9379 27.4289 16.5 24.5C18.0621 21.5711 22 18 22 18V837C22 837 18.0621 833.929 16.5 831C14.9379 828.071 14 822 14 822V33Z" fill="url(#paint1_linear_117_13)"/>
</g>
<g opacity="0.4" filter="url(#filter4_f_117_13)">
<path d="M632 33C632 33 631.062 27.4289 629.5 24.5C627.938 21.5711 624 18 624 18V837C624 837 627.938 833.929 629.5 831C631.062 828.071 632 822 632 822V33Z" fill="url(#paint2_linear_117_13)"/>
</g>
<g opacity="0.55" filter="url(#filter5_f_117_13)">
<rect x="41" y="14" width="31" height="827" fill="url(#paint3_linear_117_13)"/>
</g>
<rect x="14" y="14" width="618" height="827" rx="20" fill="url(#paint4_linear_117_13)" fill-opacity="0.5"/>
<defs>
<filter id="filter0_dd_117_13" x="0" y="0" width="658" height="867" filterUnits="userSpaceOnUse" color-interpolation-filters="sRGB">
<feFlood flood-opacity="0" result="BackgroundImageFix"/>
<feColorMatrix in="SourceAlpha" type="matrix" values="0 0 0 0 0 0 0 0 0 0 0 0 0 0 0 0 0 0 127 0" result="hardAlpha"/>
<feMorphology radius="5" operator="dilate" in="SourceAlpha" result="effect1_dropShadow_117_13"/>
<feOffset dx="6" dy="6"/>
<feGaussianBlur stdDeviation="7.5"/>
<feColorMatrix type="matrix" values="0 0 0 0 0 0 0 0 0 0 0 0 0 0 0 0 0 0 0.1 0"/>
<feBlend mode="normal" in2="BackgroundImageFix" result="effect1_dropShadow_117_13"/>
<feColorMatrix in="SourceAlpha" type="matrix" values="0 0 0 0 0 0 0 0 0 0 0 0 0 0 0 0 0 0 127 0" result="hardAlpha"/>
<feOffset dx="6" dy="6"/>
<feGaussianBlur stdDeviation="5"/>
<feColorMatrix type="matrix" values="0 0 0 0 0 0 0 0 0 0 0 0 0 0 0 0 0 0 0.2 0"/>
<feBlend mode="normal" in2="effect1_dropShadow_117_13" result="effect2_dropShadow_117_13"/>
<feBlend mode="normal" in="SourceGraphic" in2="effect2_dropShadow_117_13" result="shape"/>
</filter>
<filter id="filter1_dd_117_13" x="208.24" y="752.4" width="227.969" height="21.0601" filterUnits="userSpaceOnUse" color-interpolation-filters="sRGB">
<feFlood flood-opacity="0" result="BackgroundImageFix"/>
<feColorMatrix in="SourceAlpha" type="matrix" values="0 0 0 0 0 0 0 0 0 0 0 0 0 0 0 0 0 0 127 0" result="hardAlpha"/>
<feOffset dx="-1" dy="-1"/>
<feColorMatrix type="matrix" values="0 0 0 0 0 0 0 0 0 0 0 0 0 0 0 0 0 0 0.1 0"/>
<feBlend mode="normal" in2="BackgroundImageFix" result="effect1_dropShadow_117_13"/>
<feColorMatrix in="SourceAlpha" type="matrix" values="0 0 0 0 0 0 0 0 0 0 0 0 0 0 0 0 0 0 127 0" result="hardAlpha"/>
<feOffset dx="1" dy="1"/>
<feColorMatrix type="matrix" values="0 0 0 0 1 0 0 0 0 1 0 0 0 0 1 0 0 0 0.1 0"/>
<feBlend mode="normal" in2="effect1_dropShadow_117_13" result="effect2_dropShadow_117_13"/>
<feBlend mode="normal" in="SourceGraphic" in2="effect2_dropShadow_117_13" result="shape"/>
</filter>
<filter id="filter2_dd_117_13" x="172.362" y="124.825" width="301.644" height="140.4" filterUnits="userSpaceOnUse" color-interpolation-filters="sRGB">
<feFlood flood-opacity="0" result="BackgroundImageFix"/>
<feColorMatrix in="SourceAlpha" type="matrix" values="0 0 0 0 0 0 0 0 0 0 0 0 0 0 0 0 0 0 127 0" result="hardAlpha"/>
<feOffset dx="-1" dy="-1"/>
<feColorMatrix type="matrix" values="0 0 0 0 0 0 0 0 0 0 0 0 0 0 0 0 0 0 0.2 0"/>
<feBlend mode="normal" in2="BackgroundImageFix" result="effect1_dropShadow_117_13"/>
<feColorMatrix in="SourceAlpha" type="matrix" values="0 0 0 0 0 0 0 0 0 0 0 0 0 0 0 0 0 0 127 0" result="hardAlpha"/>
<feOffset dx="1" dy="1"/>
<feColorMatrix type="matrix" values="0 0 0 0 1 0 0 0 0 1 0 0 0 0 1 0 0 0 0.2 0"/>
<feBlend mode="normal" in2="effect1_dropShadow_117_13" result="effect2_dropShadow_117_13"/>
<feBlend mode="normal" in="SourceGraphic" in2="effect2_dropShadow_117_13" result="shape"/>
</filter>
<filter id="filter3_f_117_13" x="13.5" y="17.5" width="9" height="820" filterUnits="userSpaceOnUse" color-interpolation-filters="sRGB">
<feFlood flood-opacity="0" result="BackgroundImageFix"/>
<feBlend mode="normal" in="SourceGraphic" in2="BackgroundImageFix" result="shape"/>
<feGaussianBlur stdDeviation="0.25" result="effect1_foregroundBlur_117_13"/>
</filter>
<filter id="filter4_f_117_13" x="623.5" y="17.5" width="9" height="820" filterUnits="userSpaceOnUse" color-interpolation-filters="sRGB">
<feFlood flood-opacity="0" result="BackgroundImageFix"/>
<feBlend mode="normal" in="SourceGraphic" in2="BackgroundImageFix" result="shape"/>
<feGaussianBlur stdDeviation="0.25" result="effect1_foregroundBlur_117_13"/>
</filter>
<filter id="filter5_f_117_13" x="40.9" y="13.9" width="31.2" height="827.2" filterUnits="userSpaceOnUse" color-interpolation-filters="sRGB">
<feFlood flood-opacity="0" result="BackgroundImageFix"/>
<feBlend mode="normal" in="SourceGraphic" in2="BackgroundImageFix" result="shape"/>
<feGaussianBlur stdDeviation="0.05" result="effect1_foregroundBlur_117_13"/>
</filter>
<linearGradient id="paint0_linear_117_13" x1="632" y1="512.519" x2="13.9112" y2="263.48" gradientUnits="userSpaceOnUse">
<stop stop-color="#79B9C5"/>
<stop offset="1" stop-color="#7CBCC8"/>
</linearGradient>
<linearGradient id="paint1_linear_117_13" x1="22" y1="385.1" x2="14" y2="385.1" gradientUnits="userSpaceOnUse">
<stop stop-color="#7CBCC8" stop-opacity="0"/>
<stop offset="0.614583" stop-color="#155662"/>
</linearGradient>
<linearGradient id="paint2_linear_117_13" x1="624" y1="385.1" x2="632" y2="385.1" gradientUnits="userSpaceOnUse">
<stop stop-color="#7CBCC8" stop-opacity="0"/>
<stop offset="0.614583" stop-color="#155662"/>
</linearGradient>
<linearGradient id="paint3_linear_117_13" x1="72" y1="383.058" x2="41" y2="383.058" gradientUnits="userSpaceOnUse">
<stop stop-color="#7CBCC8" stop-opacity="0"/>
<stop offset="0.354167" stop-color="#186D7D" stop-opacity="0.6"/>
<stop offset="0.640625" stop-color="#186D7D" stop-opacity="0.6"/>
<stop offset="1" stop-color="#7CBCC8" stop-opacity="0"/>
</linearGradient>
<linearGradient id="paint4_linear_117_13" x1="632" y1="841" x2="13.5959" y2="23.9671" gradientUnits="userSpaceOnUse">
<stop stop-opacity="0.2"/>
<stop offset="0.338542" stop-opacity="0"/>
<stop offset="0.630208" stop-color="white" stop-opacity="0"/>
<stop offset="1" stop-color="white" stop-opacity="0.3"/>
</linearGradient>
<clipPath id="clip0_117_13">
<rect width="348" height="336" fill="white" transform="translate(161 333)"/>
</clipPath>
</defs>
</svg>
