<svg width="469" height="445" viewBox="0 0 469 445" fill="none" xmlns="http://www.w3.org/2000/svg">
<circle cx="18.5" cy="18.5" r="18.5" fill="black"/>
<circle cx="18.5" cy="69.5" r="18.5" fill="black"/>
<circle cx="18.5" cy="120.5" r="18.5" fill="black"/>
<circle cx="18.5" cy="171.5" r="18.5" fill="black"/>
<circle cx="18.5" cy="222.5" r="18.5" fill="black"/>
<circle cx="18.5" cy="273.5" r="18.5" fill="black"/>
<circle cx="18.5" cy="324.5" r="18.5" fill="black"/>
<circle cx="18.5" cy="375.5" r="18.5" fill="black"/>
<circle cx="18.5" cy="426.5" r="18.5" fill="black"/>
<circle cx="72.5" cy="18.5" r="18.5" fill="black"/>
<circle cx="72.5" cy="69.5" r="18.5" fill="black"/>
<circle cx="72.5" cy="120.5" r="18.5" fill="black"/>
<circle cx="72.5" cy="171.5" r="18.5" fill="black"/>
<circle cx="72.5" cy="222.5" r="18.5" fill="black"/>
<circle cx="72.5" cy="273.5" r="18.5" fill="black"/>
<circle cx="72.5" cy="324.5" r="18.5" fill="black"/>
<circle cx="72.5" cy="375.5" r="18.5" fill="black"/>
<circle cx="72.5" cy="426.5" r="18.5" fill="black"/>
<circle cx="126.5" cy="18.5" r="18.5" fill="black"/>
<circle cx="126.5" cy="69.5" r="18.5" fill="black"/>
<circle cx="126.5" cy="120.5" r="18.5" fill="black"/>
<circle cx="126.5" cy="171.5" r="18.5" fill="black"/>
<circle cx="126.5" cy="222.5" r="18.5" fill="black"/>
<circle cx="126.5" cy="273.5" r="18.5" fill="black"/>
<circle cx="126.5" cy="324.5" r="18.5" fill="black"/>
<circle cx="126.5" cy="375.5" r="18.5" fill="black"/>
<circle cx="126.5" cy="426.5" r="18.5" fill="black"/>
<circle cx="180.5" cy="18.5" r="18.5" fill="black"/>
<circle cx="180.5" cy="69.5" r="18.5" fill="black"/>
<circle cx="180.5" cy="120.5" r="18.5" fill="black"/>
<circle cx="180.5" cy="171.5" r="18.5" fill="black"/>
<circle cx="180.5" cy="222.5" r="18.5" fill="black"/>
<circle cx="180.5" cy="273.5" r="18.5" fill="black"/>
<circle cx="180.5" cy="324.5" r="18.5" fill="black"/>
<circle cx="180.5" cy="375.5" r="18.5" fill="black"/>
<circle cx="180.5" cy="426.5" r="18.5" fill="black"/>
<circle cx="234.5" cy="18.5" r="18.5" fill="black"/>
<circle cx="234.5" cy="69.5" r="18.5" fill="black"/>
<circle cx="234.5" cy="120.5" r="18.5" fill="black"/>
<circle cx="234.5" cy="171.5" r="18.5" fill="black"/>
<circle cx="234.5" cy="222.5" r="18.5" fill="black"/>
<circle cx="234.5" cy="273.5" r="18.5" fill="black"/>
<circle cx="234.5" cy="324.5" r="18.5" fill="black"/>
<circle cx="234.5" cy="375.5" r="18.5" fill="black"/>
<circle cx="234.5" cy="426.5" r="18.5" fill="black"/>
<circle cx="288.5" cy="18.5" r="18.5" fill="black"/>
<circle cx="288.5" cy="69.5" r="18.5" fill="black"/>
<circle cx="288.5" cy="120.5" r="18.5" fill="black"/>
<circle cx="288.5" cy="171.5" r="18.5" fill="black"/>
<circle cx="288.5" cy="222.5" r="18.5" fill="black"/>
<circle cx="288.5" cy="273.5" r="18.5" fill="black"/>
<circle cx="288.5" cy="324.5" r="18.5" fill="black"/>
<circle cx="288.5" cy="375.5" r="18.5" fill="black"/>
<circle cx="288.5" cy="426.5" r="18.5" fill="black"/>
<circle cx="342.5" cy="18.5" r="18.5" fill="black"/>
<circle cx="342.5" cy="69.5" r="18.5" fill="black"/>
<circle cx="342.5" cy="120.5" r="18.5" fill="black"/>
<circle cx="342.5" cy="171.5" r="18.5" fill="black"/>
<circle cx="342.5" cy="222.5" r="18.5" fill="black"/>
<circle cx="342.5" cy="273.5" r="18.5" fill="black"/>
<circle cx="342.5" cy="324.5" r="18.5" fill="black"/>
<circle cx="342.5" cy="375.5" r="18.5" fill="black"/>
<circle cx="342.5" cy="426.5" r="18.5" fill="black"/>
<circle cx="396.5" cy="18.5" r="18.5" fill="black"/>
<circle cx="396.5" cy="69.5" r="18.5" fill="black"/>
<circle cx="396.5" cy="120.5" r="18.5" fill="black"/>
<circle cx="396.5" cy="171.5" r="18.5" fill="black"/>
<circle cx="396.5" cy="222.5" r="18.5" fill="black"/>
<circle cx="396.5" cy="273.5" r="18.5" fill="black"/>
<circle cx="396.5" cy="324.5" r="18.5" fill="black"/>
<circle cx="396.5" cy="375.5" r="18.5" fill="black"/>
<circle cx="396.5" cy="426.5" r="18.5" fill="black"/>
<circle cx="450.5" cy="18.5" r="18.5" fill="black"/>
<circle cx="450.5" cy="69.5" r="18.5" fill="black"/>
<circle cx="450.5" cy="120.5" r="18.5" fill="black"/>
<circle cx="450.5" cy="171.5" r="18.5" fill="black"/>
<circle cx="450.5" cy="222.5" r="18.5" fill="black"/>
<circle cx="450.5" cy="273.5" r="18.5" fill="black"/>
<circle cx="450.5" cy="324.5" r="18.5" fill="black"/>
<circle cx="450.5" cy="375.5" r="18.5" fill="black"/>
<circle cx="450.5" cy="426.5" r="18.5" fill="black"/>
</svg>
