<svg width="578" height="105" viewBox="0 0 578 105" fill="none" xmlns="http://www.w3.org/2000/svg">
<path d="M523 96.0394L525 70.0394H526C529.062 76.476 539.01 94.1954 546.093 96.2654C553.3 98.3714 568.976 93.4184 576 91.0394C572.365 79.5557 563.542 68.4034 557.397 58.0393C555.326 54.5476 550.637 49.3124 550.982 45.0393C551.313 40.9449 555.941 37.0101 558.414 34.0393C564.749 26.4271 575.358 17.7376 578 8.03935C569.648 6.91465 555.083 -0.83451 547.093 1.73302C539.299 4.23765 532.331 20.8779 527 27.0394L529 1.03935L506 0L498.028 0.6821L497 21.0394L496 74.0394L496.028 95.4324L523 96.0394Z" fill="#7EB2FD"/>
<path d="M258.287 54.9984C262.919 50.2167 268.699 47.7911 271.038 40.9984C282.359 8.11979 239.571 1.51659 217.287 4.7276C211.95 5.49661 204.079 6.16625 199.605 9.41584C196.228 11.8684 197.287 17.3589 197.287 20.9984V52.9984V84.9984C197.287 88.4678 196.18 94.3681 198.315 97.3495C201.249 101.448 210.659 102.47 215.287 102.922C230.36 104.397 246.962 105.574 261.287 99.5334C280.864 91.2787 280.986 59.3903 258.287 54.9984Z" fill="#7EB2FD"/>
<path d="M219.5 46.9363C223.204 46.6157 231.421 48.4293 234.887 46.9363C257.118 37.3623 226.894 14.0151 224.282 36.4233C223.799 40.5532 219.5 42.7858 219.5 46.9363Z" fill="white"/>
<path d="M222 84.5C225.704 84.1793 234.421 88.4293 237.887 86.9363C260.118 77.3623 229.894 54.0151 227.282 76.4233C226.799 80.5532 222 80.3495 222 84.5Z" fill="white"/>
<path d="M100 102.444H129L130 74.4435C143.219 74.4902 145.506 92.7053 149 103.444L179 97.4435C176.778 89.729 164.6 77.1837 165.843 69.533C166.562 65.1021 173.45 61.3588 175.775 57.4435C181.729 47.4212 181.676 32.5384 176.095 22.4435C165.452 3.19151 142.716 4.52648 124 5.44352C118.816 5.69752 105.14 6.25384 102.603 11.722C99.207 19.0423 101 33.3793 101 41.4435C101 61.8136 100 82.0518 100 102.444Z" fill="#90D7FB"/>
<path d="M121.5 49.3735C126.958 48.9654 134.936 51.2737 140.044 49.3735C172.806 37.1884 128.265 7.47379 124.415 35.9934C123.704 41.2495 121.5 44.091 121.5 49.3735Z" fill="white"/>
<path d="M49.721 6C53.6691 22.5832 51.0226 44.4878 47.5104 61C46.7206 64.7128 43.4677 78.9263 37.1137 75.1096C33.451 72.9094 32.3148 65.8527 31.8946 62C30.571 49.8626 31.3623 37.067 33.1485 25C33.69 21.3413 36.8367 12.8731 34.6037 9.6034C33.0894 7.386 29.0022 8.0047 26.721 8C19.3403 7.9848 12.0041 8.3521 4.721 7C1.00294 14.5954 1.21259 23.709 0.631493 32C-0.60948 49.7061 -0.867777 69.9339 8.06977 86C17.2594 102.519 39.807 107.487 55.721 97.441C84.4535 79.3021 82.321 34.0697 81.721 5L49.721 6Z" fill="#90D7FB"/>
<path d="M327.324 5.67262C273.429 14.3329 284.203 101.808 339.324 93.9326C395.551 85.8992 385.02 -3.59842 327.324 5.67262Z" fill="#7EB2FD"/>
<ellipse cx="336" cy="50" rx="13" ry="16" fill="white"/>
<path d="M429.559 5.64557C375.405 14.1733 386.05 101.838 441.559 93.9063C497.59 85.9009 487.143 -3.42226 429.559 5.64557Z" fill="#7EB2FD"/>
<ellipse cx="437" cy="50" rx="13" ry="16" fill="white"/>
</svg>
